G04 ================== begin FILE IDENTIFICATION RECORD ==================*
G04 Layout Name:  C:/orcadData/atmega/allegro/ATMEGA.brd*
G04 Film Name:    BOTTOM*
G04 File Format:  Gerber RS274X*
G04 File Origin:  Cadence Allegro 16.6-B033*
G04 Origin Date:  Tue Feb 02 17:00:31 2021*
G04 *
G04 Layer:  ETCH/BOTTOM*
G04 Layer:  PIN/BOTTOM*
G04 Layer:  VIA CLASS/BOTTOM*
G04 *
G04 Offset:    (0.0000 0.0000)*
G04 Mirror:    No*
G04 Mode:      Positive*
G04 Rotation:  0*
G04 FullContactRelief:  No*
G04 UndefLineWidth:     0.0000*
G04 ================== end FILE IDENTIFICATION RECORD ====================*
%FSLAX25Y25*MOMM*%
%IR0*IPPOS*OFA0.00000B0.00000*MIA0B0*SFA1.00000B1.00000*%
%ADD10C,.635*%
%ADD11C,1.524*%
%ADD12C,1.651*%
%ADD13R,1.524X1.524*%
%ADD14C,.5*%
%ADD15C,1.*%
%ADD19C,2.5244*%
%ADD18C,2.6514*%
%ADD17C,1.9054*%
%ADD16C,1.7784*%
G75*
%LPD*%
G75*
G36*
G01X754020Y500000D02*
Y754020D01*
X500000D01*
Y9245980D01*
X754020D01*
Y9500000D01*
X9245980D01*
Y9245980D01*
X9500000D01*
Y754020D01*
X9245980D01*
Y500000D01*
X754020D01*
G37*
%LPC*%
G75*
G36*
G01X1062000Y1387540D02*
G02X970000I-46000J-117540D01*
G03Y1406460I-3703J9460D01*
G02Y1641540I46000J117540D01*
G03Y1660460I-3703J9460D01*
G02Y1895540I46000J117540D01*
G03Y1914460I-3703J9460D01*
G02Y2149540I46000J117540D01*
G03Y2168460I-3703J9460D01*
G02Y2403540I46000J117540D01*
G03Y2422460I-3703J9460D01*
G02Y2657540I46000J117540D01*
G03Y2676460I-3703J9460D01*
G02Y2911540I46000J117540D01*
G03Y2930460I-3703J9460D01*
G02X1062000I46000J117540D01*
G03Y2911540I3703J-9460D01*
G02Y2676460I-46000J-117540D01*
G03Y2657540I3703J-9460D01*
G02Y2422460I-46000J-117540D01*
G03Y2403540I3703J-9460D01*
G02Y2168460I-46000J-117540D01*
G03Y2149540I3703J-9460D01*
G02Y1914460I-46000J-117540D01*
G03Y1895540I3703J-9460D01*
G02Y1660460I-46000J-117540D01*
G03Y1641540I3703J-9460D01*
G02Y1406460I-46000J-117540D01*
G03Y1387540I3703J-9460D01*
G37*
G36*
G01X8936000D02*
G02X8844000I-46000J-117540D01*
G03Y1406460I-3703J9460D01*
G02Y1641540I46000J117540D01*
G03Y1660460I-3703J9460D01*
G02Y1895540I46000J117540D01*
G03Y1914460I-3703J9460D01*
G02Y2149540I46000J117540D01*
G03Y2168460I-3703J9460D01*
G02Y2403540I46000J117540D01*
G03Y2422460I-3703J9460D01*
G02Y2657540I46000J117540D01*
G03Y2676460I-3703J9460D01*
G02Y2911540I46000J117540D01*
G03Y2930460I-3703J9460D01*
G02X8936000I46000J117540D01*
G03Y2911540I3703J-9460D01*
G02Y2676460I-46000J-117540D01*
G03Y2657540I3703J-9460D01*
G02Y2422460I-46000J-117540D01*
G03Y2403540I3703J-9460D01*
G02Y2168460I-46000J-117540D01*
G03Y2149540I3703J-9460D01*
G02Y1914460I-46000J-117540D01*
G03Y1895540I3703J-9460D01*
G02Y1660460I-46000J-117540D01*
G03Y1641540I3703J-9460D01*
G02Y1406460I-46000J-117540D01*
G03Y1387540I3703J-9460D01*
G37*
G36*
G01X4110000Y1641540D02*
G02X4018000I-46000J-117540D01*
G03Y1660460I-3703J9460D01*
G02Y1895540I46000J117540D01*
G03Y1914460I-3703J9460D01*
G02Y2149540I46000J117540D01*
G03Y2168460I-3703J9460D01*
G02Y2403540I46000J117540D01*
G03Y2422460I-3703J9460D01*
G02Y2657540I46000J117540D01*
G03Y2676460I-3703J9460D01*
G02Y2911540I46000J117540D01*
G03Y2930460I-3703J9460D01*
G02Y3165540I46000J117540D01*
G03Y3184460I-3703J9460D01*
G02Y3419540I46000J117540D01*
G03Y3438460I-3703J9460D01*
G02X4110000I46000J117540D01*
G03Y3419540I3703J-9460D01*
G02Y3184460I-46000J-117540D01*
G03Y3165540I3703J-9460D01*
G02Y2930460I-46000J-117540D01*
G03Y2911540I3703J-9460D01*
G02Y2676460I-46000J-117540D01*
G03Y2657540I3703J-9460D01*
G02Y2422460I-46000J-117540D01*
G03Y2403540I3703J-9460D01*
G02Y2168460I-46000J-117540D01*
G03Y2149540I3703J-9460D01*
G02Y1914460I-46000J-117540D01*
G03Y1895540I3703J-9460D01*
G02Y1660460I-46000J-117540D01*
G03Y1641540I3703J-9460D01*
G37*
G36*
G01X8936000Y3927540D02*
G02X8844000I-46000J-117540D01*
G03Y3946460I-3703J9460D01*
G02X8936000I46000J117540D01*
G03Y3927540I3703J-9460D01*
G37*
G36*
G01X5634000Y4435540D02*
G02X5542000I-46000J-117540D01*
G03Y4454460I-3703J9460D01*
G02Y4689540I46000J117540D01*
G03Y4708460I-3703J9460D01*
G02Y4943540I46000J117540D01*
G03Y4962460I-3703J9460D01*
G02Y5197540I46000J117540D01*
G03Y5216460I-3703J9460D01*
G02Y5451540I46000J117540D01*
G03Y5470460I-3703J9460D01*
G02Y5705540I46000J117540D01*
G03Y5724460I-3703J9460D01*
G02Y5959540I46000J117540D01*
G03Y5978460I-3703J9460D01*
G02Y6213540I46000J117540D01*
G03Y6232460I-3703J9460D01*
G02X5634000I46000J117540D01*
G03Y6213540I3703J-9460D01*
G02Y5978460I-46000J-117540D01*
G03Y5959540I3703J-9460D01*
G02Y5724460I-46000J-117540D01*
G03Y5705540I3703J-9460D01*
G02Y5470460I-46000J-117540D01*
G03Y5451540I3703J-9460D01*
G02Y5216460I-46000J-117540D01*
G03Y5197540I3703J-9460D01*
G02Y4962460I-46000J-117540D01*
G03Y4943540I3703J-9460D01*
G02Y4708460I-46000J-117540D01*
G03Y4689540I3703J-9460D01*
G02Y4454460I-46000J-117540D01*
G03Y4435540I3703J-9460D01*
G37*
G36*
G01X1062000Y4689540D02*
G02X970000I-46000J-117540D01*
G03Y4708460I-3703J9460D01*
G02Y4943540I46000J117540D01*
G03Y4962460I-3703J9460D01*
G02Y5197540I46000J117540D01*
G03Y5216460I-3703J9460D01*
G02Y5451540I46000J117540D01*
G03Y5470460I-3703J9460D01*
G02Y5705540I46000J117540D01*
G03Y5724460I-3703J9460D01*
G02Y5959540I46000J117540D01*
G03Y5978460I-3703J9460D01*
G02Y6213540I46000J117540D01*
G03Y6232460I-3703J9460D01*
G02X1062000I46000J117540D01*
G03Y6213540I3703J-9460D01*
G02Y5978460I-46000J-117540D01*
G03Y5959540I3703J-9460D01*
G02Y5724460I-46000J-117540D01*
G03Y5705540I3703J-9460D01*
G02Y5470460I-46000J-117540D01*
G03Y5451540I3703J-9460D01*
G02Y5216460I-46000J-117540D01*
G03Y5197540I3703J-9460D01*
G02Y4962460I-46000J-117540D01*
G03Y4943540I3703J-9460D01*
G02Y4708460I-46000J-117540D01*
G03Y4689540I3703J-9460D01*
G37*
G36*
G01X8936000D02*
G02X8844000I-46000J-117540D01*
G03Y4708460I-3703J9460D01*
G02Y4943540I46000J117540D01*
G03Y4962460I-3703J9460D01*
G02Y5197540I46000J117540D01*
G03Y5216460I-3703J9460D01*
G02Y5451540I46000J117540D01*
G03Y5470460I-3703J9460D01*
G02Y5705540I46000J117540D01*
G03Y5724460I-3703J9460D01*
G02Y5959540I46000J117540D01*
G03Y5978460I-3703J9460D01*
G02Y6213540I46000J117540D01*
G03Y6232460I-3703J9460D01*
G02X8936000I46000J117540D01*
G03Y6213540I3703J-9460D01*
G02Y5978460I-46000J-117540D01*
G03Y5959540I3703J-9460D01*
G02Y5724460I-46000J-117540D01*
G03Y5705540I3703J-9460D01*
G02Y5470460I-46000J-117540D01*
G03Y5451540I3703J-9460D01*
G02Y5216460I-46000J-117540D01*
G03Y5197540I3703J-9460D01*
G02Y4962460I-46000J-117540D01*
G03Y4943540I3703J-9460D01*
G02Y4708460I-46000J-117540D01*
G03Y4689540I3703J-9460D01*
G37*
G36*
G01Y7483540D02*
G02X8844000I-46000J-117540D01*
G03Y7502460I-3703J9460D01*
G02X8936000I46000J117540D01*
G03Y7483540I3703J-9460D01*
G37*
G36*
G01X1370020Y8281980D02*
Y7696990D01*
G02X1169980I-100020J-76990D01*
G01Y8281980D01*
X1103010D01*
G02Y8482020I-87010J100020D01*
G01X1690990D01*
G02Y8281980I87010J-100020D01*
G01X1370020D01*
G37*
G36*
G01X5634000Y1641540D02*
G02X5542000I-46000J-117540D01*
G03Y1660460I-3703J9460D01*
G02Y1895540I46000J117540D01*
G03Y1914460I-3703J9460D01*
G02Y2149540I46000J117540D01*
G03Y2168460I-3703J9460D01*
G02Y2403540I46000J117540D01*
G03Y2422460I-3703J9460D01*
G02Y2657540I46000J117540D01*
G03Y2676460I-3703J9460D01*
G02Y2911540I46000J117540D01*
G03Y2930460I-3703J9460D01*
G02Y3165540I46000J117540D01*
G03Y3184460I-3703J9460D01*
G02Y3419540I46000J117540D01*
G03Y3438460I-3703J9460D01*
G02Y3673540I46000J117540D01*
G03Y3692460I-3703J9460D01*
G02X5462830Y3826270I45998J117541D01*
G01X5463160Y3828750D01*
X4496980Y4794930D01*
Y7764700D01*
G02X4441220Y7895690I75022J109298D01*
G01X4441640Y7898260D01*
X4242980Y8096930D01*
Y8788490D01*
G02X4196700Y8855110I75024J101503D01*
G03X4179750Y8859490I-9766J-2806D01*
G01X3987820Y8667560D01*
Y6476220D01*
X4190220D01*
Y6223780D01*
X4133030D01*
G03X4127890Y6204860I1J-10158D01*
G02X4110000Y5978460I-63888J-108858D01*
G03Y5959540I3703J-9460D01*
G02Y5724460I-46000J-117540D01*
G03Y5705540I3703J-9460D01*
G02Y5470460I-46000J-117540D01*
G03Y5451540I3703J-9460D01*
G02Y5216460I-46000J-117540D01*
G03Y5197540I3703J-9460D01*
G02Y4962460I-46000J-117540D01*
G03Y4943540I3703J-9460D01*
G02Y4708460I-46000J-117540D01*
G03Y4689540I3703J-9460D01*
G02Y4454460I-46000J-117540D01*
G03Y4435540I3703J-9460D01*
G02Y4200460I-46000J-117540D01*
G03Y4181540I3703J-9460D01*
G02X3939060Y4046050I-46002J-117540D01*
G01X3938820Y4047730D01*
X3455980Y4530570D01*
Y7532990D01*
G02X3656020I100020J87010D01*
G01Y4613430D01*
X3924720Y4344730D01*
G03X3941740Y4349390I7181J7184D01*
G02X4018000Y4435540I122256J-31393D01*
G03Y4454460I-3703J9460D01*
G02Y4689540I46000J117540D01*
G03Y4708460I-3703J9460D01*
G02X3938830Y4842270I45998J117541D01*
G01X3939160Y4844750D01*
X3837780Y4946130D01*
Y8729700D01*
X4224300Y9116220D01*
X6587420D01*
X7754620Y7949020D01*
X8001780D01*
Y8000220D01*
X8254220D01*
Y7747780D01*
X8197030D01*
G03X8191890Y7728860I1J-10158D01*
G02X8174000Y7502460I-63888J-108858D01*
G03Y7483540I3703J-9460D01*
G02X8082000I-46000J-117540D01*
G03Y7502460I-3703J9460D01*
G02X8051010Y7519980I46002J117539D01*
G01X7453010D01*
G02Y7720020I-87010J100020D01*
G01X8051010D01*
G02X8064110Y7728860I77015J-100002D01*
G03X8058970Y7747780I-5141J8762D01*
G01X8001780D01*
Y7798980D01*
X7692480D01*
X6525280Y8966180D01*
X4925330D01*
G03X4916440Y8951100I2J-10161D01*
G02X4695560I-110440J-61100D01*
G03X4686670Y8966180I-8892J4919D01*
G01X4437330D01*
G03X4428440Y8951100I2J-10161D01*
G02X4393020Y8788490I-110442J-61106D01*
G01Y8159070D01*
X4464890Y8087210D01*
G03X4481700Y8097630I7180J7185D01*
G02X4541630Y8037700I90300J30370D01*
G03X4531210Y8020890I-3235J-9630D01*
G01X4547740Y8004360D01*
X4550310Y8004780D01*
G02X4647020Y7764700I21687J-130782D01*
G01Y4857070D01*
X5569250Y3934840D01*
X5571730Y3935170D01*
G02X5634000Y3692460I16275J-125168D01*
G03Y3673540I3703J-9460D01*
G02Y3438460I-46000J-117540D01*
G03Y3419540I3703J-9460D01*
G02Y3184460I-46000J-117540D01*
G03Y3165540I3703J-9460D01*
G02Y2930460I-46000J-117540D01*
G03Y2911540I3703J-9460D01*
G02Y2676460I-46000J-117540D01*
G03Y2657540I3703J-9460D01*
G02Y2422460I-46000J-117540D01*
G03Y2403540I3703J-9460D01*
G02Y2168460I-46000J-117540D01*
G03Y2149540I3703J-9460D01*
G02Y1914460I-46000J-117540D01*
G03Y1895540I3703J-9460D01*
G02Y1660460I-46000J-117540D01*
G03Y1641540I3703J-9460D01*
G37*
G54D19*
X6492000Y8128000D03*
Y7678000D03*
X5842000Y8128000D03*
Y7678000D03*
X3302000Y3683000D03*
Y3195000D03*
X2794000Y8636000D03*
G54D18*
X8128000D03*
X7366000D03*
X3556000D03*
X2857500Y3683000D03*
Y3175000D03*
G54D17*
X8128000Y8890000D03*
X2603500Y3683000D03*
Y3175000D03*
X1778000Y8636000D03*
X1016000D03*
G54D16*
X8890000Y7874000D03*
X5588000Y4064000D03*
X4064000Y3810000D03*
X2794000Y8382000D03*
X1016000Y7620000D03*
%LPD*%
G75*
G54D10*
X500000Y500000D03*
Y9500000D03*
X9500000Y500000D03*
Y9500000D03*
G54D11*
X1016000Y1270000D03*
Y1524000D03*
Y1778000D03*
Y2032000D03*
Y2286000D03*
Y2540000D03*
Y2794000D03*
Y3048000D03*
Y5080000D03*
Y4826000D03*
Y4572000D03*
Y5842000D03*
Y5588000D03*
Y5334000D03*
Y6350000D03*
Y6096000D03*
Y7620000D03*
X1270000D03*
X2794000Y8636000D03*
Y8382000D03*
X3302000Y3195000D03*
Y3683000D03*
X4064000Y1524000D03*
Y1778000D03*
Y2032000D03*
Y2286000D03*
Y2540000D03*
Y2794000D03*
Y3048000D03*
Y3302000D03*
Y3556000D03*
Y3810000D03*
Y4064000D03*
Y4318000D03*
Y4572000D03*
Y4826000D03*
Y5080000D03*
Y5334000D03*
Y5588000D03*
Y5842000D03*
Y6096000D03*
X4318000Y8890000D03*
X4806000D03*
X5588000Y2032000D03*
Y1778000D03*
Y1524000D03*
Y2794000D03*
Y2540000D03*
Y2286000D03*
Y3556000D03*
Y3302000D03*
Y3048000D03*
Y4318000D03*
Y4064000D03*
Y3810000D03*
Y5080000D03*
Y4826000D03*
Y4572000D03*
Y5842000D03*
Y5588000D03*
Y5334000D03*
Y6350000D03*
Y6096000D03*
X5842000Y8128000D03*
Y7678000D03*
X6492000Y8128000D03*
Y7678000D03*
X8128000Y7366000D03*
Y7620000D03*
X8890000Y1270000D03*
Y2032000D03*
Y1778000D03*
Y1524000D03*
Y2794000D03*
Y2540000D03*
Y2286000D03*
Y3048000D03*
Y3810000D03*
Y4064000D03*
Y5080000D03*
Y4826000D03*
Y4572000D03*
Y5842000D03*
Y5588000D03*
Y5334000D03*
Y6350000D03*
Y6096000D03*
Y7366000D03*
Y7620000D03*
Y7874000D03*
G54D12*
X1016000Y8636000D03*
Y8382000D03*
X1778000Y8636000D03*
Y8382000D03*
X2857500Y3683000D03*
X2603500D03*
X2857500Y3175000D03*
X2603500D03*
X3556000Y7620000D03*
Y8636000D03*
X4572000Y8128000D03*
Y7874000D03*
X7366000Y7620000D03*
Y8636000D03*
X8128000Y8890000D03*
Y8636000D03*
G54D13*
X4064000Y6350000D03*
X8128000Y7874000D03*
G54D14*
G01X1016000Y7526000D02*
Y7620000D01*
G01D02*
Y7714000D01*
G01X922000Y7620000D02*
X1016000D01*
G01D02*
X1110000D01*
G01X1016000Y8636000D02*
Y8736350D01*
G01X915650Y8636000D02*
X1016000D01*
G01D02*
X1116350D01*
G01X1778000D02*
Y8736350D01*
G01X1677650Y8636000D02*
X1778000D01*
G01D02*
X1878350D01*
G01X2603500Y3582650D02*
Y3683000D01*
G01D02*
Y3783350D01*
G01X2503150Y3683000D02*
X2603500D01*
G01Y3074650D02*
Y3175000D01*
G01D02*
Y3275350D01*
G01X2503150Y3175000D02*
X2603500D01*
G01X2794000Y8288000D02*
Y8382000D01*
G01D02*
Y8476000D01*
G01X2700000Y8382000D02*
X2794000D01*
G01D02*
X2888000D01*
G01X4064000Y3716000D02*
Y3810000D01*
G01D02*
Y3904000D01*
G01X3970000Y3810000D02*
X4064000D01*
G01D02*
X4158000D01*
G01X4064000Y4826000D02*
X3912800Y4977200D01*
Y8698630D01*
X4255370Y9041200D01*
X6556350D01*
X7723550Y7874000D01*
X8128000D01*
G01X4318000Y8890000D02*
Y8128000D01*
X4572000Y7874000D01*
G01X5588000Y3810000D02*
X4572000Y4826000D01*
Y7874000D01*
G01Y8128000D02*
Y8228350D01*
G01X4471650Y8128000D02*
X4572000D01*
G01D02*
X4672350D01*
G01X5588000Y3970000D02*
Y4064000D01*
G01D02*
Y4158000D01*
G01X5494000Y4064000D02*
X5588000D01*
G01D02*
X5682000D01*
G01X8128000Y8890000D02*
Y8990350D01*
G01X8027650Y8890000D02*
X8128000D01*
G01D02*
X8228350D01*
G01X8890000Y7780000D02*
Y7874000D01*
G01D02*
Y7968000D01*
G01X8796000Y7874000D02*
X8890000D01*
G01D02*
X8984000D01*
G54D15*
G01X1270000Y8382000D02*
Y7620000D01*
G01X1778000Y8382000D02*
X1270000D01*
G01X1016000D02*
X1270000D01*
G01X4064000Y4064000D02*
X3556000Y4572000D01*
Y7620000D01*
G01X7366000D02*
X8128000D01*
M02*
