G04 ================== begin FILE IDENTIFICATION RECORD ==================*
G04 Layout Name:  C:/orcadData/atmega/allegro/ATMEGA.brd*
G04 Film Name:    Silkscreen_top*
G04 File Format:  Gerber RS274X*
G04 File Origin:  Cadence Allegro 16.6-B033*
G04 Origin Date:  Tue Feb 02 17:00:31 2021*
G04 *
G04 Layer:  REF DES/SILKSCREEN_TOP*
G04 Layer:  PACKAGE GEOMETRY/SILKSCREEN_TOP*
G04 Layer:  BOARD GEOMETRY/OUTLINE*
G04 Layer:  BOARD GEOMETRY/DIMENSION*
G04 *
G04 Offset:    (0.0000 0.0000)*
G04 Mirror:    No*
G04 Mode:      Positive*
G04 Rotation:  0*
G04 FullContactRelief:  No*
G04 UndefLineWidth:     0.1000*
G04 ================== end FILE IDENTIFICATION RECORD ====================*
%FSLAX25Y25*MOMM*%
%IR0*IPPOS*OFA0.00000B0.00000*MIA0B0*SFA1.00000B1.00000*%
%ADD10C,.1*%
G75*
%LPD*%
G75*
G54D10*
G01X-1837440Y4413250D02*
Y4730750D01*
X-1983110Y4503210D01*
X-1786250D01*
G01X-254000Y0D02*
X-1270000D01*
G01X-1016000Y4175130D02*
Y0D01*
G01X-1079500Y381000D02*
X-1016000Y0D01*
X-952500Y381000D01*
X-1079500D01*
G01X-1013460Y4413250D02*
Y4730750D01*
X-1060700Y4667250D01*
G01Y4413250D02*
X-966220D01*
G01X-698500Y4730750D02*
X-730000Y4720170D01*
X-753620Y4693710D01*
X-769370Y4661960D01*
X-781180Y4619620D01*
X-785110Y4572000D01*
X-781180Y4524370D01*
X-769370Y4482040D01*
X-753620Y4450280D01*
X-730000Y4423830D01*
X-698500Y4413250D01*
X-667010Y4423830D01*
X-643380Y4450280D01*
X-627630Y4482040D01*
X-615820Y4524370D01*
X-611890Y4572000D01*
X-615820Y4619620D01*
X-627630Y4661960D01*
X-643380Y4693710D01*
X-667010Y4720170D01*
X-698500Y4730750D01*
G01X-383540D02*
X-415040Y4720170D01*
X-438660Y4693710D01*
X-454410Y4661960D01*
X-466220Y4619620D01*
X-470150Y4572000D01*
X-466220Y4524370D01*
X-454410Y4482040D01*
X-438660Y4450280D01*
X-415040Y4423830D01*
X-383540Y4413250D01*
X-352050Y4423830D01*
X-328420Y4450280D01*
X-312670Y4482040D01*
X-300860Y4524370D01*
X-296930Y4572000D01*
X-300860Y4619620D01*
X-312670Y4661960D01*
X-328420Y4693710D01*
X-352050Y4720170D01*
X-383540Y4730750D01*
G01X-1249680Y4413250D02*
X-1367790D01*
Y4730750D01*
X-1249680D01*
G01X-1016000Y4968870D02*
Y10000000D01*
G01X-952500Y9619000D02*
X-1016000Y10000000D01*
X-1079500Y9619000D01*
X-952500D01*
G01X-254000Y10000000D02*
X-1270000D01*
G01X-147320Y4413250D02*
X-29210D01*
Y4730750D01*
X-147320D01*
G01X0Y0D02*
Y10000000D01*
X10000000D01*
Y0D01*
X0D01*
G01Y10254000D02*
Y11176000D01*
G01X1569090Y10922000D02*
X0D01*
G01X381000Y10985500D02*
X0Y10922000D01*
X381000Y10858500D01*
Y10985500D01*
G01X1332090Y2184400D02*
X1340130Y2171700D01*
X1349780Y2163230D01*
X1361040Y2159000D01*
X1373910Y2163230D01*
X1383560Y2171700D01*
X1393220Y2184400D01*
X1396430Y2201330D01*
Y2286000D01*
G01X1463230Y2211910D02*
X1474500Y2226730D01*
X1484150Y2235200D01*
X1497020Y2239430D01*
X1508280Y2235200D01*
X1516320Y2226730D01*
X1522760Y2214030D01*
X1524370Y2199220D01*
X1522760Y2186510D01*
X1516320Y2173810D01*
X1506670Y2163230D01*
X1495410Y2159000D01*
X1482540Y2163230D01*
X1471280Y2175930D01*
X1464840Y2194980D01*
X1463230Y2216150D01*
X1466450Y2243660D01*
X1471280Y2258490D01*
X1479320Y2273300D01*
X1490580Y2283880D01*
X1501840Y2286000D01*
X1513100Y2281770D01*
X1521150Y2271180D01*
G01X905090Y4152900D02*
X913130Y4140200D01*
X922780Y4131730D01*
X934040Y4127500D01*
X946910Y4131730D01*
X956560Y4140200D01*
X966220Y4152900D01*
X969430Y4169830D01*
Y4254500D01*
G01X1036230Y4233330D02*
X1045890Y4246030D01*
X1057150Y4252380D01*
X1070020Y4254500D01*
X1086100Y4250270D01*
X1097370Y4239680D01*
X1100580Y4226990D01*
X1098970Y4214280D01*
X1092540Y4203700D01*
X1060370Y4182530D01*
X1045890Y4167720D01*
X1036230Y4146550D01*
X1033020Y4127500D01*
X1100580D01*
G01X1046060Y7327900D02*
X1054100Y7315200D01*
X1063750Y7306730D01*
X1075010Y7302500D01*
X1087880Y7306730D01*
X1097530Y7315200D01*
X1107190Y7327900D01*
X1110400Y7344830D01*
Y7429500D01*
G01X1207770Y7302500D02*
Y7429500D01*
X1188470Y7404100D01*
G01Y7302500D02*
X1227070D01*
G01X1397000Y7747000D02*
Y7493000D01*
X889000D01*
Y7747000D01*
X1397000D01*
G01X1266020Y8818460D02*
X1256370Y8824810D01*
X1245110Y8829040D01*
X1232240D01*
X1217760Y8822690D01*
X1206500Y8812110D01*
X1198460Y8799410D01*
X1192020Y8778240D01*
X1190410Y8759190D01*
X1193630Y8740140D01*
X1198460Y8727440D01*
X1208110Y8714740D01*
X1219370Y8706270D01*
X1230630Y8702040D01*
X1241890D01*
X1253150Y8706270D01*
X1262800Y8712620D01*
X1270850Y8721090D01*
G01X1360170Y8702040D02*
Y8829040D01*
X1340870Y8803640D01*
G01Y8702040D02*
X1379470D01*
G01X889000Y8255000D02*
Y8763000D01*
X1143000D01*
Y8255000D01*
X889000D01*
G01X2028020Y8818460D02*
X2018370Y8824810D01*
X2007110Y8829040D01*
X1994240D01*
X1979760Y8822690D01*
X1968500Y8812110D01*
X1960460Y8799410D01*
X1954020Y8778240D01*
X1952410Y8759190D01*
X1955630Y8740140D01*
X1960460Y8727440D01*
X1970110Y8714740D01*
X1981370Y8706270D01*
X1992630Y8702040D01*
X2003890D01*
X2015150Y8706270D01*
X2024800Y8712620D01*
X2032850Y8721090D01*
G01X2091600Y8807870D02*
X2101260Y8820570D01*
X2112520Y8826920D01*
X2125390Y8829040D01*
X2141470Y8824810D01*
X2152740Y8814220D01*
X2155950Y8801530D01*
X2154340Y8788820D01*
X2147910Y8778240D01*
X2115740Y8757070D01*
X2101260Y8742260D01*
X2091600Y8721090D01*
X2088390Y8702040D01*
X2155950D01*
G01X1651000Y8255000D02*
Y8763000D01*
X1905000D01*
Y8255000D01*
X1651000D01*
G01X1972560Y10763250D02*
Y11080750D01*
X1826890Y10853210D01*
X2023750D01*
G01X2764620Y2910420D02*
X2754970Y2916770D01*
X2743710Y2921000D01*
X2730840D01*
X2716360Y2914650D01*
X2705100Y2904070D01*
X2697060Y2891370D01*
X2690620Y2870200D01*
X2689010Y2851150D01*
X2692230Y2832100D01*
X2697060Y2819400D01*
X2706710Y2806700D01*
X2717970Y2798230D01*
X2729230Y2794000D01*
X2740490D01*
X2751750Y2798230D01*
X2761400Y2804580D01*
X2769450Y2813050D01*
G01X2823380D02*
X2833030Y2802460D01*
X2844290Y2796120D01*
X2858770Y2794000D01*
X2873250Y2798230D01*
X2884510Y2806700D01*
X2892550Y2821510D01*
X2894160Y2838450D01*
X2890940Y2855380D01*
X2882900Y2865970D01*
X2871640Y2874430D01*
X2860380Y2876550D01*
X2849120Y2874430D01*
X2834640Y2865970D01*
X2839470Y2921000D01*
X2882900D01*
G01X2476500Y3810000D02*
X2984500D01*
Y3556000D01*
X2476500D01*
Y3810000D01*
G01Y3302000D02*
X2984500D01*
Y3048000D01*
X2476500D01*
Y3302000D01*
G01X2764620Y4116920D02*
X2754970Y4123270D01*
X2743710Y4127500D01*
X2730840D01*
X2716360Y4121150D01*
X2705100Y4110570D01*
X2697060Y4097870D01*
X2690620Y4076700D01*
X2689010Y4057650D01*
X2692230Y4038600D01*
X2697060Y4025900D01*
X2706710Y4013200D01*
X2717970Y4004730D01*
X2729230Y4000500D01*
X2740490D01*
X2751750Y4004730D01*
X2761400Y4011080D01*
X2769450Y4019550D01*
G01X2878070Y4000500D02*
Y4127500D01*
X2818550Y4036480D01*
X2898990D01*
G01X2693840Y8001000D02*
Y8128000D01*
X2726010D01*
X2738880Y8121650D01*
X2748530Y8113180D01*
X2756580Y8100490D01*
X2763010Y8085660D01*
X2764620Y8064500D01*
X2763010Y8043330D01*
X2756580Y8028510D01*
X2748530Y8015810D01*
X2738880Y8007350D01*
X2726010Y8001000D01*
X2693840D01*
G01X2858770D02*
Y8128000D01*
X2839470Y8102600D01*
G01Y8001000D02*
X2878070D01*
G01X2796540Y10763250D02*
Y11080750D01*
X2749300Y11017250D01*
G01Y10763250D02*
X2843780D01*
G01X3111500Y11080750D02*
X3080000Y11070170D01*
X3056380Y11043710D01*
X3040630Y11011960D01*
X3028820Y10969620D01*
X3024890Y10922000D01*
X3028820Y10874370D01*
X3040630Y10832040D01*
X3056380Y10800280D01*
X3080000Y10773830D01*
X3111500Y10763250D01*
X3142990Y10773830D01*
X3166620Y10800280D01*
X3182370Y10832040D01*
X3194180Y10874370D01*
X3198110Y10922000D01*
X3194180Y10969620D01*
X3182370Y11011960D01*
X3166620Y11043710D01*
X3142990Y11070170D01*
X3111500Y11080750D01*
G01X3426460D02*
X3394960Y11070170D01*
X3371340Y11043710D01*
X3355590Y11011960D01*
X3343780Y10969620D01*
X3339850Y10922000D01*
X3343780Y10874370D01*
X3355590Y10832040D01*
X3371340Y10800280D01*
X3394960Y10773830D01*
X3426460Y10763250D01*
X3457950Y10773830D01*
X3481580Y10800280D01*
X3497330Y10832040D01*
X3509140Y10874370D01*
X3513070Y10922000D01*
X3509140Y10969620D01*
X3497330Y11011960D01*
X3481580Y11043710D01*
X3457950Y11070170D01*
X3426460Y11080750D01*
G01X2560320Y10763250D02*
X2442210D01*
Y11080750D01*
X2560320D01*
G01X3350260Y2794000D02*
Y2851150D01*
X3318090Y2921000D01*
G01X3382430D02*
X3350260Y2851150D01*
G01X3479800Y2794000D02*
Y2921000D01*
X3460500Y2895600D01*
G01Y2794000D02*
X3499100D01*
G01X3667340Y8242300D02*
Y8369300D01*
X3707550D01*
X3720420Y8362950D01*
X3728470Y8354480D01*
X3731680Y8337550D01*
X3728470Y8320620D01*
X3718810Y8310030D01*
X3707550Y8303680D01*
X3667340D01*
G01X3707550D02*
X3731680Y8242300D01*
G01X3829050D02*
Y8369300D01*
X3809750Y8343900D01*
G01Y8242300D02*
X3848350D01*
G01X3429000Y7772400D02*
Y8483600D01*
X3683000D01*
Y7772400D01*
X3429000D01*
G01X3662680Y10763250D02*
X3780790D01*
Y11080750D01*
X3662680D01*
G01X4018910Y10922000D02*
X10000000D01*
G01X4822020Y8310460D02*
X4812370Y8316810D01*
X4801110Y8321040D01*
X4788240D01*
X4773760Y8314690D01*
X4762500Y8304110D01*
X4754460Y8291410D01*
X4748020Y8270240D01*
X4746410Y8251190D01*
X4749630Y8232140D01*
X4754460Y8219440D01*
X4764110Y8206740D01*
X4775370Y8198270D01*
X4786630Y8194040D01*
X4797890D01*
X4809150Y8198270D01*
X4818800Y8204620D01*
X4826850Y8213090D01*
G01X4880780Y8219440D02*
X4890430Y8204620D01*
X4903300Y8196160D01*
X4917780Y8194040D01*
X4930650Y8196160D01*
X4943520Y8206740D01*
X4951560Y8219440D01*
X4953170Y8232140D01*
X4949950Y8246950D01*
X4938690Y8257540D01*
X4927430Y8261770D01*
X4912950D01*
G01X4927430D02*
X4937080Y8268120D01*
X4945130Y8278700D01*
X4948340Y8291410D01*
X4945130Y8304110D01*
X4937080Y8314690D01*
X4922600Y8321040D01*
X4908130Y8318920D01*
X4893650Y8310460D01*
G01X4445000Y7747000D02*
Y8255000D01*
X4699000D01*
Y7747000D01*
X4445000D01*
G01X4919690Y9017000D02*
Y8890000D01*
X4984030D01*
G01X5081400D02*
Y9017000D01*
X5062100Y8991600D01*
G01Y8890000D02*
X5100700D01*
G01X5851060Y4632960D02*
Y4541940D01*
X5857490Y4522890D01*
X5870360Y4510190D01*
X5886450Y4505960D01*
X5902540Y4510190D01*
X5915410Y4522890D01*
X5921840Y4541940D01*
Y4632960D01*
G01X6015990Y4505960D02*
Y4632960D01*
X5996690Y4607560D01*
G01Y4505960D02*
X6035290D01*
G01X6636480Y7919930D02*
X6649350Y7909350D01*
X6663830Y7903000D01*
X6676690D01*
X6689560Y7909350D01*
X6699220Y7919930D01*
X6704040Y7934750D01*
X6700830Y7949560D01*
X6692780Y7962270D01*
X6678300Y7970730D01*
X6659000Y7974970D01*
X6647740Y7983430D01*
X6642910Y7998250D01*
X6646130Y8013070D01*
X6654170Y8023650D01*
X6665430Y8030000D01*
X6676690D01*
X6687960Y8025770D01*
X6697610Y8015180D01*
G01X6751540Y8030000D02*
X6774060Y7903000D01*
X6799800Y8030000D01*
X6825540Y7903000D01*
X6848060Y8030000D01*
G01X6929340Y7903000D02*
Y8030000D01*
X6910040Y8004600D01*
G01Y7903000D02*
X6948640D01*
G01X7477340Y8242300D02*
Y8369300D01*
X7517550D01*
X7530420Y8362950D01*
X7538470Y8354480D01*
X7541680Y8337550D01*
X7538470Y8320620D01*
X7528810Y8310030D01*
X7517550Y8303680D01*
X7477340D01*
G01X7517550D02*
X7541680Y8242300D01*
G01X7608480Y8348130D02*
X7618140Y8360830D01*
X7629400Y8367180D01*
X7642270Y8369300D01*
X7658350Y8365070D01*
X7669620Y8354480D01*
X7672830Y8341790D01*
X7671220Y8329080D01*
X7664790Y8318500D01*
X7632620Y8297330D01*
X7618140Y8282520D01*
X7608480Y8261350D01*
X7605270Y8242300D01*
X7672830D01*
G01X7239000Y7772400D02*
Y8483600D01*
X7493000D01*
Y7772400D01*
X7239000D01*
G01X8001000Y8509000D02*
Y9017000D01*
X8255000D01*
Y8509000D01*
X8001000D01*
G01X8398090Y2057400D02*
X8406130Y2044700D01*
X8415780Y2036230D01*
X8427040Y2032000D01*
X8439910Y2036230D01*
X8449560Y2044700D01*
X8459220Y2057400D01*
X8462430Y2074330D01*
Y2159000D01*
G01X8524410Y2051050D02*
X8534060Y2040460D01*
X8545320Y2034120D01*
X8559800Y2032000D01*
X8574280Y2036230D01*
X8585540Y2044700D01*
X8593580Y2059510D01*
X8595190Y2076450D01*
X8591970Y2093380D01*
X8583930Y2103970D01*
X8572670Y2112430D01*
X8561410Y2114550D01*
X8550150Y2112430D01*
X8535670Y2103970D01*
X8540500Y2159000D01*
X8583930D01*
G01X8348560Y3962400D02*
X8356600Y3949700D01*
X8366250Y3941230D01*
X8377510Y3937000D01*
X8390380Y3941230D01*
X8400030Y3949700D01*
X8409690Y3962400D01*
X8412900Y3979330D01*
Y4064000D01*
G01X8507050Y3937000D02*
X8510270Y3964510D01*
X8515100Y3987800D01*
X8521530Y4008970D01*
X8529570Y4032250D01*
X8542440Y4064000D01*
X8478100D01*
G01X8763000Y4191000D02*
X9017000D01*
Y3683000D01*
X8763000D01*
Y4191000D01*
G01X8334590Y5295900D02*
X8342630Y5283200D01*
X8352280Y5274730D01*
X8363540Y5270500D01*
X8376410Y5274730D01*
X8386060Y5283200D01*
X8395720Y5295900D01*
X8398930Y5312830D01*
Y5397500D01*
G01X8460910Y5295900D02*
X8470560Y5281080D01*
X8483430Y5272620D01*
X8497910Y5270500D01*
X8510780Y5272620D01*
X8523650Y5283200D01*
X8531690Y5295900D01*
X8533300Y5308600D01*
X8530080Y5323410D01*
X8518820Y5334000D01*
X8507560Y5338230D01*
X8493080D01*
G01X8507560D02*
X8517210Y5344580D01*
X8525260Y5355160D01*
X8528470Y5367870D01*
X8525260Y5380570D01*
X8517210Y5391150D01*
X8502730Y5397500D01*
X8488260Y5395380D01*
X8473780Y5386920D01*
G01X8378020Y9072460D02*
X8368370Y9078810D01*
X8357110Y9083040D01*
X8344240D01*
X8329760Y9076690D01*
X8318500Y9066110D01*
X8310460Y9053410D01*
X8304020Y9032240D01*
X8302410Y9013190D01*
X8305630Y8994140D01*
X8310460Y8981440D01*
X8320110Y8968740D01*
X8331370Y8960270D01*
X8342630Y8956040D01*
X8353890D01*
X8365150Y8960270D01*
X8374800Y8966620D01*
X8382850Y8975090D01*
G01X8441600Y9008950D02*
X8452870Y9023770D01*
X8462520Y9032240D01*
X8475390Y9036470D01*
X8486650Y9032240D01*
X8494690Y9023770D01*
X8501130Y9011070D01*
X8502740Y8996260D01*
X8501130Y8983550D01*
X8494690Y8970850D01*
X8485040Y8960270D01*
X8473780Y8956040D01*
X8460910Y8960270D01*
X8449650Y8972970D01*
X8443210Y8992020D01*
X8441600Y9013190D01*
X8444820Y9040700D01*
X8449650Y9055530D01*
X8457690Y9070340D01*
X8468950Y9080920D01*
X8480210Y9083040D01*
X8491470Y9078810D01*
X8499520Y9068220D01*
G01X9075000Y7896860D02*
X9083040Y7884160D01*
X9092690Y7875690D01*
X9103950Y7871460D01*
X9116820Y7875690D01*
X9126470Y7884160D01*
X9136130Y7896860D01*
X9139340Y7913790D01*
Y7998460D01*
G01X9256010Y7871460D02*
Y7998460D01*
X9196490Y7907440D01*
X9276930D01*
G01X9619000Y10858500D02*
X10000000Y10922000D01*
X9619000Y10985500D01*
Y10858500D01*
G01X10000000Y10254000D02*
Y11176000D01*
M02*
