G04 ================== begin FILE IDENTIFICATION RECORD ==================*
G04 Layout Name:  C:/orcadData/atmega/allegro/ATMEGA.brd*
G04 Film Name:    TOP*
G04 File Format:  Gerber RS274X*
G04 File Origin:  Cadence Allegro 16.6-B033*
G04 Origin Date:  Tue Feb 02 17:00:31 2021*
G04 *
G04 Layer:  ETCH/TOP*
G04 Layer:  PIN/TOP*
G04 Layer:  VIA CLASS/TOP*
G04 *
G04 Offset:    (0.0000 0.0000)*
G04 Mirror:    No*
G04 Mode:      Positive*
G04 Rotation:  0*
G04 FullContactRelief:  No*
G04 UndefLineWidth:     0.0000*
G04 ================== end FILE IDENTIFICATION RECORD ====================*
%FSLAX25Y25*MOMM*%
%IR0*IPPOS*OFA0.00000B0.00000*MIA0B0*SFA1.00000B1.00000*%
%ADD10C,.635*%
%ADD11C,1.524*%
%ADD12C,1.651*%
%ADD13R,1.524X1.524*%
%ADD14C,.5*%
%ADD15C,1.*%
%ADD17C,2.5244*%
%ADD19C,2.6514*%
%ADD16C,1.9054*%
%ADD18C,1.7784*%
G75*
%LPD*%
G75*
G36*
G01X754020Y500000D02*
Y754020D01*
X500000D01*
Y9245980D01*
X754020D01*
Y9500000D01*
X9245980D01*
Y9245980D01*
X9500000D01*
Y754020D01*
X9245980D01*
Y500000D01*
X754020D01*
G37*
%LPC*%
G75*
G36*
G01X1117510Y1194980D02*
G02X970000Y1387540I-101507J75020D01*
G03Y1406460I-3703J9460D01*
G02Y1641540I46000J117540D01*
G03Y1660460I-3703J9460D01*
G02Y1895540I46000J117540D01*
G03Y1914460I-3703J9460D01*
G02Y2149540I46000J117540D01*
G03Y2168460I-3703J9460D01*
G02Y2403540I46000J117540D01*
G03Y2422460I-3703J9460D01*
G02Y2657540I46000J117540D01*
G03Y2676460I-3703J9460D01*
G02Y2911540I46000J117540D01*
G03Y2930460I-3703J9460D01*
G02X1117510Y3123020I46003J117540D01*
G01X1783000D01*
X1813550Y3092470D01*
X2526830D01*
G03X2534220Y3109600I1J10159D01*
G02X2672780I69280J65400D01*
G03X2680170Y3092470I7389J-6971D01*
G01X2734480D01*
G03X2743240Y3107780I0J10161D01*
G02X2966800Y3250020I114261J67221D01*
G01X3099730D01*
X3119730Y3270020D01*
X3200490D01*
G02X3402010Y3272000I101507J-75020D01*
G01X3403540Y3270020D01*
X3422130D01*
X3529130Y3377020D01*
X3962490D01*
G02X4018000Y3419540I101506J-75022D01*
G03Y3438460I-3703J9460D01*
G02X3962490Y3480980I45996J117542D01*
G01X3749130D01*
X3622130Y3607980D01*
X3403510D01*
G02X3200490I-101510J75020D01*
G01X2966800D01*
G02Y3758020I-109300J75020D01*
G01X3200490D01*
G02X3403510I101510J-75020D01*
G01X3684270D01*
X3811270Y3631020D01*
X3962490D01*
G02X4110000Y3438460I101507J-75020D01*
G03Y3419540I3703J-9460D01*
G02Y3184460I-46000J-117540D01*
G03Y3165540I3703J-9460D01*
G02Y2930460I-46000J-117540D01*
G03Y2911540I3703J-9460D01*
G02Y2676460I-46000J-117540D01*
G03Y2657540I3703J-9460D01*
G02Y2422460I-46000J-117540D01*
G03Y2403540I3703J-9460D01*
G02Y2168460I-46000J-117540D01*
G03Y2149540I3703J-9460D01*
G02Y1914460I-46000J-117540D01*
G03Y1895540I3703J-9460D01*
G02Y1660460I-46000J-117540D01*
G03Y1641540I3703J-9460D01*
G02X3962490Y1448980I-46003J-117540D01*
G01X1117510D01*
G02X1062000Y1406460I-101506J75022D01*
G03Y1387540I3703J-9460D01*
G02X1117510Y1345020I-45996J-117542D01*
G01X5302930D01*
X5463160Y1505250D01*
X5462830Y1507730D01*
G02X5542000Y1641540I125168J16269D01*
G03Y1660460I-3703J9460D01*
G02Y1895540I46000J117540D01*
G03Y1914460I-3703J9460D01*
G02Y2149540I46000J117540D01*
G03Y2168460I-3703J9460D01*
G02Y2403540I46000J117540D01*
G03Y2422460I-3703J9460D01*
G02Y2657540I46000J117540D01*
G03Y2676460I-3703J9460D01*
G02Y2911540I46000J117540D01*
G03Y2930460I-3703J9460D01*
G02Y3165540I46000J117540D01*
G03Y3184460I-3703J9460D01*
G02Y3419540I46000J117540D01*
G03Y3438460I-3703J9460D01*
G02Y3673540I46000J117540D01*
G03Y3692460I-3703J9460D01*
G02X5634000I46000J117540D01*
G03Y3673540I3703J-9460D01*
G02X5689510Y3631020I-45996J-117542D01*
G01X8413070D01*
X8871250Y3172840D01*
X8873730Y3173170D01*
G02X8936000Y2930460I16275J-125168D01*
G03Y2911540I3703J-9460D01*
G02Y2676460I-46000J-117540D01*
G03Y2657540I3703J-9460D01*
G02Y2422460I-46000J-117540D01*
G03Y2403540I3703J-9460D01*
G02Y2168460I-46000J-117540D01*
G03Y2149540I3703J-9460D01*
G02Y1914460I-46000J-117540D01*
G03Y1895540I3703J-9460D01*
G02Y1660460I-46000J-117540D01*
G03Y1641540I3703J-9460D01*
G02Y1406460I-46000J-117540D01*
G03Y1387540I3703J-9460D01*
G02X8788490Y1194980I-46003J-117540D01*
G01X6816130D01*
X6308130Y1702980D01*
X5689510D01*
G02X5634000Y1660460I-101506J75022D01*
G03Y1641540I3703J-9460D01*
G02X5571730Y1398830I-45995J-117542D01*
G01X5569250Y1399160D01*
X5365070Y1194980D01*
X1117510D01*
G37*
G36*
G01X5858270Y8253170D02*
X5860750Y8252840D01*
X6318930Y8711020D01*
X7256700D01*
G02X7475300I109300J-75020D01*
G01X8018700D01*
G02Y8560980I109300J-75020D01*
G01X7475300D01*
G02X7256700I-109300J75020D01*
G01X6381070D01*
X5966840Y8146750D01*
X5967170Y8144270D01*
G02X5858270Y8253170I-125170J-16270D01*
G37*
G36*
G01X2895510Y8711020D02*
X3446700D01*
G02Y8560980I109300J-75020D01*
G01X2895510D01*
G02Y8711020I-101510J75020D01*
G37*
G36*
G01X8965020Y3911510D02*
G02X8814980I-75020J-101510D01*
G01Y3962490D01*
G02X8764830Y4080270I75019J101509D01*
G01X8765160Y4082750D01*
X8604930Y4242980D01*
X5689510D01*
G02X5542000Y4435540I-101507J75020D01*
G03Y4454460I-3703J9460D01*
G02Y4689540I46000J117540D01*
G03Y4708460I-3703J9460D01*
G02Y4943540I46000J117540D01*
G03Y4962460I-3703J9460D01*
G02Y5197540I46000J117540D01*
G03Y5216460I-3703J9460D01*
G02Y5451540I46000J117540D01*
G03Y5470460I-3703J9460D01*
G02Y5705540I46000J117540D01*
G03Y5724460I-3703J9460D01*
G02Y5959540I46000J117540D01*
G03Y5978460I-3703J9460D01*
G02Y6213540I46000J117540D01*
G03Y6232460I-3703J9460D01*
G02X5466700Y6315110I46002J117538D01*
G03X5449750Y6319490I-9766J-2806D01*
G01X5282020Y6151760D01*
Y5683930D01*
X4188840Y4590750D01*
X4189170Y4588270D01*
G02X4110000Y4454460I-125168J-16269D01*
G03Y4435540I3703J-9460D01*
G02Y4200460I-46000J-117540D01*
G03Y4181540I3703J-9460D01*
G02X4018000I-46000J-117540D01*
G03Y4200460I-3703J9460D01*
G02Y4435540I46000J117540D01*
G03Y4454460I-3703J9460D01*
G02X3962490Y4496980I45996J117542D01*
G01X1117510D01*
G02X970000Y4689540I-101507J75020D01*
G03Y4708460I-3703J9460D01*
G02Y4943540I46000J117540D01*
G03Y4962460I-3703J9460D01*
G02Y5197540I46000J117540D01*
G03Y5216460I-3703J9460D01*
G02Y5451540I46000J117540D01*
G03Y5470460I-3703J9460D01*
G02Y5705540I46000J117540D01*
G03Y5724460I-3703J9460D01*
G02Y5959540I46000J117540D01*
G03Y5978460I-3703J9460D01*
G02Y6213540I46000J117540D01*
G03Y6232460I-3703J9460D01*
G02X1117510Y6425020I46003J117540D01*
G01X3937780D01*
Y6476220D01*
X4190220D01*
Y6223780D01*
X4133030D01*
G03X4127890Y6204860I1J-10158D01*
G02X4110000Y5978460I-63888J-108858D01*
G03Y5959540I3703J-9460D01*
G02Y5724460I-46000J-117540D01*
G03Y5705540I3703J-9460D01*
G02Y5470460I-46000J-117540D01*
G03Y5451540I3703J-9460D01*
G02X4189120Y5350660I-45997J-117542D01*
G03X4206370Y5344820I10068J1342D01*
G01X4242980Y5381420D01*
Y5466330D01*
X6027170Y7250520D01*
X7113240D01*
X7337370Y7474650D01*
G03X7332730Y7491670I-7184J7184D01*
G02X7233890Y7608960I33271J128328D01*
G01X7233740Y7610810D01*
X7090370Y7754180D01*
X6611330D01*
G03X6602440Y7739100I2J-10161D01*
G02X6381560I-110440J-61100D01*
G03X6372670Y7754180I-8892J4919D01*
G01X6059630D01*
X5967180Y7661730D01*
X5966940Y7660050D01*
G02X5765010Y7577980I-124938J17950D01*
G01X4847430D01*
X4789430Y7519980D01*
X3643010D01*
G02X3468990I-87010J100020D01*
G01X1346990D01*
G02Y7720020I-76990J100020D01*
G01X3468990D01*
G02X3643010I87010J-100020D01*
G01X4705980D01*
Y7803000D01*
G03X4687010Y7808060I-10159J3D01*
G02Y7939940I-115010J65940D01*
G03X4705980Y7945000I8811J5057D01*
G01Y8813010D01*
G02X4906020I100020J76990D01*
G01Y7778020D01*
X5765010D01*
G02X5824050Y7802940I76995J-100017D01*
G01X5825730Y7803180D01*
X5976770Y7954220D01*
X7173230D01*
X7375190Y7752260D01*
X7377040Y7752110D01*
G02X7494330Y7653270I-11038J-132111D01*
G03X7511350Y7648630I9836J2544D01*
G01X7962940Y8100220D01*
X8983700D01*
X9116220Y7967700D01*
Y7486130D01*
X9014840Y7384750D01*
X9015170Y7382270D01*
G02X8844000Y7483540I-125168J-16270D01*
G03Y7502460I-3703J9460D01*
G02X8813010Y7519980I46002J117539D01*
G01X8204990D01*
G02X8174000Y7502460I-76992J100019D01*
G03Y7483540I3703J-9460D01*
G02X8111730Y7240830I-45995J-117542D01*
G01X8109250Y7241160D01*
X7333570Y6465480D01*
X5674640D01*
G03X5668190Y6447470I2J-10161D01*
G02X5689510Y6425020I-80174J-97487D01*
G01X8788490D01*
G02X8936000Y6232460I101507J-75020D01*
G03Y6213540I3703J-9460D01*
G02Y5978460I-46000J-117540D01*
G03Y5959540I3703J-9460D01*
G02Y5724460I-46000J-117540D01*
G03Y5705540I3703J-9460D01*
G02Y5470460I-46000J-117540D01*
G03Y5451540I3703J-9460D01*
G02Y5216460I-46000J-117540D01*
G03Y5197540I3703J-9460D01*
G02Y4962460I-46000J-117540D01*
G03Y4943540I3703J-9460D01*
G02Y4708460I-46000J-117540D01*
G03Y4689540I3703J-9460D01*
G02X8788490Y4496980I-46003J-117540D01*
G01X5689510D01*
G02X5634000Y4454460I-101506J75022D01*
G03Y4435540I3703J-9460D01*
G02X5689510Y4393020I-45996J-117542D01*
G01X8667070D01*
X8871250Y4188840D01*
X8873730Y4189170D01*
G02X8965020Y3962490I16274J-125169D01*
G01Y3911510D01*
G37*
G54D17*
X6492000Y8128000D03*
X4318000Y8890000D03*
G54D19*
X1778000Y8382000D03*
X1016000D03*
G54D16*
X8128000Y8890000D03*
X4572000Y8128000D03*
X2603500Y3683000D03*
X1778000Y8636000D03*
X1016000D03*
G54D18*
X5588000Y4064000D03*
X4064000Y3810000D03*
X2794000Y8382000D03*
X1016000Y7620000D03*
%LPD*%
G75*
G36*
G01X1117510Y2107020D02*
G03X1062000Y2149540I-101506J-75022D01*
G02Y2168460I3703J9460D01*
G03X1117510Y2210980I-45996J117542D01*
G01X3962490D01*
G03X4018000Y2168460I101506J75022D01*
G02Y2149540I-3703J-9460D01*
G03X3962490Y2107020I45996J-117542D01*
G01X1117510D01*
G37*
G36*
G01Y1853020D02*
G03X1062000Y1895540I-101506J-75022D01*
G02Y1914460I3703J9460D01*
G03X1117510Y1956980I-45996J117542D01*
G01X3962490D01*
G03X4018000Y1914460I101506J75022D01*
G02Y1895540I-3703J-9460D01*
G03X3962490Y1853020I45996J-117542D01*
G01X1117510D01*
G37*
G36*
G01Y1599020D02*
G03X1062000Y1641540I-101506J-75022D01*
G02Y1660460I3703J9460D01*
G03X1117510Y1702980I-45996J117542D01*
G01X3962490D01*
G03X4018000Y1660460I101506J75022D01*
G02Y1641540I-3703J-9460D01*
G03X3962490Y1599020I45996J-117542D01*
G01X1117510D01*
G37*
G36*
G01Y2869020D02*
G03X1062000Y2911540I-101506J-75022D01*
G02Y2930460I3703J9460D01*
G03X1117510Y2972980I-45996J117542D01*
G01X1720860D01*
X1751410Y2942430D01*
X3669000D01*
X3699550Y2972980D01*
X3962490D01*
G03X4018000Y2930460I101506J75022D01*
G02Y2911540I-3703J-9460D01*
G03X3962490Y2869020I45996J-117542D01*
G01X1117510D01*
G37*
G36*
G01Y2615020D02*
G03X1062000Y2657540I-101506J-75022D01*
G02Y2676460I3703J9460D01*
G03X1117510Y2718980I-45996J117542D01*
G01X3962490D01*
G03X4018000Y2676460I101506J75022D01*
G02Y2657540I-3703J-9460D01*
G03X3962490Y2615020I45996J-117542D01*
G01X1117510D01*
G37*
G36*
G01Y2361020D02*
G03X1062000Y2403540I-101506J-75022D01*
G02Y2422460I3703J9460D01*
G03X1117510Y2464980I-45996J117542D01*
G01X3962490D01*
G03X4018000Y2422460I101506J75022D01*
G02Y2403540I-3703J-9460D01*
G03X3962490Y2361020I45996J-117542D01*
G01X1117510D01*
G37*
G36*
G01Y5155020D02*
G03X1062000Y5197540I-101506J-75022D01*
G02Y5216460I3703J9460D01*
G03X1117510Y5258980I-45996J117542D01*
G01X3962490D01*
G03X4018000Y5216460I101506J75022D01*
G02Y5197540I-3703J-9460D01*
G03X3962490Y5155020I45996J-117542D01*
G01X1117510D01*
G37*
G36*
G01Y4901020D02*
G03X1062000Y4943540I-101506J-75022D01*
G02Y4962460I3703J9460D01*
G03X1117510Y5004980I-45996J117542D01*
G01X3962490D01*
G03X4018000Y4962460I101506J75022D01*
G02Y4943540I-3703J-9460D01*
G03X3962490Y4901020I45996J-117542D01*
G01X1117510D01*
G37*
G36*
G01Y4647020D02*
G03X1062000Y4689540I-101506J-75022D01*
G02Y4708460I3703J9460D01*
G03X1117510Y4750980I-45996J117542D01*
G01X3962490D01*
G03X4018000Y4708460I101506J75022D01*
G02Y4689540I-3703J-9460D01*
G03X3962490Y4647020I45996J-117542D01*
G01X1117510D01*
G37*
G36*
G01Y5917020D02*
G03X1062000Y5959540I-101506J-75022D01*
G02Y5978460I3703J9460D01*
G03X1117510Y6020980I-45996J117542D01*
G01X3962490D01*
G03X4018000Y5978460I101506J75022D01*
G02Y5959540I-3703J-9460D01*
G03X3962490Y5917020I45996J-117542D01*
G01X1117510D01*
G37*
G36*
G01Y5663020D02*
G03X1062000Y5705540I-101506J-75022D01*
G02Y5724460I3703J9460D01*
G03X1117510Y5766980I-45996J117542D01*
G01X3962490D01*
G03X4018000Y5724460I101506J75022D01*
G02Y5705540I-3703J-9460D01*
G03X3962490Y5663020I45996J-117542D01*
G01X1117510D01*
G37*
G36*
G01Y5409020D02*
G03X1062000Y5451540I-101506J-75022D01*
G02Y5470460I3703J9460D01*
G03X1117510Y5512980I-45996J117542D01*
G01X3962490D01*
G03X4018000Y5470460I101506J75022D01*
G02Y5451540I-3703J-9460D01*
G03X3962490Y5409020I45996J-117542D01*
G01X1117510D01*
G37*
G36*
G01Y6171020D02*
G03X1062000Y6213540I-101506J-75022D01*
G02Y6232460I3703J9460D01*
G03X1117510Y6274980I-45996J117542D01*
G01X3937780D01*
Y6223780D01*
X3994970D01*
G02X4000110Y6204860I-1J-10158D01*
G03X3962490Y6171020I63890J-108858D01*
G01X1117510D01*
G37*
G36*
G01X3402340Y3092470D02*
G02X3394860Y3109510I-5J10160D01*
G03X3403510Y3119980I-92842J85512D01*
G01X3484270D01*
X3591270Y3226980D01*
X3962490D01*
G03X4018000Y3184460I101506J75022D01*
G02Y3165540I-3703J-9460D01*
G03X3962490Y3123020I45996J-117542D01*
G01X3637410D01*
X3606860Y3092470D01*
X3402340D01*
G37*
G36*
G01X4207530Y4821630D02*
G02X4190190Y4828600I-7183J7185D01*
G03X4110000Y4943540I-126192J-2597D01*
G02Y4962460I3703J9460D01*
G03X4186720Y5109540I-45997J117542D01*
G01X4186050Y5112300D01*
X4393020Y5319280D01*
Y5404190D01*
X5114640Y6125800D01*
G02X5131980Y6118620I7182J-7184D01*
G01Y5746070D01*
X4207530Y4821630D01*
G37*
G36*
G01X7478270Y1599020D02*
X6970270Y2107020D01*
X5689510D01*
G03X5634000Y2149540I-101506J-75022D01*
G02Y2168460I3703J9460D01*
G03X5689510Y2210980I-45996J117542D01*
G01X7408130D01*
X7916130Y1702980D01*
X8788490D01*
G03X8844000Y1660460I101506J75022D01*
G02Y1641540I-3703J-9460D01*
G03X8788490Y1599020I45996J-117542D01*
G01X7478270D01*
G37*
G36*
G01X6878270Y1345020D02*
X6370270Y1853020D01*
X5689510D01*
G03X5634000Y1895540I-101506J-75022D01*
G02Y1914460I3703J9460D01*
G03X5689510Y1956980I-45996J117542D01*
G01X6908130D01*
X7416130Y1448980D01*
X8788490D01*
G03X8844000Y1406460I101506J75022D01*
G02Y1387540I-3703J-9460D01*
G03X8788490Y1345020I45996J-117542D01*
G01X6878270D01*
G37*
G36*
G01X8678270Y2361020D02*
X8170270Y2869020D01*
X5689510D01*
G03X5634000Y2911540I-101506J-75022D01*
G02Y2930460I3703J9460D01*
G03X5689510Y2972980I-45996J117542D01*
G01X8212700D01*
X8720700Y2464980D01*
X8788490D01*
G03X8844000Y2422460I101506J75022D01*
G02Y2403540I-3703J-9460D01*
G03X8788490Y2361020I45996J-117542D01*
G01X8678270D01*
G37*
G36*
G01X5689510D02*
G03X5634000Y2403540I-101506J-75022D01*
G02Y2422460I3703J9460D01*
G03X5689510Y2464980I-45996J117542D01*
G01X7304700D01*
X7391310Y2378360D01*
G02X7384130Y2361020I-7184J-7182D01*
G01X5689510D01*
G37*
G36*
G01X7874840Y2107020D02*
X7366840Y2615020D01*
X5689510D01*
G03X5634000Y2657540I-101506J-75022D01*
G02Y2676460I3703J9460D01*
G03X5689510Y2718980I-45996J117542D01*
G01X8108130D01*
X8616130Y2210980D01*
X8788490D01*
G03X8844000Y2168460I101506J75022D01*
G02Y2149540I-3703J-9460D01*
G03X8788490Y2107020I45996J-117542D01*
G01X7874840D01*
G37*
G36*
G01X8763810Y3050600D02*
G02X8746470Y3043630I-10157J215D01*
G01X8413070Y3377020D01*
X5689510D01*
G03X5634000Y3419540I-101506J-75022D01*
G02Y3438460I3703J9460D01*
G03X5689510Y3480980I-45996J117542D01*
G01X8350930D01*
X8765160Y3066750D01*
X8764830Y3064270D01*
G03X8763810Y3050600I125174J-16213D01*
G37*
G36*
G01X8782840Y2615020D02*
X8274840Y3123020D01*
X5689510D01*
G03X5634000Y3165540I-101506J-75022D01*
G02Y3184460I3703J9460D01*
G03X5689510Y3226980I-45996J117542D01*
G01X8350930D01*
X8765160Y2812750D01*
X8764830Y2810270D01*
G03X8844000Y2676460I125168J-16269D01*
G02Y2657540I-3703J-9460D01*
G03X8789990Y2617000I46004J-117537D01*
G01X8788460Y2615020D01*
X8782840D01*
G37*
G36*
G01X5689510Y5155020D02*
G03X5634000Y5197540I-101506J-75022D01*
G02Y5216460I3703J9460D01*
G03X5689510Y5258980I-45996J117542D01*
G01X8788490D01*
G03X8844000Y5216460I101506J75022D01*
G02Y5197540I-3703J-9460D01*
G03X8788490Y5155020I45996J-117542D01*
G01X5689510D01*
G37*
G36*
G01Y4901020D02*
G03X5634000Y4943540I-101506J-75022D01*
G02Y4962460I3703J9460D01*
G03X5689510Y5004980I-45996J117542D01*
G01X8788490D01*
G03X8844000Y4962460I101506J75022D01*
G02Y4943540I-3703J-9460D01*
G03X8788490Y4901020I45996J-117542D01*
G01X5689510D01*
G37*
G36*
G01Y4647020D02*
G03X5634000Y4689540I-101506J-75022D01*
G02Y4708460I3703J9460D01*
G03X5689510Y4750980I-45996J117542D01*
G01X8788490D01*
G03X8844000Y4708460I101506J75022D01*
G02Y4689540I-3703J-9460D01*
G03X8788490Y4647020I45996J-117542D01*
G01X5689510D01*
G37*
G36*
G01Y5917020D02*
G03X5634000Y5959540I-101506J-75022D01*
G02Y5978460I3703J9460D01*
G03X5689510Y6020980I-45996J117542D01*
G01X8788490D01*
G03X8844000Y5978460I101506J75022D01*
G02Y5959540I-3703J-9460D01*
G03X8788490Y5917020I45996J-117542D01*
G01X5689510D01*
G37*
G36*
G01Y5663020D02*
G03X5634000Y5705540I-101506J-75022D01*
G02Y5724460I3703J9460D01*
G03X5689510Y5766980I-45996J117542D01*
G01X8788490D01*
G03X8844000Y5724460I101506J75022D01*
G02Y5705540I-3703J-9460D01*
G03X8788490Y5663020I45996J-117542D01*
G01X5689510D01*
G37*
G36*
G01Y5409020D02*
G03X5634000Y5451540I-101506J-75022D01*
G02Y5470460I3703J9460D01*
G03X5689510Y5512980I-45996J117542D01*
G01X8788490D01*
G03X8844000Y5470460I101506J75022D01*
G02Y5451540I-3703J-9460D01*
G03X8788490Y5409020I45996J-117542D01*
G01X5689510D01*
G37*
G36*
G01X5628880Y6615520D02*
G02X5621700Y6632860I4J10158D01*
G01X6089310Y7100480D01*
X7175380D01*
X7984440Y7909530D01*
G02X8001780Y7902350I7182J-7184D01*
G01Y7747780D01*
X8058970D01*
G02X8064110Y7728860I-1J-10158D01*
G03X8082000Y7502460I63888J-108858D01*
G02Y7483540I-3703J-9460D01*
G03X8002830Y7349730I45998J-117541D01*
G01X8003160Y7347250D01*
X7271430Y6615520D01*
X5628880D01*
G37*
G36*
G01X5689510Y6171020D02*
G03X5634000Y6213540I-101506J-75022D01*
G02Y6232460I3703J9460D01*
G03X5689510Y6274980I-45996J117542D01*
G01X8788490D01*
G03X8844000Y6232460I101506J75022D01*
G02Y6213540I-3703J-9460D01*
G03X8788490Y6171020I45996J-117542D01*
G01X5689510D01*
G37*
G36*
G01X7978270Y1853020D02*
X7891660Y1939640D01*
G02X7898840Y1956980I7184J7182D01*
G01X8788490D01*
G03X8844000Y1914460I101506J75022D01*
G02Y1895540I-3703J-9460D01*
G03X8788490Y1853020I45996J-117542D01*
G01X7978270D01*
G37*
G36*
G01X8204990Y7720020D02*
G03X8191890Y7728860I-77015J-100002D01*
G02X8197030Y7747780I5141J8762D01*
G01X8254220D01*
Y7950180D01*
X8816120D01*
G02X8823700Y7933250I3J-10161D01*
G03X8949250Y7807700I66300J-59250D01*
G02X8966180Y7800120I6769J-7577D01*
G01Y7739330D01*
G02X8951100Y7730440I-10161J2D01*
G03X8813010Y7720020I-61104J-110441D01*
G01X8204990D01*
G37*
G54D10*
X500000Y500000D03*
Y9500000D03*
X9500000Y500000D03*
Y9500000D03*
G54D11*
X1016000Y1270000D03*
Y1524000D03*
Y1778000D03*
Y2032000D03*
Y2286000D03*
Y2540000D03*
Y2794000D03*
Y3048000D03*
Y5080000D03*
Y4826000D03*
Y4572000D03*
Y5842000D03*
Y5588000D03*
Y5334000D03*
Y6350000D03*
Y6096000D03*
Y7620000D03*
X1270000D03*
X2794000Y8636000D03*
Y8382000D03*
X3302000Y3195000D03*
Y3683000D03*
X4064000Y1524000D03*
Y1778000D03*
Y2032000D03*
Y2286000D03*
Y2540000D03*
Y2794000D03*
Y3048000D03*
Y3302000D03*
Y3556000D03*
Y3810000D03*
Y4064000D03*
Y4318000D03*
Y4572000D03*
Y4826000D03*
Y5080000D03*
Y5334000D03*
Y5588000D03*
Y5842000D03*
Y6096000D03*
X4318000Y8890000D03*
X4806000D03*
X5588000Y2032000D03*
Y1778000D03*
Y1524000D03*
Y2794000D03*
Y2540000D03*
Y2286000D03*
Y3556000D03*
Y3302000D03*
Y3048000D03*
Y4318000D03*
Y4064000D03*
Y3810000D03*
Y5080000D03*
Y4826000D03*
Y4572000D03*
Y5842000D03*
Y5588000D03*
Y5334000D03*
Y6350000D03*
Y6096000D03*
X5842000Y8128000D03*
Y7678000D03*
X6492000Y8128000D03*
Y7678000D03*
X8128000Y7366000D03*
Y7620000D03*
X8890000Y1270000D03*
Y2032000D03*
Y1778000D03*
Y1524000D03*
Y2794000D03*
Y2540000D03*
Y2286000D03*
Y3048000D03*
Y3810000D03*
Y4064000D03*
Y5080000D03*
Y4826000D03*
Y4572000D03*
Y5842000D03*
Y5588000D03*
Y5334000D03*
Y6350000D03*
Y6096000D03*
Y7366000D03*
Y7620000D03*
Y7874000D03*
G54D12*
X1016000Y8636000D03*
Y8382000D03*
X1778000Y8636000D03*
Y8382000D03*
X2857500Y3683000D03*
X2603500D03*
X2857500Y3175000D03*
X2603500D03*
X3556000Y7620000D03*
Y8636000D03*
X4572000Y8128000D03*
Y7874000D03*
X7366000Y7620000D03*
Y8636000D03*
X8128000Y8890000D03*
Y8636000D03*
G54D13*
X4064000Y6350000D03*
X8128000Y7874000D03*
G54D14*
G01X1016000Y1270000D02*
X5334000D01*
X5588000Y1524000D01*
G01X1016000Y2032000D02*
X4064000D01*
G01X1016000Y1778000D02*
X4064000D01*
G01X1016000Y1524000D02*
X4064000D01*
G01X1016000Y2794000D02*
X4064000D01*
G01X1016000Y2540000D02*
X4064000D01*
G01X1016000Y2286000D02*
X4064000D01*
G01Y3048000D02*
X3668480D01*
X3637930Y3017450D01*
X1782480D01*
X1751930Y3048000D01*
X1016000D01*
G01Y4826000D02*
X4064000D01*
G01X1016000Y4572000D02*
X4064000D01*
G01X1016000Y5080000D02*
X4035990D01*
G01X1016000Y5842000D02*
X4064000D01*
G01X1016000Y5588000D02*
X4064000D01*
G01X1016000Y5334000D02*
X4064000D01*
G01X1016000Y6350000D02*
X4064000D01*
G01X1016000Y6096000D02*
X4064000D01*
G01X1016000Y7526000D02*
Y7620000D01*
G01D02*
Y7714000D01*
G01X922000Y7620000D02*
X1016000D01*
G01D02*
X1110000D01*
G01X1016000Y8636000D02*
Y8736350D01*
G01X915650Y8636000D02*
X1016000D01*
G01D02*
X1116350D01*
G01X1778000D02*
Y8736350D01*
G01X1677650Y8636000D02*
X1778000D01*
G01D02*
X1878350D01*
G01X2603500Y3582650D02*
Y3683000D01*
G01D02*
Y3783350D01*
G01X2503150Y3683000D02*
X2603500D01*
G01Y3175000D02*
Y3275350D01*
G01X2503150Y3175000D02*
X2603500D01*
G01X2857500Y3683000D02*
X3302000D01*
G01X2857500Y3175000D02*
X3130800D01*
X3150800Y3195000D01*
X3302000D01*
G01X2794000Y8288000D02*
Y8382000D01*
G01D02*
Y8476000D01*
G01X2700000Y8382000D02*
X2794000D01*
G01D02*
X2888000D01*
G01X3556000Y8636000D02*
X2794000D01*
G01X4064000Y3556000D02*
X3780200D01*
X3653200Y3683000D01*
X3302000D01*
G01X4064000Y3302000D02*
X3560200D01*
X3453200Y3195000D01*
X3302000D01*
G01X4064000Y3716000D02*
Y3810000D01*
G01D02*
Y3904000D01*
G01X3970000Y3810000D02*
X4064000D01*
G01D02*
X4158000D01*
G01X4064000Y4572000D02*
X5207000Y5715000D01*
Y6182830D01*
X5564670Y6540500D01*
X7302500D01*
X8128000Y7366000D01*
G01X8890000D02*
X9041200Y7517200D01*
Y7936630D01*
X8952630Y8025200D01*
X7994010D01*
X7144310Y7175500D01*
X6058240D01*
X4318000Y5435260D01*
Y5350350D01*
X4075900Y5108250D01*
X4064240D01*
X4035990Y5080000D01*
G01X4104170D02*
X4064000D01*
G01X4035990D02*
X4064000D01*
G01X4572000Y8128000D02*
Y8228350D01*
G01X4471650Y8128000D02*
X4572000D01*
G01D02*
X4672350D01*
G01X8890000Y1270000D02*
X6847200D01*
X6339200Y1778000D01*
X5588000D01*
G01X8890000Y1524000D02*
X7447200D01*
X6939200Y2032000D01*
X5588000D01*
G01X8890000Y1778000D02*
X7947200D01*
X7439200Y2286000D01*
X5588000D01*
G01X8890000Y2032000D02*
X7843770D01*
X7335770Y2540000D01*
X5588000D01*
G01X8890000Y2286000D02*
X8647200D01*
X8139200Y2794000D01*
X5588000D01*
G01X8890000Y2540000D02*
X8751770D01*
X8243770Y3048000D01*
X5588000D01*
G01X8890000Y2794000D02*
X8382000Y3302000D01*
X5588000D01*
G01X8890000Y3048000D02*
X8382000Y3556000D01*
X5588000D01*
G01Y3970000D02*
Y4064000D01*
G01D02*
Y4158000D01*
G01X5494000Y4064000D02*
X5588000D01*
G01D02*
X5682000D01*
G01X5588000Y4318000D02*
X8636000D01*
X8890000Y4064000D01*
G01Y5080000D02*
X5588000D01*
G01X8890000Y4826000D02*
X5588000D01*
G01X8890000Y4572000D02*
X5588000D01*
G01X8890000Y5842000D02*
X5588000D01*
G01X8890000Y5588000D02*
X5588000D01*
G01X8890000Y5334000D02*
X5588000D01*
G01X8890000Y6350000D02*
X5588000D01*
G01X8890000Y6096000D02*
X5588000D01*
G01X5842000Y8128000D02*
X6350000Y8636000D01*
X7366000D01*
G01X8128000D02*
X7366000D01*
G01X8128000Y8890000D02*
Y8990350D01*
G01X8027650Y8890000D02*
X8128000D01*
G01D02*
X8228350D01*
G01X8890000Y3810000D02*
Y4064000D01*
G01Y7780000D02*
Y7874000D01*
G01X8796000D02*
X8890000D01*
G54D15*
G01X3556000Y7620000D02*
X1270000D01*
G01X4806000Y7678000D02*
X4748000Y7620000D01*
X3556000D01*
G01X5842000Y7678000D02*
X4806000D01*
G01D02*
Y8890000D01*
G01X7366000Y7620000D02*
X7131800Y7854200D01*
X6018200D01*
X5842000Y7678000D01*
G01X8890000Y7620000D02*
X8128000D01*
M02*
