G04 ================== begin FILE IDENTIFICATION RECORD ==================*
G04 Layout Name:  C:/ORCADDATA/allegro/EXAMDCCIRCUIT.brd*
G04 Film Name:    BOTTOM*
G04 File Format:  Gerber RS274X*
G04 File Origin:  Cadence Allegro 16.6-B033*
G04 Origin Date:  Thu Feb 18 11:45:04 2021*
G04 *
G04 Layer:  BOARD GEOMETRY/OUTLINE*
G04 Layer:  BOARD GEOMETRY/DIMENSION*
G04 Layer:  ETCH/BOTTOM*
G04 Layer:  PIN/BOTTOM*
G04 Layer:  VIA CLASS/BOTTOM*
G04 *
G04 Offset:    (0.0000 0.0000)*
G04 Mirror:    No*
G04 Mode:      Positive*
G04 Rotation:  0*
G04 FullContactRelief:  No*
G04 UndefLineWidth:     0.0000*
G04 ================== end FILE IDENTIFICATION RECORD ====================*
%FSLAX55Y55*MOMM*%
%IR0*IPPOS*OFA0.00000B0.00000*MIA0B0*SFA1.00000B1.00000*%
%ADD10C,.635*%
%ADD13C,.6096*%
%ADD11C,1.524*%
%ADD12C,1.651*%
%ADD14C,.3*%
%ADD15C,.5*%
%ADD16C,2.6514*%
G75*
%LPD*%
G75*
G36*
G01X754020Y500000D02*
Y754020D01*
X500000D01*
Y4245980D01*
X754020D01*
Y4500000D01*
X6245980D01*
Y4245980D01*
X6500000D01*
Y754020D01*
X6245980D01*
Y500000D01*
X754020D01*
G37*
%LPC*%
G75*
G36*
G01X3236980Y3948470D02*
G02X3367020I65020J115530D01*
G01Y2650960D01*
G02X3236980I-65020J-47460D01*
G01Y3948470D01*
G37*
G36*
G01X5726470Y1712980D02*
X4941530D01*
G02Y1843020I-115530J65020D01*
G01X5726470D01*
G02X5874940Y1906410I115528J-65021D01*
G01X5877740Y1905690D01*
X5967480Y1995430D01*
Y2213190D01*
G03X5948730Y2218620I-10160J5D01*
G02X5796000Y2403540I-106730J67381D01*
G03Y2422460I-3703J9460D01*
G02X5948730Y2607380I46000J117539D01*
G03X5967480Y2612810I8590J5425D01*
G01Y3846570D01*
X5877740Y3936310D01*
X5874940Y3935590D01*
G02X5970410Y4031060I-32940J128410D01*
G01X5969690Y4028260D01*
X6097520Y3900430D01*
Y1941570D01*
X5969690Y1813740D01*
X5970410Y1810940D01*
G02X5726470Y1712980I-128412J-32937D01*
G37*
G36*
G01X4517060Y1980590D02*
X4514260Y1981310D01*
X3879480Y1346530D01*
X3225470D01*
Y1184480D01*
X3520260Y889690D01*
X3523060Y890410D01*
G02X3427590Y794940I32940J-128410D01*
G01X3428310Y797740D01*
X3095430Y1130620D01*
Y1384620D01*
X2829740Y1650310D01*
X2826940Y1649590D01*
G02X2922410Y1745060I-32940J128410D01*
G01X2921690Y1742260D01*
X3187380Y1476570D01*
X3825620D01*
X4422310Y2073260D01*
X4421590Y2076060D01*
G02X4517060Y1980590I128410J32940D01*
G37*
G36*
G01X1062000Y3419540D02*
G02X970000I-46000J-117540D01*
G03Y3438460I-3703J9460D01*
G02X1062000I46000J117540D01*
G03Y3419540I3703J-9460D01*
G37*
G36*
G01Y2403540D02*
G02X970000I-46000J-117540D01*
G03Y2422460I-3703J9460D01*
G02X1062000I46000J117540D01*
G03Y2403540I3703J-9460D01*
G37*
G54D16*
X1778000Y762000D03*
Y1778000D03*
Y4064000D03*
X2794000Y762000D03*
Y4064000D03*
X3556000Y1778000D03*
X4318000Y4064000D03*
X4826000Y762000D03*
X4550000Y3125000D03*
X4826000Y4064000D03*
X5842000Y762000D03*
%LPD*%
G75*
G54D10*
X500000Y500000D03*
Y4500000D03*
X6500000Y500000D03*
Y4500000D03*
G54D11*
X1016000Y2540000D03*
Y2286000D03*
Y3302000D03*
Y3556000D03*
X5842000Y2540000D03*
Y2286000D03*
G54D12*
X1778000Y762000D03*
Y1778000D03*
Y4064000D03*
X2794000Y762000D03*
Y1778000D03*
Y4064000D03*
X3556000Y762000D03*
Y1778000D03*
X3302000Y4064000D03*
X4318000D03*
X4826000Y762000D03*
X4550000Y2109000D03*
X4826000Y1778000D03*
X4550000Y3125000D03*
X4826000Y4064000D03*
X5842000Y762000D03*
Y1778000D03*
Y4064000D03*
G54D13*
X3302000Y2603500D03*
G54D14*
G01X2794000Y1778000D02*
X3160450Y1411550D01*
G01D02*
Y1157550D01*
X3556000Y762000D01*
G01X4550000Y2109000D02*
X3852550Y1411550D01*
X3160450D01*
G01X3302000Y4064000D02*
Y2603500D01*
G01X4826000Y1778000D02*
X5842000D01*
G01Y4064000D02*
X6032500Y3873500D01*
Y1968500D01*
X5842000Y1778000D01*
G54D15*
G01X1016000Y2154700D02*
Y2286000D01*
G01X884700D02*
X1016000D01*
G01D02*
X1147300D01*
G01X1016000Y3170700D02*
Y3302000D01*
G01X884700D02*
X1016000D01*
G01D02*
X1147300D01*
G01X5842000Y624350D02*
Y762000D01*
G01D02*
Y899650D01*
G01X5704350Y762000D02*
X5842000D01*
G01D02*
X5979650D01*
G01X5842000Y2154700D02*
Y2286000D01*
G01X5710700D02*
X5842000D01*
M02*
