G04 ================== begin FILE IDENTIFICATION RECORD ==================*
G04 Layout Name:  C:/ORCADDATA/allegro/EXAMDCCIRCUIT.brd*
G04 Film Name:    Silkscreen_Top*
G04 File Format:  Gerber RS274X*
G04 File Origin:  Cadence Allegro 16.6-B033*
G04 Origin Date:  Thu Feb 18 11:45:04 2021*
G04 *
G04 Layer:  REF DES/SILKSCREEN_TOP*
G04 Layer:  PACKAGE GEOMETRY/SILKSCREEN_TOP*
G04 Layer:  BOARD GEOMETRY/OUTLINE*
G04 Layer:  BOARD GEOMETRY/DIMENSION*
G04 *
G04 Offset:    (0.0000 0.0000)*
G04 Mirror:    No*
G04 Mode:      Positive*
G04 Rotation:  0*
G04 FullContactRelief:  No*
G04 UndefLineWidth:     0.1000*
G04 ================== end FILE IDENTIFICATION RECORD ====================*
%FSLAX55Y55*MOMM*%
%IR0*IPPOS*OFA0.00000B0.00000*MIA0B0*SFA1.00000B1.00000*%
%ADD10C,.1*%
G75*
%LPD*%
G75*
G54D10*
G01X-250000Y0D02*
X-740000D01*
G01X-490000Y3251250D02*
Y0D01*
G01X-552500Y400000D02*
X-490000Y0D01*
X-427500Y400000D01*
X-552500D01*
G01X-878450Y3365550D02*
X-868800Y3354960D01*
X-857540Y3348620D01*
X-843060Y3346500D01*
X-828580Y3350730D01*
X-817320Y3359200D01*
X-809280Y3374010D01*
X-807670Y3390950D01*
X-810890Y3407880D01*
X-818930Y3418470D01*
X-830190Y3426930D01*
X-841450Y3429050D01*
X-852710Y3426930D01*
X-867190Y3418470D01*
X-862360Y3473500D01*
X-818930D01*
G01X-713520D02*
X-726390Y3469270D01*
X-736040Y3458680D01*
X-742480Y3445990D01*
X-747300Y3429050D01*
X-748910Y3410000D01*
X-747300Y3390950D01*
X-742480Y3374010D01*
X-736040Y3361310D01*
X-726390Y3350730D01*
X-713520Y3346500D01*
X-700650Y3350730D01*
X-691000Y3361310D01*
X-684560Y3374010D01*
X-679740Y3390950D01*
X-678130Y3410000D01*
X-679740Y3429050D01*
X-684560Y3445990D01*
X-691000Y3458680D01*
X-700650Y3469270D01*
X-713520Y3473500D01*
G01X-398390Y3365550D02*
X-388740Y3354960D01*
X-377480Y3348620D01*
X-363000Y3346500D01*
X-348520Y3350730D01*
X-337260Y3359200D01*
X-329220Y3374010D01*
X-327610Y3390950D01*
X-330830Y3407880D01*
X-338870Y3418470D01*
X-350130Y3426930D01*
X-361390Y3429050D01*
X-372650Y3426930D01*
X-387130Y3418470D01*
X-382300Y3473500D01*
X-338870D01*
G01X-233460D02*
X-246330Y3469270D01*
X-255980Y3458680D01*
X-262420Y3445990D01*
X-267240Y3429050D01*
X-268850Y3410000D01*
X-267240Y3390950D01*
X-262420Y3374010D01*
X-255980Y3361310D01*
X-246330Y3350730D01*
X-233460Y3346500D01*
X-220590Y3350730D01*
X-210940Y3361310D01*
X-204500Y3374010D01*
X-199680Y3390950D01*
X-198070Y3410000D01*
X-199680Y3429050D01*
X-204500Y3445990D01*
X-210940Y3458680D01*
X-220590Y3469270D01*
X-233460Y3473500D01*
G01X-490000Y3568750D02*
Y5000000D01*
G01X-459520Y3346500D02*
X-507780D01*
Y3473500D01*
X-459520D01*
G01X-250000Y5000000D02*
X-740000D01*
G01X-427500Y4600000D02*
X-490000Y5000000D01*
X-552500Y4600000D01*
X-427500D01*
G01X0Y0D02*
Y5000000D01*
X7000000D01*
Y0D01*
X0D01*
G01X-136940Y3346500D02*
X-88680D01*
Y3473500D01*
X-136940D01*
G01X0Y5250000D02*
Y5690000D01*
G01X3483430Y5440000D02*
X0D01*
G01X400000Y5502500D02*
X0Y5440000D01*
X400000Y5377500D01*
Y5502500D01*
G01X1128940Y2025600D02*
X1120900Y2038300D01*
X1111250Y2046770D01*
X1099990Y2051000D01*
X1087120Y2046770D01*
X1077470Y2038300D01*
X1067810Y2025600D01*
X1064600Y2008670D01*
Y1924000D01*
G01X997800Y1945170D02*
X988140Y1932470D01*
X976880Y1926120D01*
X964010Y1924000D01*
X947930Y1928230D01*
X936660Y1938820D01*
X933450Y1951510D01*
X935060Y1964220D01*
X941490Y1974800D01*
X973660Y1995970D01*
X988140Y2010780D01*
X997800Y2031950D01*
X1001010Y2051000D01*
X933450D01*
G01X1143000Y2159000D02*
X889000D01*
Y2667000D01*
X1143000D01*
Y2159000D01*
G01X1036380Y2970580D02*
X1046030Y2964230D01*
X1057290Y2960000D01*
X1070160D01*
X1084640Y2966350D01*
X1095900Y2976930D01*
X1103940Y2989630D01*
X1110380Y3010800D01*
X1111990Y3029850D01*
X1108770Y3048900D01*
X1103940Y3061600D01*
X1094290Y3074300D01*
X1083030Y3082770D01*
X1071770Y3087000D01*
X1060510D01*
X1049250Y3082770D01*
X1039600Y3076420D01*
X1031550Y3067950D01*
G01X942230Y3087000D02*
Y2960000D01*
X961530Y2985400D01*
G01Y3087000D02*
X922930D01*
G01X1270000Y3429000D02*
G03I-254000J0D01*
G01X1403060Y1250000D02*
Y1377000D01*
X1443270D01*
X1456140Y1370650D01*
X1464190Y1362180D01*
X1467400Y1345250D01*
X1464190Y1328320D01*
X1454530Y1317730D01*
X1443270Y1311380D01*
X1403060D01*
G01X1443270D02*
X1467400Y1250000D01*
G01X1564770D02*
Y1377000D01*
X1545470Y1351600D01*
G01Y1250000D02*
X1584070D01*
G01X1905000Y1625600D02*
Y914400D01*
X1651000D01*
Y1625600D01*
X1905000D01*
G01X2114550Y2095500D02*
Y2984500D01*
X2457450D01*
Y2095500D01*
X2114550D01*
G01X1930400Y4191000D02*
X2641600D01*
Y3937000D01*
X1930400D01*
Y4191000D01*
G01X2428060Y1275000D02*
Y1402000D01*
X2468270D01*
X2481140Y1395650D01*
X2489190Y1387180D01*
X2492400Y1370250D01*
X2489190Y1353320D01*
X2479530Y1342730D01*
X2468270Y1336380D01*
X2428060D01*
G01X2468270D02*
X2492400Y1275000D01*
G01X2554380Y1300400D02*
X2564030Y1285580D01*
X2576900Y1277120D01*
X2591380Y1275000D01*
X2604250Y1277120D01*
X2617120Y1287700D01*
X2625160Y1300400D01*
X2626770Y1313100D01*
X2623550Y1327910D01*
X2612290Y1338500D01*
X2601030Y1342730D01*
X2586550D01*
G01X2601030D02*
X2610680Y1349080D01*
X2618730Y1359660D01*
X2621940Y1372370D01*
X2618730Y1385070D01*
X2610680Y1395650D01*
X2596200Y1402000D01*
X2581730Y1399880D01*
X2567250Y1391420D01*
G01X2921000Y1625600D02*
Y914400D01*
X2667000D01*
Y1625600D01*
X2921000D01*
G01X2159000Y2984500D02*
Y2095500D01*
G01X2228850Y2921000D02*
G03I-25400J0D01*
G01X2287870Y3227000D02*
Y3135980D01*
X2294300Y3116930D01*
X2307170Y3104230D01*
X2323260Y3100000D01*
X2339350Y3104230D01*
X2352220Y3116930D01*
X2358650Y3135980D01*
Y3227000D01*
G01X2452800Y3100000D02*
Y3227000D01*
X2433500Y3201600D01*
G01Y3100000D02*
X2472100D01*
G01X2203060Y3750000D02*
Y3877000D01*
X2243270D01*
X2256140Y3870650D01*
X2264190Y3862180D01*
X2267400Y3845250D01*
X2264190Y3828320D01*
X2254530Y3817730D01*
X2243270Y3811380D01*
X2203060D01*
G01X2243270D02*
X2267400Y3750000D01*
G01X2334200Y3855830D02*
X2343860Y3868530D01*
X2355120Y3874880D01*
X2367990Y3877000D01*
X2384070Y3872770D01*
X2395340Y3862180D01*
X2398550Y3849490D01*
X2396940Y3836780D01*
X2390510Y3826200D01*
X2358340Y3805030D01*
X2343860Y3790220D01*
X2334200Y3769050D01*
X2330990Y3750000D01*
X2398550D01*
G01X3203060Y1250000D02*
Y1377000D01*
X3243270D01*
X3256140Y1370650D01*
X3264190Y1362180D01*
X3267400Y1345250D01*
X3264190Y1328320D01*
X3254530Y1317730D01*
X3243270Y1311380D01*
X3203060D01*
G01X3243270D02*
X3267400Y1250000D01*
G01X3384070D02*
Y1377000D01*
X3324550Y1285980D01*
X3404990D01*
G01X3683000Y1625600D02*
Y914400D01*
X3429000D01*
Y1625600D01*
X3683000D01*
G01X3638550Y2032000D02*
Y3048000D01*
X3981450D01*
Y2032000D01*
X3638550D01*
G01X3454400Y4191000D02*
X4165600D01*
Y3937000D01*
X3454400D01*
Y4191000D01*
G01X3623720Y5376500D02*
X3626940Y5404010D01*
X3631770Y5427300D01*
X3638200Y5448470D01*
X3646240Y5471750D01*
X3659110Y5503500D01*
X3594770D01*
G01X3756480D02*
X3743610Y5499270D01*
X3733960Y5488680D01*
X3727520Y5475990D01*
X3722700Y5459050D01*
X3721090Y5440000D01*
X3722700Y5420950D01*
X3727520Y5404010D01*
X3733960Y5391310D01*
X3743610Y5380730D01*
X3756480Y5376500D01*
X3769350Y5380730D01*
X3779000Y5391310D01*
X3785440Y5404010D01*
X3790260Y5420950D01*
X3791870Y5440000D01*
X3790260Y5459050D01*
X3785440Y5475990D01*
X3779000Y5488680D01*
X3769350Y5499270D01*
X3756480Y5503500D01*
G01X3683000Y3048000D02*
Y2032000D01*
G01X4178060Y2600000D02*
Y2727000D01*
X4218270D01*
X4231140Y2720650D01*
X4239190Y2712180D01*
X4242400Y2695250D01*
X4239190Y2678320D01*
X4229530Y2667730D01*
X4218270Y2661380D01*
X4178060D01*
G01X4218270D02*
X4242400Y2600000D01*
G01X4304380Y2619050D02*
X4314030Y2608460D01*
X4325290Y2602120D01*
X4339770Y2600000D01*
X4354250Y2604230D01*
X4365510Y2612700D01*
X4373550Y2627510D01*
X4375160Y2644450D01*
X4371940Y2661380D01*
X4363900Y2671970D01*
X4352640Y2680430D01*
X4341380Y2682550D01*
X4330120Y2680430D01*
X4315640Y2671970D01*
X4320470Y2727000D01*
X4363900D01*
G01X4677000Y2972600D02*
Y2261400D01*
X4423000D01*
Y2972600D01*
X4677000D01*
G01X3787870Y3277000D02*
Y3185980D01*
X3794300Y3166930D01*
X3807170Y3154230D01*
X3823260Y3150000D01*
X3839350Y3154230D01*
X3852220Y3166930D01*
X3858650Y3185980D01*
Y3277000D01*
G01X3922230Y3255830D02*
X3931890Y3268530D01*
X3943150Y3274880D01*
X3956020Y3277000D01*
X3972100Y3272770D01*
X3983370Y3262180D01*
X3986580Y3249490D01*
X3984970Y3236780D01*
X3978540Y3226200D01*
X3946370Y3205030D01*
X3931890Y3190220D01*
X3922230Y3169050D01*
X3919020Y3150000D01*
X3986580D01*
G01X3752850Y2984500D02*
G03I-25400J0D01*
G01X3728060Y3775000D02*
Y3902000D01*
X3768270D01*
X3781140Y3895650D01*
X3789190Y3887180D01*
X3792400Y3870250D01*
X3789190Y3853320D01*
X3779530Y3842730D01*
X3768270Y3836380D01*
X3728060D01*
G01X3768270D02*
X3792400Y3775000D01*
G01X3859200Y3827910D02*
X3870470Y3842730D01*
X3880120Y3851200D01*
X3892990Y3855430D01*
X3904250Y3851200D01*
X3912290Y3842730D01*
X3918730Y3830030D01*
X3920340Y3815220D01*
X3918730Y3802510D01*
X3912290Y3789810D01*
X3902640Y3779230D01*
X3891380Y3775000D01*
X3878510Y3779230D01*
X3867250Y3791930D01*
X3860810Y3810980D01*
X3859200Y3832150D01*
X3862420Y3859660D01*
X3867250Y3874490D01*
X3875290Y3889300D01*
X3886550Y3899880D01*
X3897810Y3902000D01*
X3909070Y3897770D01*
X3917120Y3887180D01*
G01X4103780Y5376500D02*
X4107000Y5404010D01*
X4111830Y5427300D01*
X4118260Y5448470D01*
X4126300Y5471750D01*
X4139170Y5503500D01*
X4074830D01*
G01X4236540D02*
X4223670Y5499270D01*
X4214020Y5488680D01*
X4207580Y5475990D01*
X4202760Y5459050D01*
X4201150Y5440000D01*
X4202760Y5420950D01*
X4207580Y5404010D01*
X4214020Y5391310D01*
X4223670Y5380730D01*
X4236540Y5376500D01*
X4249410Y5380730D01*
X4259060Y5391310D01*
X4265500Y5404010D01*
X4270320Y5420950D01*
X4271930Y5440000D01*
X4270320Y5459050D01*
X4265500Y5475990D01*
X4259060Y5488680D01*
X4249410Y5499270D01*
X4236540Y5503500D01*
G01X4010480Y5376500D02*
X3962220D01*
Y5503500D01*
X4010480D01*
G01X4333060Y5376500D02*
X4381320D01*
Y5503500D01*
X4333060D01*
G01X4453060Y1275000D02*
Y1402000D01*
X4493270D01*
X4506140Y1395650D01*
X4514190Y1387180D01*
X4517400Y1370250D01*
X4514190Y1353320D01*
X4504530Y1342730D01*
X4493270Y1336380D01*
X4453060D01*
G01X4493270D02*
X4517400Y1275000D01*
G01X4614770D02*
X4626030Y1277120D01*
X4638900Y1283460D01*
X4646940Y1294050D01*
X4650160Y1308870D01*
X4646940Y1323680D01*
X4637290Y1336380D01*
X4622810Y1342730D01*
X4606730D01*
X4597070Y1346970D01*
X4589030Y1357550D01*
X4585810Y1372370D01*
X4590640Y1387180D01*
X4601900Y1397770D01*
X4614770Y1402000D01*
X4627640Y1397770D01*
X4638900Y1387180D01*
X4643730Y1372370D01*
X4640510Y1357550D01*
X4632470Y1346970D01*
X4622810Y1342730D01*
X4606730D01*
X4592250Y1336380D01*
X4582600Y1323680D01*
X4579380Y1308870D01*
X4582600Y1294050D01*
X4590640Y1283460D01*
X4603510Y1277120D01*
X4614770Y1275000D01*
G01X4699000Y914400D02*
Y1625600D01*
X4953000D01*
Y914400D01*
X4699000D01*
G01X5053550Y2105500D02*
Y2994500D01*
X5396450D01*
Y2105500D01*
X5053550D01*
G01X5098000Y2994500D02*
Y2105500D01*
G01X5167850Y2931000D02*
G03I-25400J0D01*
G01X5041020Y3159600D02*
Y3068580D01*
X5047450Y3049530D01*
X5060320Y3036830D01*
X5076410Y3032600D01*
X5092500Y3036830D01*
X5105370Y3049530D01*
X5111800Y3068580D01*
Y3159600D01*
G01X5170560Y3058000D02*
X5180210Y3043180D01*
X5193080Y3034720D01*
X5207560Y3032600D01*
X5220430Y3034720D01*
X5233300Y3045300D01*
X5241340Y3058000D01*
X5242950Y3070700D01*
X5239730Y3085510D01*
X5228470Y3096100D01*
X5217210Y3100330D01*
X5202730D01*
G01X5217210D02*
X5226860Y3106680D01*
X5234910Y3117260D01*
X5238120Y3129970D01*
X5234910Y3142670D01*
X5226860Y3153250D01*
X5212380Y3159600D01*
X5197910Y3157480D01*
X5183430Y3149020D01*
G01X5689600Y3937000D02*
X4978400D01*
Y4191000D01*
X5689600D01*
Y3937000D01*
G01X4476570Y5440000D02*
X7000000D01*
G01X5478060Y1250000D02*
Y1377000D01*
X5518270D01*
X5531140Y1370650D01*
X5539190Y1362180D01*
X5542400Y1345250D01*
X5539190Y1328320D01*
X5529530Y1317730D01*
X5518270Y1311380D01*
X5478060D01*
G01X5518270D02*
X5542400Y1250000D01*
G01X5612420Y1264810D02*
X5623680Y1254230D01*
X5636550Y1250000D01*
X5649420Y1254230D01*
X5660680Y1266930D01*
X5668730Y1285980D01*
X5671940Y1305030D01*
Y1328320D01*
X5668730Y1347370D01*
X5660680Y1364300D01*
X5651030Y1372770D01*
X5639770Y1377000D01*
X5626900Y1372770D01*
X5617250Y1364300D01*
X5610810Y1351600D01*
X5607600Y1334660D01*
X5610810Y1319850D01*
X5618860Y1305030D01*
X5628510Y1296560D01*
X5639770Y1294450D01*
X5652640Y1298680D01*
X5662290Y1309270D01*
X5671940Y1328320D01*
G01X5715000Y914400D02*
Y1625600D01*
X5969000D01*
Y914400D01*
X5715000D01*
G01X5753060Y2825400D02*
X5761100Y2812700D01*
X5770750Y2804230D01*
X5782010Y2800000D01*
X5794880Y2804230D01*
X5804530Y2812700D01*
X5814190Y2825400D01*
X5817400Y2842330D01*
Y2927000D01*
G01X5914770Y2800000D02*
Y2927000D01*
X5895470Y2901600D01*
G01Y2800000D02*
X5934070D01*
G01X5969000Y2159000D02*
X5715000D01*
Y2667000D01*
X5969000D01*
Y2159000D01*
G01X5228060Y3800000D02*
Y3927000D01*
X5268270D01*
X5281140Y3920650D01*
X5289190Y3912180D01*
X5292400Y3895250D01*
X5289190Y3878320D01*
X5279530Y3867730D01*
X5268270Y3861380D01*
X5228060D01*
G01X5268270D02*
X5292400Y3800000D01*
G01X5386550D02*
X5389770Y3827510D01*
X5394600Y3850800D01*
X5401030Y3871970D01*
X5409070Y3895250D01*
X5421940Y3927000D01*
X5357600D01*
G01X6600000Y5377500D02*
X7000000Y5440000D01*
X6600000Y5502500D01*
Y5377500D01*
G01X7000000Y5250000D02*
Y5690000D01*
M02*
