G04 ================== begin FILE IDENTIFICATION RECORD ==================*
G04 Layout Name:  C:/ORCADDATA/allegro/EXAMDCCIRCUIT.brd*
G04 Film Name:    TOP*
G04 File Format:  Gerber RS274X*
G04 File Origin:  Cadence Allegro 16.6-B033*
G04 Origin Date:  Thu Feb 18 11:45:04 2021*
G04 *
G04 Layer:  BOARD GEOMETRY/OUTLINE*
G04 Layer:  BOARD GEOMETRY/DIMENSION*
G04 Layer:  ETCH/TOP*
G04 Layer:  PIN/TOP*
G04 Layer:  VIA CLASS/TOP*
G04 *
G04 Offset:    (0.0000 0.0000)*
G04 Mirror:    No*
G04 Mode:      Positive*
G04 Rotation:  0*
G04 FullContactRelief:  No*
G04 UndefLineWidth:     0.0000*
G04 ================== end FILE IDENTIFICATION RECORD ====================*
%FSLAX55Y55*MOMM*%
%IR0*IPPOS*OFA0.00000B0.00000*MIA0B0*SFA1.00000B1.00000*%
%ADD13R,1.27X.635*%
%ADD10C,.635*%
%ADD14C,.6096*%
%ADD11C,1.524*%
%ADD12C,1.651*%
%ADD15C,.3*%
%ADD16C,.5*%
%ADD17C,2.6514*%
G75*
%LPD*%
G75*
G36*
G01X754020Y500000D02*
Y754020D01*
X500000D01*
Y4245980D01*
X754020D01*
Y4500000D01*
X6245980D01*
Y4245980D01*
X6500000D01*
Y754020D01*
X6245980D01*
Y500000D01*
X754020D01*
G37*
%LPC*%
G75*
G36*
G01X4383020Y3948470D02*
Y3383930D01*
X4514260Y3252690D01*
X4517060Y3253410D01*
G02X4421590Y3157940I32940J-128410D01*
G01X4422310Y3160740D01*
X4252980Y3330070D01*
Y3948470D01*
G02X4433530Y4129020I65020J115530D01*
G01X4710470D01*
G02Y3998980I115530J-65020D01*
G01X4433530D01*
G02X4383020Y3948470I-115530J65020D01*
G37*
G36*
G01X5101930Y584980D02*
X2879070D01*
X2829740Y634310D01*
X2826940Y633590D01*
G02X2678470Y696980I-32942J128411D01*
G01X1893530D01*
G02Y827020I-115530J65020D01*
G01X2678470D01*
G02X2922410Y729060I115528J-65023D01*
G01X2921690Y726260D01*
X2932930Y715020D01*
X3418100D01*
G03X3427920Y727800I3J10161D01*
G02X3684080I128080J34200D01*
G03X3693900Y715020I9817J-2619D01*
G01X4243500D01*
G03X4250680Y732360I-3J10158D01*
G01X3834980Y1148070D01*
Y1940500D01*
G03X3817640Y1947680I-10158J-3D01*
G01X3683690Y1813740D01*
X3684410Y1810940D01*
G02X3588940Y1906410I-128410J-32940D01*
G01X3591740Y1905690D01*
X3734980Y2048930D01*
Y2373070D01*
X3696570Y2411480D01*
X3675870D01*
Y2013730D01*
X3448830D01*
Y2284480D01*
X3076420D01*
X2504920Y1712980D01*
X1893530D01*
G02X1736260Y1903830I-115530J65022D01*
G03X1740250Y1920660I-3193J9645D01*
G01X1195930Y2464980D01*
X1117510D01*
G02X1062000Y2422460I-101506J75022D01*
G03Y2403540I3703J-9460D01*
G02X970000I-46000J-117540D01*
G03Y2422460I-3703J9460D01*
G02X1117510Y2615020I46003J117540D01*
G01X1258070D01*
X1818070Y2055020D01*
X2472150D01*
X2477010Y2059890D01*
G03X2469830Y2077230I-7184J7182D01*
G01X2420130D01*
Y2903650D01*
G03X2402790Y2910830I-10158J-3D01*
G01X2365020Y2873070D01*
Y2648070D01*
X2191930Y2474980D01*
X2151870D01*
Y2077230D01*
X1924830D01*
Y2855980D01*
X1712980D01*
Y3490980D01*
X1124180D01*
G02X1062000Y3438460I-108186J65016D01*
G03Y3419540I3703J-9460D01*
G02X970000I-46000J-117540D01*
G03Y3438460I-3703J9460D01*
G02X1124180Y3621020I45997J117539D01*
G01X1712980D01*
Y3948470D01*
G02X1843020I65020J115530D01*
G01Y2986020D01*
X1924830D01*
Y3002770D01*
X2064530D01*
Y3426480D01*
X2666310Y4028260D01*
X2665590Y4031060D01*
G02X2761060Y3935590I128410J32940D01*
G01X2758260Y3936310D01*
X2194570Y3372620D01*
Y2699520D01*
X2151870Y2656820D01*
Y2643350D01*
G03X2169210Y2636170I10158J3D01*
G01X2234980Y2701930D01*
Y2926930D01*
X2373070Y3065020D01*
X3448830D01*
Y3066270D01*
X3675870D01*
Y3057630D01*
G03X3684540Y3054040I5079J1D01*
G01X3690030Y3059520D01*
X3944130D01*
Y3066270D01*
X4171170D01*
Y3059520D01*
X4189920D01*
X4624420Y2625020D01*
X4863830D01*
Y3012770D01*
X5090870D01*
Y2869020D01*
X5127070D01*
X5373070Y3115020D01*
X5776930D01*
X5907020Y2984930D01*
Y2648180D01*
G02X5888000Y2422460I-65021J-108182D01*
G03Y2403540I3703J-9460D01*
G02X5796000I-46000J-117540D01*
G03Y2422460I-3703J9460D01*
G02X5776980Y2648180I46001J117538D01*
G01Y2931070D01*
X5723070Y2984980D01*
X5586170D01*
Y2087230D01*
X5359130D01*
Y2892650D01*
G03X5341790Y2899830I-10158J-3D01*
G01X5180930Y2738980D01*
X5152500D01*
G03X5145320Y2721640I3J-10158D01*
G01X5315020Y2551930D01*
Y798070D01*
X5101930Y584980D01*
G37*
G54D17*
X5842000Y4064000D03*
Y1778000D03*
Y762000D03*
X3302000Y4064000D03*
X2794000Y1778000D03*
%LPD*%
G75*
G54D10*
X500000Y500000D03*
Y4500000D03*
X6500000Y500000D03*
Y4500000D03*
G54D11*
X1016000Y2540000D03*
Y2286000D03*
Y3302000D03*
Y3556000D03*
X5842000Y2540000D03*
Y2286000D03*
G54D12*
X1778000Y762000D03*
Y1778000D03*
Y4064000D03*
X2794000Y762000D03*
Y1778000D03*
Y4064000D03*
X3556000Y762000D03*
Y1778000D03*
X3302000Y4064000D03*
X4318000D03*
X4826000Y762000D03*
X4550000Y2109000D03*
X4826000Y1778000D03*
X4550000Y3125000D03*
X4826000Y4064000D03*
X5842000Y762000D03*
Y1778000D03*
Y4064000D03*
G54D13*
X2038350Y2159000D03*
Y2921000D03*
Y2794000D03*
Y2667000D03*
Y2540000D03*
Y2413000D03*
Y2286000D03*
X2533650Y2159000D03*
Y2794000D03*
Y2921000D03*
Y2667000D03*
Y2413000D03*
Y2540000D03*
Y2286000D03*
X3562350Y2095500D03*
Y2857500D03*
Y2730500D03*
Y2603500D03*
Y2476500D03*
Y2349500D03*
Y2222500D03*
Y2984500D03*
X4057650Y2095500D03*
Y2857500D03*
Y2730500D03*
Y2476500D03*
Y2603500D03*
Y2349500D03*
Y2222500D03*
Y2984500D03*
X4977350Y2169000D03*
Y2931000D03*
Y2804000D03*
Y2677000D03*
Y2550000D03*
Y2423000D03*
Y2296000D03*
X5472650Y2169000D03*
Y2804000D03*
Y2931000D03*
Y2677000D03*
Y2423000D03*
Y2550000D03*
Y2296000D03*
G54D14*
X3302000Y2603500D03*
G54D15*
G01X1778000Y3556000D02*
X1016000D01*
G01X2794000Y762000D02*
X1778000D01*
G01Y1778000D02*
X2477990D01*
X3049490Y2349500D01*
X3562350D01*
G01X2794000Y4064000D02*
X2129550Y3399550D01*
Y2794000D01*
G01D02*
Y2726450D01*
X2070100Y2667000D01*
X2038350D01*
G01X2129550Y2794000D02*
X2038350D01*
G01Y2540000D02*
X2165000D01*
X2300000Y2675000D01*
Y2900000D01*
X2400000Y3000000D01*
X3455650D01*
X3471150Y2984500D01*
X3562350D01*
G01X1778000Y4064000D02*
Y3556000D01*
G01X2038350Y2921000D02*
X1778000D01*
Y3556000D01*
G01X2794000Y762000D02*
X2906000Y650000D01*
X5075000D01*
X5250000Y825000D01*
Y2525000D01*
X5098000Y2677000D01*
X4977350D01*
G01X3556000Y1778000D02*
X3800000Y2022000D01*
Y2400000D01*
X3723500Y2476500D01*
X3562350D01*
G01Y2603500D02*
X3302000D01*
G01X4826000Y762000D02*
X4313000D01*
X3900000Y1175000D01*
Y2484050D01*
X3653550Y2730500D01*
X3562350D01*
G01X4318000Y4064000D02*
Y3357000D01*
X4550000Y3125000D01*
G01X4318000Y4064000D02*
X4826000D01*
G01X4977350Y2804000D02*
X5154000D01*
X5400000Y3050000D01*
X5750000D01*
X5842000Y2958000D01*
Y2540000D01*
G01X4977350Y2931000D02*
Y2804000D01*
G54D16*
G01X1016000Y2154700D02*
Y2286000D01*
G01X2634850Y2857500D02*
Y2111630D01*
X2503220Y1980000D01*
X1787000D01*
X1227000Y2540000D01*
X1016000D01*
G01X884700Y2286000D02*
X1016000D01*
G01D02*
X1147300D01*
G01X1016000Y3170700D02*
Y3302000D01*
G01X884700D02*
X1016000D01*
G01D02*
X1147300D01*
G01X2038350Y2072150D02*
Y2159000D01*
G01X1919750D02*
X2038350D01*
G01D02*
X2156950D01*
G01X3562350Y2857500D02*
X2634850D01*
G01D02*
Y2921000D01*
X2533650D01*
G01X3562350Y2008650D02*
Y2095500D01*
G01X3443750D02*
X3562350D01*
G01D02*
X3680950D01*
G01X4057650Y2984500D02*
X3721100D01*
X3594100Y2857500D01*
X3562350D01*
G01X3443750Y2222500D02*
X3562350D01*
G01D02*
X3680950D01*
G01X4977350Y2550000D02*
X4593350D01*
X4158850Y2984500D01*
X4057650D01*
G01X5842000Y624350D02*
Y762000D01*
G01D02*
Y899650D01*
G01X5704350Y762000D02*
X5842000D01*
G01D02*
X5979650D01*
G01X5842000Y2154700D02*
Y2286000D01*
G01X5710700D02*
X5842000D01*
G01D02*
X5973300D01*
G01X5354050Y2550000D02*
X5472650D01*
G01D02*
X5591250D01*
M02*
