G04 ================== begin FILE IDENTIFICATION RECORD ==================*
G04 Layout Name:  C:/ORCADDATA/allegro/RINGCOUNTER_EXAM.brd*
G04 Film Name:    TOP*
G04 File Format:  Gerber RS274X*
G04 File Origin:  Cadence Allegro 16.6-B033*
G04 Origin Date:  Thu Jan 28 11:50:31 2021*
G04 *
G04 Layer:  ETCH/TOP*
G04 Layer:  PIN/TOP*
G04 Layer:  VIA CLASS/TOP*
G04 *
G04 Offset:    (0.0000 0.0000)*
G04 Mirror:    No*
G04 Mode:      Positive*
G04 Rotation:  0*
G04 FullContactRelief:  No*
G04 UndefLineWidth:     0.0000*
G04 ================== end FILE IDENTIFICATION RECORD ====================*
%FSLAX25Y25*MOMM*%
%IR0*IPPOS*OFA0.00000B0.00000*MIA0B0*SFA1.00000B1.00000*%
%ADD10C,.635*%
%ADD11C,1.524*%
%ADD12C,1.651*%
%ADD13R,1.524X1.524*%
%ADD14C,.5*%
%ADD15C,1.*%
G75*
%LPD*%
G75*
G54D10*
X500000Y500000D03*
Y9500000D03*
X11500000Y500000D03*
Y9500000D03*
G54D11*
X1270000Y5334000D03*
Y5588000D03*
X1524000Y3810000D03*
Y4064000D03*
X2794000Y5080000D03*
X2540000D03*
X2794000Y5842000D03*
X2540000D03*
X2286000D03*
X3556000Y5080000D03*
X3302000D03*
X3048000D03*
X3556000Y5842000D03*
X3302000D03*
X3048000D03*
X3810000Y5080000D03*
Y5842000D03*
X5080000Y5080000D03*
X4826000Y5842000D03*
X5080000D03*
X5842000Y5080000D03*
X5588000D03*
X5334000D03*
Y5842000D03*
X5588000D03*
X5842000D03*
X6604000Y5080000D03*
X6350000D03*
X6096000D03*
Y5842000D03*
X6350000D03*
X6604000D03*
X8382000Y1778000D03*
Y1524000D03*
Y2540000D03*
Y2286000D03*
Y3302000D03*
Y3048000D03*
Y4064000D03*
Y3810000D03*
Y4826000D03*
Y4572000D03*
Y5588000D03*
Y5334000D03*
Y6350000D03*
Y6096000D03*
Y7112000D03*
Y6858000D03*
Y7874000D03*
Y7620000D03*
Y8636000D03*
Y8382000D03*
G54D12*
X1524000Y7112000D03*
X2540000D03*
X9144000Y1524000D03*
Y2286000D03*
Y3048000D03*
Y3810000D03*
Y4572000D03*
Y5334000D03*
Y6096000D03*
Y6858000D03*
Y7620000D03*
Y8382000D03*
X10160000Y1524000D03*
Y2286000D03*
Y3048000D03*
Y3810000D03*
Y4572000D03*
Y5334000D03*
Y6096000D03*
Y6858000D03*
Y7620000D03*
Y8382000D03*
G54D13*
X2286000Y5080000D03*
X4826000D03*
G54D14*
G01X1524000Y4064000D02*
X2032000D01*
X2286000Y4318000D01*
Y5080000D01*
G01D02*
X2032000D01*
X1524000Y5588000D01*
Y7112000D01*
G01X2540000Y5080000D02*
Y5284000D01*
X2032000Y5792000D01*
Y6350000D01*
X2540000Y6858000D01*
Y7112000D01*
G01Y5080000D02*
X2794000D01*
G01X5334000Y5842000D02*
X5080000Y5588000D01*
X3302000D01*
X3048000Y5334000D01*
Y5080000D01*
G01X8382000Y4826000D02*
X5080000D01*
X4826000Y5080000D01*
G01X8382000Y1778000D02*
X7874000D01*
X7620000Y2032000D01*
Y2540000D01*
X7874000Y2794000D01*
X9652000D01*
X9906000Y3048000D01*
Y4572000D01*
X9398000Y5080000D01*
X7874000D01*
X7620000Y5334000D01*
X6604000D01*
X6096000Y5842000D01*
G01X6604000D02*
X9144010D01*
X10414000Y4572010D01*
Y2793990D01*
X10160010Y2540000D01*
X8382000D01*
G01Y5588000D02*
X6604000D01*
X6350000Y5842000D01*
G01X8382000Y1524000D02*
X9144000D01*
G01X8382000Y2286000D02*
X9144000D01*
G01X8382000Y3048000D02*
X9144000D01*
G01X8382000Y3810000D02*
X9144000D01*
G01X8382000Y4572000D02*
X9144000D01*
G01X8382000Y5334000D02*
X9144000D01*
G01X8382000Y6096000D02*
X9144000D01*
G01X8382000Y6858000D02*
X9144000D01*
G01X8382000Y7620000D02*
X9144000D01*
G01X8382000Y8382000D02*
X9144000D01*
G54D15*
G01X2286000Y5842000D02*
Y6350000D01*
X3048000Y7112000D01*
Y7620000D01*
X2540000Y8128000D01*
X1778000D01*
X1270000Y7620000D01*
Y5588000D01*
G01X4826000Y5842000D02*
X4318000Y6350000D01*
X2794000D01*
X2286000Y5842000D01*
M02*
