G04 ================== begin FILE IDENTIFICATION RECORD ==================*
G04 Layout Name:  C:/ORCADDATA/SEQUENTIALTIMER/allegro/SEQUENTIALTIMER.brd*
G04 Film Name:    BOTTOM*
G04 File Format:  Gerber RS274X*
G04 File Origin:  Cadence Allegro 16.6-B033*
G04 Origin Date:  Mon Feb 08 16:11:39 2021*
G04 *
G04 Layer:  BOARD GEOMETRY/OUTLINE*
G04 Layer:  BOARD GEOMETRY/DIMENSION*
G04 Layer:  ETCH/BOTTOM*
G04 Layer:  PIN/BOTTOM*
G04 Layer:  VIA CLASS/BOTTOM*
G04 *
G04 Offset:    (0.0000 0.0000)*
G04 Mirror:    No*
G04 Mode:      Positive*
G04 Rotation:  0*
G04 FullContactRelief:  No*
G04 UndefLineWidth:     0.0000*
G04 ================== end FILE IDENTIFICATION RECORD ====================*
%FSLAX25Y25*MOMM*%
%IR0*IPPOS*OFA0.00000B0.00000*MIA0B0*SFA1.00000B1.00000*%
%ADD10C,.635*%
%ADD14C,.6096*%
%ADD11C,1.524*%
%ADD13C,1.651*%
%ADD12R,1.524X1.524*%
%ADD15C,.1*%
%ADD16C,.5*%
%ADD17C,2.6514*%
%ADD19C,1.9054*%
%ADD21R,2.5244X2.5244*%
%ADD18R,5.0804X5.0804*%
%ADD20C,1.7784*%
G75*
%LPD*%
G75*
G36*
G01X754020Y300000D02*
Y754020D01*
X300000D01*
Y5245980D01*
X754020D01*
Y5700000D01*
X7700000D01*
Y4200000D01*
X8700000D01*
Y1800000D01*
X7700000D01*
Y300000D01*
X754020D01*
G37*
%LPC*%
G75*
G36*
G01X1311270Y1630180D02*
X905360Y1224260D01*
X905780Y1221690D01*
G02X796690Y1330780I-130780J-21690D01*
G01X799260Y1330360D01*
X1249130Y1780220D01*
X1999130D01*
X2119640Y1900740D01*
X2119220Y1903310D01*
G02X2271690Y2055780I130780J21690D01*
G01X2274260Y2055360D01*
X2290790Y2071890D01*
G03X2280370Y2088700I-7185J7180D01*
G02X2315400Y2248280I-30369J90301D01*
G03X2332530Y2255670I6971J7389D01*
G01Y2946630D01*
X2564470Y3178570D01*
X2659310D01*
G02X2663770Y3180160I29250J-74998D01*
G01X2664940Y3180530D01*
X2669390Y3184990D01*
X2299980Y3554410D01*
Y3724700D01*
G02X2450020I75020J109300D01*
G01Y3616550D01*
X3100020Y2966550D01*
Y1309300D01*
G02X2949980I-75020J-109300D01*
G01Y2904410D01*
X2896410Y2957970D01*
G03X2880960Y2956700I-7187J-7180D01*
G02X2847900Y2929860I-65461J46850D01*
G01X2642470Y2724430D01*
Y2255670D01*
G03X2659600Y2248280I10159J-1D01*
G02X2694630Y2088700I65399J-69279D01*
G03X2684210Y2071890I-3235J-9630D01*
G01X2700740Y2055360D01*
X2703310Y2055780D01*
G02X2594220Y1946690I21690J-130780D01*
G01X2594640Y1949260D01*
X2487500Y2056410D01*
X2380360Y1949260D01*
X2380780Y1946690D01*
G02X2228310Y1794220I-130780J-21690D01*
G01X2225740Y1794640D01*
X2061270Y1630180D01*
X1311270D01*
G37*
G36*
G01X6384620Y942430D02*
X4312650D01*
X4016990Y1238090D01*
G03X4000210Y1227570I-7184J-7183D01*
G02X3942220Y1298260I-125203J-43578D01*
G03X3957530Y1307020I5149J8760D01*
G01Y2011380D01*
X3899260Y2069640D01*
X3896690Y2069220D01*
G02X4005780Y2178310I-21690J130780D01*
G01X4005360Y2175740D01*
X4107570Y2073520D01*
Y1359690D01*
X4231440Y1235830D01*
G03X4248780Y1243010I7182J7184D01*
G01Y1326220D01*
X4395130D01*
X4457530Y1388620D01*
Y1405810D01*
X4449780D01*
X4448260Y1403610D01*
G02X4439950Y1514730I-73261J50392D01*
G03X4457530Y1521670I7420J6940D01*
G01Y1751980D01*
G03X4442220Y1760740I-10161J0D01*
G02X4244220Y1896690I-67218J114262D01*
G01X4244640Y1899260D01*
X4142430Y2001480D01*
Y2225330D01*
X4273200Y2356110D01*
G03X4263100Y2373020I-7185J7180D01*
G02X4149980Y2609300I-38101J126977D01*
G01Y2798160D01*
G02X4289260Y2875840I75021J29192D01*
G03X4307530Y2881960I8111J6117D01*
G01Y2899340D01*
X4307200Y2900210D01*
G02X4440110Y2984830I75347J28343D01*
G03X4457530Y2991930I7261J7105D01*
G01Y2999340D01*
X4457200Y3000210D01*
G02X4607570Y2999360I75348J28339D01*
G01Y1326480D01*
X4501220Y1220130D01*
Y1092470D01*
X4923780D01*
Y1326220D01*
X5070130D01*
X5126180Y1382270D01*
Y1397590D01*
X5118780D01*
X5117260Y1395840D01*
G02X5109250Y1520300I-67261J58159D01*
G03X5126180Y1527880I6769J7577D01*
G01Y1748780D01*
X4923780D01*
Y1895130D01*
X4823780Y1995130D01*
Y3291580D01*
X4657530Y3457830D01*
Y3793190D01*
X4620350Y3830370D01*
G03X4603330Y3825730I-7184J-7184D01*
G02X4365700Y3783980I-128328J33270D01*
G01X4008700D01*
Y2819650D01*
X3839200Y2650150D01*
X3838820Y2649300D01*
G02X3798740Y2609220I-73320J33240D01*
G01X3797890Y2608840D01*
X3507370Y2318320D01*
G03X3508180Y2303220I7186J-7186D01*
G02X3349980Y2309300I-83184J-103221D01*
G01Y2373110D01*
X3691800Y2714930D01*
X3692180Y2715780D01*
G02X3733100Y2756230I73315J-33244D01*
G01X3858660Y2881790D01*
Y3799410D01*
G03X3841420Y3806700I-10159J4D01*
G02Y3943300I-66420J68300D01*
G03X3858660Y3950590I7081J7286D01*
G01Y4006650D01*
G03X3843270Y4015360I-10160J0D01*
G02X3799950Y4259200I-68270J113639D01*
G03X3809040Y4276360I1905J9978D01*
G01X3765250Y4320160D01*
X3762770Y4319830D01*
G02X3871670Y4428730I-16270J125170D01*
G01X3871340Y4426250D01*
X4008700Y4288890D01*
Y3934020D01*
X4365700D01*
G02X4441730Y3987330I109304J-75017D01*
G03X4446370Y4004350I-2544J9836D01*
G01X3826740Y4623980D01*
X3594010D01*
G02Y4774020I-101510J75020D01*
G01X3671480D01*
Y4826780D01*
X3620280D01*
Y5029180D01*
X3369270D01*
X3205360Y4865260D01*
X3205780Y4862690D01*
G02X3096690Y4971780I-130780J-21690D01*
G01X3099260Y4971360D01*
X3307130Y5179220D01*
X6761200D01*
X7095440Y4844990D01*
G03X7112780Y4852170I7182J7184D01*
G01Y5015720D01*
X7365220D01*
Y4763280D01*
X7201670D01*
G03X7194490Y4745940I4J-10158D01*
G01X7211220Y4729200D01*
Y4541800D01*
X7186870Y4517440D01*
G03X7197400Y4500670I7187J-7178D01*
G02X7364170Y4365230I41601J-119169D01*
G01X7363840Y4362750D01*
X7500020Y4226570D01*
Y3600300D01*
G02X7349980I-75020J-109300D01*
G01Y4164430D01*
X7257750Y4256660D01*
X7255270Y4256330D01*
G02X7144020Y4298370I-16269J125169D01*
G03X7126220Y4291680I-7641J-6696D01*
G01Y2424130D01*
X7024840Y2322750D01*
X7025170Y2320270D01*
G02X6963890Y2195140I-125169J-16271D01*
G03X6969030Y2176220I5141J-8762D01*
G01X7026220D01*
Y1923780D01*
X6773780D01*
Y2176220D01*
X6830970D01*
G03X6836110Y2195140I-1J10158D01*
G02X6916270Y2429170I63885J108861D01*
G01X6918750Y2428840D01*
X6976180Y2486270D01*
Y3598780D01*
X6773780D01*
Y3851220D01*
X6830970D01*
G03X6836110Y3870140I-1J10158D01*
G02X6961100Y4089440I63888J108856D01*
G03X6976180Y4098330I4919J8892D01*
G01Y4509510D01*
X6971640Y4509990D01*
G02X6883490Y4560480I13355J125512D01*
G01X6814760D01*
X6378630Y4124350D01*
G03X6383270Y4107330I7184J-7184D01*
G02X6219760Y3954250I-33270J-128329D01*
G01X6219470Y3955790D01*
X6214770Y3960490D01*
X6207570Y3953290D01*
Y3587950D01*
G03X6219610Y3577960I10160J-5D01*
G02X6309520Y3469660I14889J-79110D01*
G01Y3266000D01*
X6661240D01*
G02Y3115960I29190J-75020D01*
G01X6333750D01*
X6333740Y3115950D01*
X6263690D01*
G02X6219610Y3111860I-29191J75020D01*
G03X6207570Y3101870I-1880J-9985D01*
G01Y2953670D01*
X5971330Y2717430D01*
X5276220D01*
Y1320130D01*
X5176220Y1220130D01*
Y1092470D01*
X5601980D01*
G03X5610740Y1107780I0J10161D01*
G02X5839260I114260J67220D01*
G03X5848020Y1092470I8760J-5149D01*
G01X6145640D01*
G03X6153070Y1109560I1J10160D01*
G02X6271690Y1330780I96931J90437D01*
G01X6274260Y1330360D01*
X6413480Y1469570D01*
Y2879840D01*
G02X6563520I75020J29190D01*
G01Y1407430D01*
X6380360Y1224260D01*
X6380780Y1221690D01*
G02X6380500Y1176650I-130780J-21708D01*
G03X6397680Y1167680I9999J-1786D01*
G01X7362400Y2132390D01*
X7362780Y2133240D01*
G02X7469340Y2026680I73320J-33240D01*
G01X7468490Y2026300D01*
X6384620Y942430D01*
G37*
G36*
G01X8021000Y3842540D02*
G02X7929000I-46000J-117540D01*
G03Y3861460I-3703J9460D01*
G02X8021000I46000J117540D01*
G03Y3842540I3703J-9460D01*
G37*
G36*
G01X8101220Y1923780D02*
X7848780D01*
Y2176220D01*
X7905970D01*
G03X7911110Y2195140I-1J10158D01*
G02X8038890I63890J108860D01*
G03X8044030Y2176220I5141J-8762D01*
G01X8101220D01*
Y1923780D01*
G37*
G36*
G01X1905360Y1949260D02*
X1905780Y1946690D01*
G02X1796690Y2055780I-130780J-21690D01*
G01X1799260Y2055360D01*
X1815790Y2071890D01*
G03X1805370Y2088700I-7185J7180D01*
G02X1865300Y2148630I-30370J90300D01*
G03X1882110Y2138210I9630J-3235D01*
G01X1890480Y2146570D01*
Y2606230D01*
G03X1878660Y2616250I-10159J-2D01*
G02X1790480Y2724860I-13159J79418D01*
G01Y3476350D01*
G02Y3534730I75020J29190D01*
G01Y3701240D01*
X1695350Y3796370D01*
G03X1678330Y3791730I-7184J-7184D01*
G02X1625020Y3715700I-128327J33274D01*
G01Y2959930D01*
X905360Y2240260D01*
X905780Y2237690D01*
G02X796690Y2346780I-130780J-21690D01*
G01X799260Y2346360D01*
X1474980Y3022070D01*
Y3715700D01*
G02X1435740Y3892220I75021J109299D01*
G03X1426980Y3907530I-8760J5149D01*
G01X963620D01*
X905360Y3849260D01*
X905780Y3846690D01*
G02X850020Y3715700I-130782J-21692D01*
G01Y3276220D01*
X901220D01*
Y3023780D01*
X648780D01*
Y3276220D01*
X699980D01*
Y3715700D01*
G02X796690Y3955780I75023J109298D01*
G01X799260Y3955360D01*
X901480Y4057570D01*
X1474980D01*
Y4731700D01*
G02X1625020I75020J109300D01*
G01Y4057570D01*
X1646330D01*
X1940520Y3763380D01*
Y3534730D01*
G02Y3476350I-75020J-29190D01*
G01Y3092990D01*
G03X1952340Y3082970I10159J2D01*
G02X2040520Y2974360I13159J-79418D01*
G01Y2084430D01*
X1905360Y1949260D01*
G37*
G36*
G01X3623520Y2909480D02*
X3331190D01*
G02Y3059520I-29190J75020D01*
G01X3561380D01*
X3580430Y3078570D01*
X3650490D01*
G02X3651340Y2928200I29189J-75022D01*
G01X3650470Y2928530D01*
X3642570D01*
X3623520Y2909480D01*
G37*
G54D17*
X8475000Y3516000D03*
Y2500000D03*
X7425000Y2475000D03*
X6250000Y2216000D03*
X4225000Y3516000D03*
X3075000Y3825000D03*
X3425000Y1184000D03*
X2375000Y4850000D03*
X2009000Y1200000D03*
X775000Y4841000D03*
G54D19*
X6350000Y3725000D03*
X5725000Y2191000D03*
G54D21*
X1425000Y1200000D03*
G54D18*
X8000000Y3000000D03*
G54D20*
X775000Y2896000D03*
X1425000Y1454000D03*
%LPD*%
G75*
G36*
G01X6699060Y5029180D02*
X6954490Y4773750D01*
G02X6950110Y4756800I-7186J-7184D01*
G03X6883490Y4710520I34883J-121304D01*
G01X6752620D01*
X6057530Y4015430D01*
Y3015810D01*
X6020350Y2978630D01*
G02X6003330Y2983270I-7184J7184D01*
G03X5935500Y3067960I-128328J-33272D01*
G02Y3086040I4637J9040D01*
G03X5950020Y3313300I-60500J117959D01*
G01Y3932270D01*
X5876220Y4006070D01*
Y4613870D01*
X5664360Y4825740D01*
X5664780Y4828310D01*
G03X5555690Y4719220I-130780J21690D01*
G01X5558260Y4719640D01*
X5726180Y4551730D01*
Y4101220D01*
X5523780D01*
Y3848780D01*
X5776220D01*
Y3869360D01*
G02X5793560Y3876540I10158J-4D01*
G01X5799980Y3870130D01*
Y3313300D01*
G03X5814500Y3086040I75020J-109301D01*
G02Y3067960I-4637J-9040D01*
G03X5760740Y2882780I60501J-117958D01*
G02X5751980Y2867470I-8760J-5149D01*
G01X5276220D01*
Y2883420D01*
X5198690Y2960950D01*
G03X5092600Y2854860I-73690J-32400D01*
G01X5126180Y2821280D01*
Y2202880D01*
G02X5109250Y2195300I-10161J-3D01*
G03X4990750I-59250J-66300D01*
G02X4973820Y2202880I-6769J7577D01*
G01Y3247630D01*
X5553010D01*
G03Y3397670I29190J75020D01*
G01X4929870D01*
X4807570Y3519970D01*
Y3855330D01*
X3888880Y4774020D01*
X3821520D01*
Y4826780D01*
X3872720D01*
Y5029180D01*
X6699060D01*
G37*
G36*
G01X5029870Y2001220D02*
X4973820Y2057270D01*
Y2072590D01*
X4981220D01*
X4982740Y2070840D01*
G03X5109250Y2062700I67259J58161D01*
G02X5126180Y2055120I6769J-7577D01*
G01Y2001220D01*
X5029870D01*
G37*
%LPC*%
G75*
G54D17*
X4475000Y4875000D03*
X5050000Y3850000D03*
X6550000Y4850000D03*
G54D19*
X5050000Y4866000D03*
G54D20*
X5650000Y3721000D03*
%LPD*%
G75*
G54D10*
X500000Y500000D03*
Y5500000D03*
X8000000Y3000000D03*
G54D11*
X1425000Y1454000D03*
X775000Y2896000D03*
X3746500Y4445000D03*
X3492500Y4699000D03*
X4375000Y1454000D03*
X5050000D03*
Y2129000D03*
X5650000Y3721000D03*
X6900000Y2304000D03*
Y3979000D03*
X7239000Y4381500D03*
X6985000Y4635500D03*
X7975000Y2304000D03*
Y3725000D03*
Y3979000D03*
G54D12*
X1425000Y1200000D03*
X775000Y3150000D03*
X3746500Y4953000D03*
X4375000Y1200000D03*
X5050000D03*
Y1875000D03*
X5650000Y3975000D03*
X6900000Y2050000D03*
Y3725000D03*
X7239000Y4889500D03*
X7975000Y2050000D03*
G54D13*
X775000Y1200000D03*
Y2216000D03*
Y3825000D03*
Y4841000D03*
X2009000Y1200000D03*
X2250000Y2179000D03*
Y1925000D03*
X1775000Y2179000D03*
Y1925000D03*
X1550000Y3825000D03*
Y4841000D03*
X2725000Y2179000D03*
Y1925000D03*
X2375000Y3834000D03*
Y4850000D03*
X3025000Y1200000D03*
X3425000Y1184000D03*
Y2200000D03*
X3775000Y4129000D03*
Y3875000D03*
X3075000Y3825000D03*
Y4841000D03*
X3875000Y1184000D03*
X4375000Y2129000D03*
Y1875000D03*
X3875000Y2200000D03*
X4225000Y2500000D03*
Y3516000D03*
X4475000Y3859000D03*
Y4875000D03*
X5050000Y3850000D03*
Y4866000D03*
X5725000Y1175000D03*
Y2191000D03*
X5875000Y2950000D03*
Y3204000D03*
X5534000Y4850000D03*
X6250000Y1200000D03*
Y2216000D03*
X6350000Y3725000D03*
Y3979000D03*
X6550000Y4850000D03*
X7425000Y2475000D03*
Y3491000D03*
X8475000Y2500000D03*
Y3516000D03*
G54D14*
X1865500Y2695670D03*
Y3505540D03*
X1965500Y3003550D03*
X2688500Y3103550D03*
X2815500Y3003550D03*
X3679680D03*
X3302000Y2984500D03*
X3765500Y2682540D03*
X4225000Y2827350D03*
X4382550Y2928550D03*
X5125000D03*
X4532550Y3028550D03*
X5582200Y3322650D03*
X6488500Y2909030D03*
X6690430Y3190980D03*
X6234500Y3498850D03*
Y3190970D03*
X7436100Y2100000D03*
G54D15*
G01X0Y0D02*
X8000000D01*
Y1500000D01*
X8600000D01*
G03X9000000Y1900000I0J400000D01*
G01Y4100000D01*
G03X8600000Y4500000I-400000J0D01*
G01X8000000D01*
Y6000000D01*
X0D01*
Y0D01*
G54D16*
G01X775000Y1200000D02*
X1280200Y1705200D01*
X2030200D01*
X2250000Y1925000D01*
G01X1331000Y1454000D02*
X1425000D01*
G01X775000Y2802000D02*
Y2896000D01*
G01D02*
Y2990000D01*
G01X681000Y2896000D02*
X775000D01*
G01D02*
X869000D01*
G01X775000Y2216000D02*
X1550000Y2991000D01*
Y3825000D01*
G01X775000Y3150000D02*
Y3825000D01*
G01X1550000Y3982550D02*
X932550D01*
X775000Y3825000D01*
G01X1425000Y1360000D02*
Y1454000D01*
G01D02*
Y1548000D01*
G01Y1454000D02*
X1519000D01*
G01X1775000Y1925000D02*
X1965500Y2115500D01*
Y3003550D01*
G01X1865500Y2695670D02*
Y3505540D01*
G01X1775000Y2179000D02*
Y2279350D01*
G01X1674650Y2179000D02*
X1775000D01*
G01X2149650D02*
X2250000D01*
G01X1865500Y3505540D02*
Y3732310D01*
X1615260Y3982550D01*
X1550000D01*
G01D02*
Y4841000D01*
G01X2688500Y3103550D02*
X2595540D01*
X2407550Y2915560D01*
Y2082550D01*
X2250000Y1925000D01*
G01X2725000D02*
X2567450Y2082550D01*
Y2755500D01*
X2815500Y3003550D01*
G01X2725000Y2179000D02*
Y2279350D01*
G01Y2179000D02*
X2825350D01*
G01X2250000D02*
Y2279350D01*
G01X3025000Y1200000D02*
Y2935480D01*
X2375000Y3585480D01*
Y3834000D01*
G01X3765500Y2682540D02*
X3425000Y2342040D01*
Y2200000D01*
G01X3302000Y2984500D02*
X3592450D01*
X3611500Y3003550D01*
X3679680D01*
G01X3674650Y3875000D02*
X3775000D01*
G01X6900000Y2304000D02*
X7051200Y2455200D01*
Y4487870D01*
X7136200Y4572870D01*
Y4698130D01*
X6730130Y5104200D01*
X3338200D01*
X3075000Y4841000D01*
G01X3492500Y4699000D02*
X3746500D01*
G01X4375000Y1360000D02*
Y1454000D01*
G01X3875000Y2200000D02*
X4032550Y2042450D01*
Y1328620D01*
X4343720Y1017450D01*
X6353550D01*
X7436100Y2100000D01*
G01X4532550Y2129000D02*
Y1357550D01*
X4375000Y1200000D01*
G01Y1454000D02*
Y1548000D01*
G01X4281000Y1454000D02*
X4375000D01*
G01Y1875000D02*
X4217450Y2032550D01*
Y2194260D01*
X4382550Y2359360D01*
Y2928550D01*
G01X4532550Y2129000D02*
X4375000D01*
G01X3933680Y3859000D02*
Y2850720D01*
X3765500Y2682540D01*
G01X4225000Y2500000D02*
Y2827350D01*
G01X3746500Y4445000D02*
X3933680Y4257820D01*
Y3859000D01*
G01D02*
X4475000D01*
G01X3775000Y3774650D02*
Y3875000D01*
G01X3746500Y4699000D02*
X3857810D01*
X4732550Y3824260D01*
Y3488900D01*
X4898800Y3322650D01*
G01X3746500Y4699000D02*
Y4953000D01*
G01X5050000Y1360000D02*
Y1454000D01*
G01X5201200Y2792450D02*
Y1351200D01*
X5050000Y1200000D01*
G01Y2035000D02*
Y2129000D01*
G01D02*
Y2223000D01*
G01Y1454000D02*
Y1548000D01*
G01X4956000Y1454000D02*
X5050000D01*
G01X4532550Y3028550D02*
Y2129000D01*
G01X5050000Y1875000D02*
X4898800Y2026200D01*
Y3322650D01*
G01X5125000Y2928550D02*
X5201200Y2852350D01*
Y2792450D01*
G01D02*
X5940260D01*
X6132550Y2984740D01*
Y3984360D01*
X6783690Y4635500D01*
X6985000D01*
G01X4898800Y3322650D02*
X5582200D01*
G01X5050000Y4765650D02*
Y4866000D01*
G01D02*
Y4966350D01*
G01X4949650Y4866000D02*
X5050000D01*
G01D02*
X5150350D01*
G01X5725000Y2090650D02*
Y2191000D01*
G01D02*
Y2291350D01*
G01X5624650Y2191000D02*
X5725000D01*
G01D02*
X5825350D01*
G01X5650000Y3627000D02*
Y3721000D01*
G01X5801200Y3975000D02*
X5875000Y3901200D01*
Y3204000D01*
G01X5650000Y3721000D02*
Y3815000D01*
G01X5556000Y3721000D02*
X5650000D01*
G01D02*
X5744000D01*
G01X5534000Y4850000D02*
X5801200Y4582800D01*
Y3975000D01*
G01D02*
X5650000D01*
G01X6488500Y2909030D02*
Y1438500D01*
X6250000Y1200000D01*
G01X6234500Y3190970D02*
X6302670D01*
X6302680Y3190980D01*
X6690430D01*
G01X6234500Y3498850D02*
Y3190970D01*
G01X6350000Y3624650D02*
Y3725000D01*
G01X6249650D02*
X6350000D01*
G01D02*
X6450350D01*
G01X7425000Y3491000D02*
Y4195500D01*
X7239000Y4381500D01*
M02*
