G04 ================== begin FILE IDENTIFICATION RECORD ==================*
G04 Layout Name:  C:/ORCADDATA/SEQUENTIALTIMER/allegro/SEQUENTIALTIMER.brd*
G04 Film Name:    Drill_Drawing*
G04 File Format:  Gerber RS274X*
G04 File Origin:  Cadence Allegro 16.6-B033*
G04 Origin Date:  Mon Feb 08 16:11:39 2021*
G04 *
G04 Layer:  MANUFACTURING/NCLEGEND-1-2*
G04 Layer:  BOARD GEOMETRY/OUTLINE*
G04 Layer:  BOARD GEOMETRY/DIMENSION*
G04 *
G04 Offset:    (0.0000 0.0000)*
G04 Mirror:    No*
G04 Mode:      Positive*
G04 Rotation:  0*
G04 FullContactRelief:  No*
G04 UndefLineWidth:     0.1000*
G04 ================== end FILE IDENTIFICATION RECORD ====================*
%FSLAX25Y25*MOMM*%
%IR0*IPPOS*OFA0.00000B0.00000*MIA0B0*SFA1.00000B1.00000*%
%AMMACRO14*
1,1,.1,.1651,0.0*
20,1,.1,.1651,0.0,-.1651,0.0,0.0*
1,1,.1,-.1651,0.0*
1,1,.1,0.0,.1651*
20,1,.1,0.0,.1651,0.0,-.1651,0.0*
1,1,.1,0.0,-.1651*
%
%ADD14MACRO14*%
%AMMACRO10*
1,1,.1,.657564,-1.5875*
20,1,.1,.657564,-1.5875,-.657564,-1.5875,0.0*
1,1,.1,-.657564,-1.5875*
20,1,.1,-.657564,-1.5875,-1.5875,-.657564,0.0*
1,1,.1,-1.5875,-.657564*
20,1,.1,-1.5875,-.657564,-1.5875,.657564,0.0*
1,1,.1,-1.5875,.657564*
20,1,.1,-1.5875,.657564,-.657564,1.5875,0.0*
1,1,.1,-.657564,1.5875*
20,1,.1,-.657564,1.5875,.657564,1.5875,0.0*
1,1,.1,.657564,1.5875*
20,1,.1,.657564,1.5875,1.5875,.657564,0.0*
1,1,.1,1.5875,.657564*
20,1,.1,1.5875,.657564,1.5875,-.657564,0.0*
1,1,.1,1.5875,-.657564*
20,1,.1,1.5875,-.657564,.657564,-1.5875,0.0*
1,1,.1,.657564,-1.5875*
%
%ADD10MACRO10*%
%AMMACRO12*
1,1,.1,.4445,.4445*
20,1,.1,.4445,.4445,.4445,-.4445,0.0*
1,1,.1,.4445,-.4445*
20,1,.1,.4445,-.4445,-.4445,-.4445,0.0*
1,1,.1,-.4445,-.4445*
20,1,.1,-.4445,-.4445,-.4445,.4445,0.0*
1,1,.1,-.4445,.4445*
20,1,.1,-.4445,.4445,.4445,.4445,0.0*
1,1,.1,.4445,.4445*
%
%ADD12MACRO12*%
%AMMACRO13*
1,1,.1,.4572,0.0*
20,1,.1,.4572,0.0,.2286,.395947,0.0*
1,1,.1,.2286,.395947*
20,1,.1,.2286,.395947,-.2286,.395947,0.0*
1,1,.1,-.2286,.395947*
20,1,.1,-.2286,.395947,-.4572,0.0,0.0*
1,1,.1,-.4572,0.0*
20,1,.1,-.4572,0.0,-.2286,-.395947,0.0*
1,1,.1,-.2286,-.395947*
20,1,.1,-.2286,-.395947,.2286,-.395947,0.0*
1,1,.1,.2286,-.395947*
20,1,.1,.2286,-.395947,.4572,0.0,0.0*
1,1,.1,.4572,0.0*
%
%ADD13MACRO13*%
%AMMACRO11*
1,1,.1,0.0,.5334*
20,1,.1,0.0,.5334,-.461938,.2667,0.0*
1,1,.1,-.461938,.2667*
20,1,.1,-.461938,.2667,-.461938,-.2667,0.0*
1,1,.1,-.461938,-.2667*
20,1,.1,-.461938,-.2667,0.0,-.5334,0.0*
1,1,.1,0.0,-.5334*
20,1,.1,0.0,-.5334,.461938,-.2667,0.0*
1,1,.1,.461938,-.2667*
20,1,.1,.461938,-.2667,.461938,.2667,0.0*
1,1,.1,.461938,.2667*
20,1,.1,.461938,.2667,0.0,.5334,0.0*
1,1,.1,0.0,.5334*
%
%ADD11MACRO11*%
%ADD15C,.1*%
G75*
%LPD*%
G75*
G54D10*
X500000Y500000D03*
Y5500000D03*
X1141730Y-5289310D03*
X8000000Y3000000D03*
G54D11*
X1141730Y-4575570D03*
X775000Y1200000D03*
Y2216000D03*
Y3825000D03*
Y4841000D03*
X2009000Y1200000D03*
X2250000Y2179000D03*
Y1925000D03*
X1775000Y2179000D03*
Y1925000D03*
X1550000Y3825000D03*
Y4841000D03*
X2725000Y2179000D03*
Y1925000D03*
X2375000Y3834000D03*
Y4850000D03*
X3025000Y1200000D03*
X3425000Y1184000D03*
Y2200000D03*
X3775000Y4129000D03*
Y3875000D03*
X3075000Y3825000D03*
Y4841000D03*
X3875000Y1184000D03*
X4375000Y2129000D03*
Y1875000D03*
X3875000Y2200000D03*
X4225000Y2500000D03*
Y3516000D03*
X4475000Y3859000D03*
Y4875000D03*
X5050000Y3850000D03*
Y4866000D03*
X5725000Y1175000D03*
Y2191000D03*
X5875000Y2950000D03*
Y3204000D03*
X5534000Y4850000D03*
X6250000Y1200000D03*
Y2216000D03*
X6350000Y3725000D03*
Y3979000D03*
X6550000Y4850000D03*
X7425000Y2475000D03*
Y3491000D03*
X8475000Y2500000D03*
Y3516000D03*
G54D12*
X1141730Y-3148090D03*
X7975000Y3725000D03*
G54D13*
X1141730Y-3861830D03*
X1425000Y1454000D03*
Y1200000D03*
X775000Y2896000D03*
Y3150000D03*
X3746500Y4445000D03*
X3492500Y4699000D03*
X3746500Y4953000D03*
X4375000Y1454000D03*
Y1200000D03*
X5050000Y1454000D03*
Y1200000D03*
Y2129000D03*
Y1875000D03*
X5650000Y3721000D03*
Y3975000D03*
X6900000Y2050000D03*
Y2304000D03*
Y3725000D03*
Y3979000D03*
X7239000Y4381500D03*
X6985000Y4635500D03*
X7239000Y4889500D03*
X7975000Y2050000D03*
Y2304000D03*
Y3979000D03*
G54D14*
X1141730Y-2434350D03*
X1865500Y2695670D03*
Y3505540D03*
X1965500Y3003550D03*
X2688500Y3103550D03*
X2815500Y3003550D03*
X3679680D03*
X3302000Y2984500D03*
X3765500Y2682540D03*
X4225000Y2827350D03*
X4382550Y2928550D03*
X5125000D03*
X4532550Y3028550D03*
X5582200Y3322650D03*
X6488500Y2909030D03*
X6690430Y3190980D03*
X6234500Y3498850D03*
Y3190970D03*
X7436100Y2100000D03*
G54D15*
G01X0Y0D02*
X8000000D01*
Y1500000D01*
X8600000D01*
G03X9000000Y1900000I0J400000D01*
G01Y4100000D01*
G03X8600000Y4500000I-400000J0D01*
G01X8000000D01*
Y6000000D01*
X0D01*
Y0D01*
G01X-908630Y3039410D02*
X-897360Y3054230D01*
X-887710Y3062700D01*
X-874840Y3066930D01*
X-863580Y3062700D01*
X-855540Y3054230D01*
X-849100Y3041530D01*
X-847490Y3026720D01*
X-849100Y3014010D01*
X-855540Y3001310D01*
X-865190Y2990730D01*
X-876450Y2986500D01*
X-889320Y2990730D01*
X-900580Y3003430D01*
X-907020Y3022480D01*
X-908630Y3043650D01*
X-905410Y3071160D01*
X-900580Y3085990D01*
X-892540Y3100800D01*
X-881280Y3111380D01*
X-870020Y3113500D01*
X-858760Y3109270D01*
X-850710Y3098680D01*
G01X-748520Y3113500D02*
X-761390Y3109270D01*
X-771040Y3098680D01*
X-777480Y3085990D01*
X-782300Y3069050D01*
X-783910Y3050000D01*
X-782300Y3030950D01*
X-777480Y3014010D01*
X-771040Y3001310D01*
X-761390Y2990730D01*
X-748520Y2986500D01*
X-735650Y2990730D01*
X-726000Y3001310D01*
X-719560Y3014010D01*
X-714740Y3030950D01*
X-713130Y3050000D01*
X-714740Y3069050D01*
X-719560Y3085990D01*
X-726000Y3098680D01*
X-735650Y3109270D01*
X-748520Y3113500D01*
G01X-254000Y0D02*
X-779000D01*
G01X-525000Y2891250D02*
Y0D01*
G01X-588500Y381000D02*
X-525000Y0D01*
X-461500Y381000D01*
X-588500D01*
G01X-428570Y3039410D02*
X-417300Y3054230D01*
X-407650Y3062700D01*
X-394780Y3066930D01*
X-383520Y3062700D01*
X-375480Y3054230D01*
X-369040Y3041530D01*
X-367430Y3026720D01*
X-369040Y3014010D01*
X-375480Y3001310D01*
X-385130Y2990730D01*
X-396390Y2986500D01*
X-409260Y2990730D01*
X-420520Y3003430D01*
X-426960Y3022480D01*
X-428570Y3043650D01*
X-425350Y3071160D01*
X-420520Y3085990D01*
X-412480Y3100800D01*
X-401220Y3111380D01*
X-389960Y3113500D01*
X-378700Y3109270D01*
X-370650Y3098680D01*
G01X-268460Y3113500D02*
X-281330Y3109270D01*
X-290980Y3098680D01*
X-297420Y3085990D01*
X-302240Y3069050D01*
X-303850Y3050000D01*
X-302240Y3030950D01*
X-297420Y3014010D01*
X-290980Y3001310D01*
X-281330Y2990730D01*
X-268460Y2986500D01*
X-255590Y2990730D01*
X-245940Y3001310D01*
X-239500Y3014010D01*
X-234680Y3030950D01*
X-233070Y3050000D01*
X-234680Y3069050D01*
X-239500Y3085990D01*
X-245940Y3098680D01*
X-255590Y3109270D01*
X-268460Y3113500D01*
G01X-525000Y3208750D02*
Y6000000D01*
G01X-494520Y2986500D02*
X-542780D01*
Y3113500D01*
X-494520D01*
G01X-171940Y2986500D02*
X-123680D01*
Y3113500D01*
X-171940D01*
G01X-461500Y5619000D02*
X-525000Y6000000D01*
X-588500Y5619000D01*
X-461500D01*
G01X-254000Y6000000D02*
X-779000D01*
G01X0Y-5646180D02*
Y0D01*
X12283440D01*
Y-5646180D01*
X0D01*
G01Y-4932440D02*
X12283440D01*
G01X0Y-4218700D02*
X12283440D01*
G01X0Y-3504960D02*
X12283440D01*
G01X0Y-2791220D02*
X12283440D01*
G01X279520Y-1839990D02*
Y-1522490D01*
X429140D01*
G01X374010Y-1675940D02*
X279520D01*
G01X622050Y-1522490D02*
X716530D01*
G01X669290D02*
Y-1839990D01*
G01X622050D02*
X716530D01*
G01X1007870Y-1681240D02*
X1086620D01*
Y-1776490D01*
X1062990Y-1808250D01*
X1035430Y-1829410D01*
X996060Y-1839990D01*
X956690Y-1829410D01*
X929130Y-1808250D01*
X905510Y-1776490D01*
X889760Y-1739450D01*
X881880Y-1697120D01*
Y-1660070D01*
X889760Y-1628330D01*
X905510Y-1591280D01*
X929130Y-1559530D01*
X952750Y-1538370D01*
X984250Y-1522490D01*
X1011810D01*
X1043300Y-1533070D01*
X1066930Y-1554240D01*
G01X1212600Y-1522490D02*
Y-1750030D01*
X1228340Y-1797670D01*
X1259840Y-1829410D01*
X1299210Y-1839990D01*
X1338580Y-1829410D01*
X1370080Y-1797670D01*
X1385820Y-1750030D01*
Y-1522490D01*
G01X1535430Y-1839990D02*
Y-1522490D01*
X1633850D01*
X1665350Y-1538370D01*
X1685040Y-1559530D01*
X1692910Y-1601870D01*
X1685040Y-1644200D01*
X1661410Y-1670650D01*
X1633850Y-1686540D01*
X1535430D01*
G01X1633850D02*
X1692910Y-1839990D01*
G01X2007870D02*
X1850390D01*
Y-1522490D01*
X2007870D01*
G01X1944880Y-1675940D02*
X1850390D01*
G01X0Y-2077480D02*
X12283440D01*
G01X0Y-1363740D02*
X12283440D01*
G01X0Y-650000D02*
X12283440D01*
G01X0Y6254000D02*
Y6779000D01*
G01X3603430Y6525000D02*
X0D01*
G01X381000Y6588500D02*
X0Y6525000D01*
X381000Y6461500D01*
Y6588500D01*
G01X1791330Y-1126250D02*
X1889760Y-808750D01*
X1988190Y-1126250D01*
G01X1952750Y-1015130D02*
X1826760D01*
G01X2125980Y-808750D02*
Y-1126250D01*
X2283460D01*
G01X2440940Y-808750D02*
Y-1126250D01*
X2598420D01*
G01X3062990Y-808750D02*
Y-1036290D01*
X3078730Y-1083930D01*
X3110230Y-1115670D01*
X3149600Y-1126250D01*
X3188970Y-1115670D01*
X3220470Y-1083930D01*
X3236210Y-1036290D01*
Y-808750D01*
G01X3374010Y-1126250D02*
Y-808750D01*
X3555110Y-1126250D01*
Y-808750D01*
G01X3732280D02*
X3826760D01*
G01X3779520D02*
Y-1126250D01*
G01X3732280D02*
X3826760D01*
G01X4094480Y-808750D02*
Y-1126250D01*
G01X4003930Y-808750D02*
X4185030D01*
G01X4326760Y-1083930D02*
X4358260Y-1110380D01*
X4393690Y-1126250D01*
X4425190D01*
X4456680Y-1110380D01*
X4480310Y-1083930D01*
X4492120Y-1046870D01*
X4484250Y-1009840D01*
X4464560Y-978090D01*
X4429120Y-956910D01*
X4381880Y-946330D01*
X4354320Y-925170D01*
X4342510Y-888130D01*
X4350390Y-851080D01*
X4370070Y-824630D01*
X4397630Y-808750D01*
X4425190D01*
X4452750Y-819330D01*
X4476370Y-845790D01*
G01X4940930Y-1126250D02*
X5039360Y-808750D01*
X5137790Y-1126250D01*
G01X5102350Y-1015130D02*
X4976360D01*
G01X5275580Y-1126250D02*
Y-808750D01*
X5374000D01*
X5405500Y-824630D01*
X5425190Y-845790D01*
X5433060Y-888130D01*
X5425190Y-930460D01*
X5401560Y-956910D01*
X5374000Y-972800D01*
X5275580D01*
G01X5374000D02*
X5433060Y-1126250D01*
G01X5748020D02*
X5590540D01*
Y-808750D01*
X5748020D01*
G01X5685030Y-962200D02*
X5590540D01*
G01X6251960Y-808750D02*
X6346440D01*
G01X6299200D02*
Y-1126250D01*
G01X6251960D02*
X6346440D01*
G01X6523610D02*
Y-808750D01*
X6704710Y-1126250D01*
Y-808750D01*
G01X7141710Y-1126250D02*
Y-808750D01*
X7244080Y-1073330D01*
X7346450Y-808750D01*
Y-1126250D01*
G01X7511800Y-808750D02*
X7606280D01*
G01X7559040D02*
Y-1126250D01*
G01X7511800D02*
X7606280D01*
G01X7795260Y-808750D02*
Y-1126250D01*
X7952740D01*
G01X8110220Y-808750D02*
Y-1126250D01*
X8267700D01*
G01X8456680Y-808750D02*
X8551160D01*
G01X8503920D02*
Y-1126250D01*
G01X8456680D02*
X8551160D01*
G01X8716510D02*
Y-808750D01*
X8818880Y-1073330D01*
X8921250Y-808750D01*
Y-1126250D01*
G01X9212580D02*
X9055100D01*
Y-808750D01*
X9212580D01*
G01X9149590Y-962200D02*
X9055100D01*
G01X9448800Y-808750D02*
Y-1126250D01*
G01X9358250Y-808750D02*
X9539350D01*
G01X9842500Y-1126250D02*
X9685020D01*
Y-808750D01*
X9842500D01*
G01X9779510Y-962200D02*
X9685020D01*
G01X9999980Y-1126250D02*
Y-808750D01*
X10098400D01*
X10129900Y-824630D01*
X10149590Y-845790D01*
X10157460Y-888130D01*
X10149590Y-930460D01*
X10125960Y-956910D01*
X10098400Y-972800D01*
X9999980D01*
G01X10098400D02*
X10157460Y-1126250D01*
G01X10311000Y-1083930D02*
X10342500Y-1110380D01*
X10377930Y-1126250D01*
X10409430D01*
X10440920Y-1110380D01*
X10464550Y-1083930D01*
X10476360Y-1046870D01*
X10468490Y-1009840D01*
X10448800Y-978090D01*
X10413360Y-956910D01*
X10366120Y-946330D01*
X10338560Y-925170D01*
X10326750Y-888130D01*
X10334630Y-851080D01*
X10354310Y-824630D01*
X10381870Y-808750D01*
X10409430D01*
X10436990Y-819330D01*
X10460610Y-845790D01*
G01X2118110Y-476250D02*
Y-158750D01*
X2196840D01*
X2228340Y-174630D01*
X2251960Y-195790D01*
X2271650Y-227540D01*
X2287400Y-264590D01*
X2291330Y-317500D01*
X2287400Y-370420D01*
X2271650Y-407460D01*
X2251960Y-439220D01*
X2228340Y-460380D01*
X2196840Y-476250D01*
X2118110D01*
G01X2440940D02*
Y-158750D01*
X2539360D01*
X2570860Y-174630D01*
X2590550Y-195790D01*
X2598420Y-238130D01*
X2590550Y-280460D01*
X2566920Y-306910D01*
X2539360Y-322800D01*
X2440940D01*
G01X2539360D02*
X2598420Y-476250D01*
G01X2787400Y-158750D02*
X2881880D01*
G01X2834640D02*
Y-476250D01*
G01X2787400D02*
X2881880D01*
G01X3070860Y-158750D02*
Y-476250D01*
X3228340D01*
G01X3385820Y-158750D02*
Y-476250D01*
X3543300D01*
G01X4181090Y-185210D02*
X4157470Y-169330D01*
X4129920Y-158750D01*
X4098420D01*
X4062980Y-174630D01*
X4035430Y-201080D01*
X4015740Y-232840D01*
X3999990Y-285750D01*
X3996050Y-333380D01*
X4003930Y-381000D01*
X4015740Y-412750D01*
X4039360Y-444510D01*
X4066920Y-465670D01*
X4094480Y-476250D01*
X4122040D01*
X4149600Y-465670D01*
X4173220Y-449800D01*
X4192910Y-428640D01*
G01X4326760Y-476250D02*
Y-158750D01*
G01X4492120D02*
Y-476250D01*
G01Y-317500D02*
X4326760D01*
G01X4625970Y-476250D02*
X4724400Y-158750D01*
X4822830Y-476250D01*
G01X4787390Y-365130D02*
X4661400D01*
G01X4960620Y-476250D02*
Y-158750D01*
X5059040D01*
X5090540Y-174630D01*
X5110230Y-195790D01*
X5118100Y-238130D01*
X5110230Y-280460D01*
X5086600Y-306910D01*
X5059040Y-322800D01*
X4960620D01*
G01X5059040D02*
X5118100Y-476250D01*
G01X5354320Y-158750D02*
Y-476250D01*
G01X5263770Y-158750D02*
X5444870D01*
G01X5669280Y-486830D02*
X5661400Y-481540D01*
Y-470960D01*
X5669280Y-465670D01*
X5677160Y-470960D01*
Y-481540D01*
X5669280Y-486830D01*
G01Y-343970D02*
X5661400Y-338670D01*
Y-328090D01*
X5669280Y-322800D01*
X5677160Y-328090D01*
Y-338670D01*
X5669280Y-343970D01*
G01X6299200Y-158750D02*
Y-476250D01*
G01X6208650Y-158750D02*
X6389750D01*
G01X6614160Y-476250D02*
X6582660Y-470960D01*
X6555110Y-449800D01*
X6531480Y-418040D01*
X6515730Y-381000D01*
X6507860Y-338670D01*
Y-296330D01*
X6515730Y-254000D01*
X6531480Y-216960D01*
X6555110Y-185210D01*
X6582660Y-164040D01*
X6614160Y-158750D01*
X6645650Y-164040D01*
X6673210Y-185210D01*
X6696840Y-216960D01*
X6712590Y-254000D01*
X6720460Y-296330D01*
Y-338670D01*
X6712590Y-381000D01*
X6696840Y-418040D01*
X6673210Y-449800D01*
X6645650Y-470960D01*
X6614160Y-476250D01*
G01X6850380D02*
Y-158750D01*
X6944870D01*
X6976360Y-174630D01*
X6999990Y-211670D01*
X7007860Y-254000D01*
X6999990Y-296330D01*
X6980300Y-328090D01*
X6944870Y-343970D01*
X6850380D01*
G01X7559040Y-158750D02*
Y-476250D01*
G01X7503920Y-264590D02*
X7614160D01*
G01X7874000Y-476250D02*
X7850380Y-470960D01*
X7826760Y-449800D01*
X7811000Y-412750D01*
X7803130Y-370420D01*
X7811000Y-328090D01*
X7826760Y-291040D01*
X7850380Y-269880D01*
X7874000Y-264590D01*
X7897620Y-269880D01*
X7921240Y-291040D01*
X7936990Y-328090D01*
X7940930Y-370420D01*
X7936990Y-412750D01*
X7921240Y-449800D01*
X7897620Y-470960D01*
X7874000Y-476250D01*
G01X8535410Y-306910D02*
X8551160Y-291040D01*
X8562970Y-264590D01*
X8570850Y-227540D01*
X8562970Y-195790D01*
X8547230Y-174630D01*
X8519670Y-158750D01*
X8413370D01*
Y-476250D01*
X8543290D01*
X8570850Y-455090D01*
X8586600Y-423330D01*
X8594470Y-386290D01*
X8586600Y-349260D01*
X8562970Y-317500D01*
X8535410Y-306910D01*
X8413370D01*
G01X8818880Y-476250D02*
X8787380Y-470960D01*
X8759830Y-449800D01*
X8736200Y-418040D01*
X8720450Y-381000D01*
X8712580Y-338670D01*
Y-296330D01*
X8720450Y-254000D01*
X8736200Y-216960D01*
X8759830Y-185210D01*
X8787380Y-164040D01*
X8818880Y-158750D01*
X8850370Y-164040D01*
X8877930Y-185210D01*
X8901560Y-216960D01*
X8917310Y-254000D01*
X8925180Y-296330D01*
Y-338670D01*
X8917310Y-381000D01*
X8901560Y-418040D01*
X8877930Y-449800D01*
X8850370Y-470960D01*
X8818880Y-476250D01*
G01X9133840Y-158750D02*
Y-476250D01*
G01X9043290Y-158750D02*
X9224390D01*
G01X9448800D02*
Y-476250D01*
G01X9358250Y-158750D02*
X9539350D01*
G01X9763760Y-476250D02*
X9732260Y-470960D01*
X9704710Y-449800D01*
X9681080Y-418040D01*
X9665330Y-381000D01*
X9657460Y-338670D01*
Y-296330D01*
X9665330Y-254000D01*
X9681080Y-216960D01*
X9704710Y-185210D01*
X9732260Y-164040D01*
X9763760Y-158750D01*
X9795250Y-164040D01*
X9822810Y-185210D01*
X9846440Y-216960D01*
X9862190Y-254000D01*
X9870060Y-296330D01*
Y-338670D01*
X9862190Y-381000D01*
X9846440Y-418040D01*
X9822810Y-449800D01*
X9795250Y-470960D01*
X9763760Y-476250D01*
G01X9976350D02*
Y-158750D01*
X10078720Y-423330D01*
X10181090Y-158750D01*
Y-476250D01*
G01X2283460Y-1363740D02*
Y-5646180D01*
G01X3968500Y-5384560D02*
X3992110Y-5421610D01*
X4023610Y-5442770D01*
X4059050Y-5448060D01*
X4090550Y-5442770D01*
X4122040Y-5416320D01*
X4141720Y-5384560D01*
X4145660Y-5352810D01*
X4137790Y-5315780D01*
X4110230Y-5289310D01*
X4082670Y-5278720D01*
X4047230D01*
G01X4082670D02*
X4106290Y-5262850D01*
X4125980Y-5236400D01*
X4133850Y-5204650D01*
X4125980Y-5172890D01*
X4106290Y-5146440D01*
X4070860Y-5130560D01*
X4035430Y-5135850D01*
X3999990Y-5157020D01*
G01X4370070Y-5458640D02*
X4362190Y-5453350D01*
Y-5442770D01*
X4370070Y-5437480D01*
X4377950Y-5442770D01*
Y-5453350D01*
X4370070Y-5458640D01*
G01X4685030Y-5448060D02*
Y-5130560D01*
X4637790Y-5194060D01*
G01Y-5448060D02*
X4732270D01*
G01X4992110D02*
X4999990Y-5379270D01*
X5011800Y-5321070D01*
X5027550Y-5268140D01*
X5047230Y-5209940D01*
X5078730Y-5130560D01*
X4921250D01*
G01X5228340Y-5400450D02*
X5251950Y-5426900D01*
X5279510Y-5442770D01*
X5314950Y-5448060D01*
X5350390Y-5437480D01*
X5377940Y-5416320D01*
X5397630Y-5379270D01*
X5401560Y-5336940D01*
X5393690Y-5294610D01*
X5374000Y-5268140D01*
X5346440Y-5246980D01*
X5318890Y-5241690D01*
X5291330Y-5246980D01*
X5255900Y-5268140D01*
X5267710Y-5130560D01*
X5374000D01*
G01X3897630Y-4734320D02*
Y-4416820D01*
X3850390Y-4480320D01*
G01Y-4734320D02*
X3944870D01*
G01X4212590Y-4744900D02*
X4204710Y-4739610D01*
Y-4729030D01*
X4212590Y-4723740D01*
X4220470Y-4729030D01*
Y-4739610D01*
X4212590Y-4744900D01*
G01X4527550Y-4416820D02*
X4496050Y-4427400D01*
X4472430Y-4453860D01*
X4456680Y-4485610D01*
X4444870Y-4527950D01*
X4440940Y-4575570D01*
X4444870Y-4623200D01*
X4456680Y-4665530D01*
X4472430Y-4697290D01*
X4496050Y-4723740D01*
X4527550Y-4734320D01*
X4559040Y-4723740D01*
X4582670Y-4697290D01*
X4598420Y-4665530D01*
X4610230Y-4623200D01*
X4614160Y-4575570D01*
X4610230Y-4527950D01*
X4598420Y-4485610D01*
X4582670Y-4453860D01*
X4559040Y-4427400D01*
X4527550Y-4416820D01*
G01X4767700Y-4602040D02*
X4795270Y-4564980D01*
X4818890Y-4543820D01*
X4850390Y-4533240D01*
X4877950Y-4543820D01*
X4897630Y-4564980D01*
X4913380Y-4596740D01*
X4917320Y-4633780D01*
X4913380Y-4665530D01*
X4897630Y-4697290D01*
X4874000Y-4723740D01*
X4846450Y-4734320D01*
X4814950Y-4723740D01*
X4787390Y-4692000D01*
X4771640Y-4644360D01*
X4767700Y-4591450D01*
X4775580Y-4522660D01*
X4787390Y-4485610D01*
X4807070Y-4448570D01*
X4834630Y-4422110D01*
X4862190Y-4416820D01*
X4889750Y-4427400D01*
X4909440Y-4453860D01*
G01X5082660Y-4602040D02*
X5110230Y-4564980D01*
X5133850Y-4543820D01*
X5165350Y-4533240D01*
X5192910Y-4543820D01*
X5212590Y-4564980D01*
X5228340Y-4596740D01*
X5232280Y-4633780D01*
X5228340Y-4665530D01*
X5212590Y-4697290D01*
X5188960Y-4723740D01*
X5161410Y-4734320D01*
X5129910Y-4723740D01*
X5102350Y-4692000D01*
X5086600Y-4644360D01*
X5082660Y-4591450D01*
X5090540Y-4522660D01*
X5102350Y-4485610D01*
X5122030Y-4448570D01*
X5149590Y-4422110D01*
X5177150Y-4416820D01*
X5204710Y-4427400D01*
X5224400Y-4453860D01*
G01X5472430Y-4734320D02*
X5499990Y-4729030D01*
X5531480Y-4713160D01*
X5551170Y-4686710D01*
X5559040Y-4649650D01*
X5551170Y-4612620D01*
X5527550Y-4580870D01*
X5492110Y-4564980D01*
X5452750D01*
X5429120Y-4554400D01*
X5409430Y-4527950D01*
X5401560Y-4490910D01*
X5413380Y-4453860D01*
X5440930Y-4427400D01*
X5472430Y-4416820D01*
X5503920Y-4427400D01*
X5531480Y-4453860D01*
X5543300Y-4490910D01*
X5535420Y-4527950D01*
X5515740Y-4554400D01*
X5492110Y-4564980D01*
X5452750D01*
X5417310Y-4580870D01*
X5393690Y-4612620D01*
X5385820Y-4649650D01*
X5393690Y-4686710D01*
X5413380Y-4713160D01*
X5444870Y-4729030D01*
X5472430Y-4734320D01*
G01X3897630Y-3703080D02*
X3866130Y-3713660D01*
X3842510Y-3740120D01*
X3826760Y-3771870D01*
X3814950Y-3814210D01*
X3811020Y-3861830D01*
X3814950Y-3909460D01*
X3826760Y-3951790D01*
X3842510Y-3983550D01*
X3866130Y-4010000D01*
X3897630Y-4020580D01*
X3929120Y-4010000D01*
X3952750Y-3983550D01*
X3968500Y-3951790D01*
X3980310Y-3909460D01*
X3984240Y-3861830D01*
X3980310Y-3814210D01*
X3968500Y-3771870D01*
X3952750Y-3740120D01*
X3929120Y-3713660D01*
X3897630Y-3703080D01*
G01X4212590Y-4031160D02*
X4204710Y-4025870D01*
Y-4015290D01*
X4212590Y-4010000D01*
X4220470Y-4015290D01*
Y-4025870D01*
X4212590Y-4031160D01*
G01X4460620Y-3983550D02*
X4488180Y-4010000D01*
X4519670Y-4020580D01*
X4551170Y-4010000D01*
X4578730Y-3978260D01*
X4598420Y-3930620D01*
X4606290Y-3883000D01*
Y-3824790D01*
X4598420Y-3777170D01*
X4578730Y-3734830D01*
X4555110Y-3713660D01*
X4527550Y-3703080D01*
X4496050Y-3713660D01*
X4472430Y-3734830D01*
X4456680Y-3766580D01*
X4448810Y-3808920D01*
X4456680Y-3845950D01*
X4476370Y-3883000D01*
X4499990Y-3904170D01*
X4527550Y-3909460D01*
X4559040Y-3898880D01*
X4582670Y-3872420D01*
X4606290Y-3824790D01*
G01X4842510Y-4020580D02*
Y-3703080D01*
X4795270Y-3766580D01*
G01Y-4020580D02*
X4889750D01*
G01X5204710D02*
Y-3703080D01*
X5059040Y-3930620D01*
X5255900D01*
G01X5519670Y-4020580D02*
Y-3703080D01*
X5374000Y-3930620D01*
X5570860D01*
G01X4055110Y-2989340D02*
X4023610Y-2999920D01*
X3999990Y-3026380D01*
X3984240Y-3058130D01*
X3972430Y-3100470D01*
X3968500Y-3148090D01*
X3972430Y-3195720D01*
X3984240Y-3238050D01*
X3999990Y-3269810D01*
X4023610Y-3296260D01*
X4055110Y-3306840D01*
X4086600Y-3296260D01*
X4110230Y-3269810D01*
X4125980Y-3238050D01*
X4137790Y-3195720D01*
X4141720Y-3148090D01*
X4137790Y-3100470D01*
X4125980Y-3058130D01*
X4110230Y-3026380D01*
X4086600Y-2999920D01*
X4055110Y-2989340D01*
G01X4370070Y-3317420D02*
X4362190Y-3312130D01*
Y-3301550D01*
X4370070Y-3296260D01*
X4377950Y-3301550D01*
Y-3312130D01*
X4370070Y-3317420D01*
G01X4685030Y-3306840D02*
X4712590Y-3301550D01*
X4744080Y-3285680D01*
X4763770Y-3259230D01*
X4771640Y-3222170D01*
X4763770Y-3185140D01*
X4740150Y-3153390D01*
X4704710Y-3137500D01*
X4665350D01*
X4641720Y-3126920D01*
X4622030Y-3100470D01*
X4614160Y-3063430D01*
X4625980Y-3026380D01*
X4653530Y-2999920D01*
X4685030Y-2989340D01*
X4716520Y-2999920D01*
X4744080Y-3026380D01*
X4755900Y-3063430D01*
X4748020Y-3100470D01*
X4728340Y-3126920D01*
X4704710Y-3137500D01*
X4665350D01*
X4629910Y-3153390D01*
X4606290Y-3185140D01*
X4598420Y-3222170D01*
X4606290Y-3259230D01*
X4625980Y-3285680D01*
X4657470Y-3301550D01*
X4685030Y-3306840D01*
G01X4999990D02*
X5027550Y-3301550D01*
X5059040Y-3285680D01*
X5078730Y-3259230D01*
X5086600Y-3222170D01*
X5078730Y-3185140D01*
X5055110Y-3153390D01*
X5019670Y-3137500D01*
X4980310D01*
X4956680Y-3126920D01*
X4936990Y-3100470D01*
X4929120Y-3063430D01*
X4940940Y-3026380D01*
X4968490Y-2999920D01*
X4999990Y-2989340D01*
X5031480Y-2999920D01*
X5059040Y-3026380D01*
X5070860Y-3063430D01*
X5062980Y-3100470D01*
X5043300Y-3126920D01*
X5019670Y-3137500D01*
X4980310D01*
X4944870Y-3153390D01*
X4921250Y-3185140D01*
X4913380Y-3222170D01*
X4921250Y-3259230D01*
X4940940Y-3285680D01*
X4972430Y-3301550D01*
X4999990Y-3306840D01*
G01X5248020Y-3269810D02*
X5275580Y-3296260D01*
X5307070Y-3306840D01*
X5338570Y-3296260D01*
X5366130Y-3264520D01*
X5385820Y-3216880D01*
X5393690Y-3169260D01*
Y-3111050D01*
X5385820Y-3063430D01*
X5366130Y-3021090D01*
X5342510Y-2999920D01*
X5314950Y-2989340D01*
X5283450Y-2999920D01*
X5259830Y-3021090D01*
X5244080Y-3052840D01*
X5236210Y-3095180D01*
X5244080Y-3132210D01*
X5263770Y-3169260D01*
X5287390Y-3190430D01*
X5314950Y-3195720D01*
X5346440Y-3185140D01*
X5370070Y-3158680D01*
X5393690Y-3111050D01*
G01X3897630Y-2275600D02*
X3866130Y-2286180D01*
X3842510Y-2312640D01*
X3826760Y-2344390D01*
X3814950Y-2386730D01*
X3811020Y-2434350D01*
X3814950Y-2481980D01*
X3826760Y-2524310D01*
X3842510Y-2556070D01*
X3866130Y-2582520D01*
X3897630Y-2593100D01*
X3929120Y-2582520D01*
X3952750Y-2556070D01*
X3968500Y-2524310D01*
X3980310Y-2481980D01*
X3984240Y-2434350D01*
X3980310Y-2386730D01*
X3968500Y-2344390D01*
X3952750Y-2312640D01*
X3929120Y-2286180D01*
X3897630Y-2275600D01*
G01X4212590Y-2603680D02*
X4204710Y-2598390D01*
Y-2587810D01*
X4212590Y-2582520D01*
X4220470Y-2587810D01*
Y-2598390D01*
X4212590Y-2603680D01*
G01X4440940Y-2529600D02*
X4464550Y-2566650D01*
X4496050Y-2587810D01*
X4531490Y-2593100D01*
X4562990Y-2587810D01*
X4594480Y-2561360D01*
X4614160Y-2529600D01*
X4618100Y-2497850D01*
X4610230Y-2460820D01*
X4582670Y-2434350D01*
X4555110Y-2423760D01*
X4519670D01*
G01X4555110D02*
X4578730Y-2407890D01*
X4598420Y-2381440D01*
X4606290Y-2349690D01*
X4598420Y-2317930D01*
X4578730Y-2291480D01*
X4543300Y-2275600D01*
X4507870Y-2280890D01*
X4472430Y-2302060D01*
G01X4755900Y-2529600D02*
X4779510Y-2566650D01*
X4811010Y-2587810D01*
X4846450Y-2593100D01*
X4877950Y-2587810D01*
X4909440Y-2561360D01*
X4929120Y-2529600D01*
X4933060Y-2497850D01*
X4925190Y-2460820D01*
X4897630Y-2434350D01*
X4870070Y-2423760D01*
X4834630D01*
G01X4870070D02*
X4893690Y-2407890D01*
X4913380Y-2381440D01*
X4921250Y-2349690D01*
X4913380Y-2317930D01*
X4893690Y-2291480D01*
X4858260Y-2275600D01*
X4822830Y-2280890D01*
X4787390Y-2302060D01*
G01X5157470Y-2275600D02*
X5125970Y-2286180D01*
X5102350Y-2312640D01*
X5086600Y-2344390D01*
X5074790Y-2386730D01*
X5070860Y-2434350D01*
X5074790Y-2481980D01*
X5086600Y-2524310D01*
X5102350Y-2556070D01*
X5125970Y-2582520D01*
X5157470Y-2593100D01*
X5188960Y-2582520D01*
X5212590Y-2556070D01*
X5228340Y-2524310D01*
X5240150Y-2481980D01*
X5244080Y-2434350D01*
X5240150Y-2386730D01*
X5228340Y-2344390D01*
X5212590Y-2312640D01*
X5188960Y-2286180D01*
X5157470Y-2275600D01*
G01X5397620Y-2328520D02*
X5421250Y-2296770D01*
X5448810Y-2280890D01*
X5480310Y-2275600D01*
X5519670Y-2286180D01*
X5547240Y-2312640D01*
X5555110Y-2344390D01*
X5551170Y-2376150D01*
X5535420Y-2402600D01*
X5456680Y-2455520D01*
X5421250Y-2492560D01*
X5397620Y-2545490D01*
X5389750Y-2593100D01*
X5555110D01*
G01X4129910Y-1797670D02*
X4161410Y-1824120D01*
X4196840Y-1839990D01*
X4228340D01*
X4259830Y-1824120D01*
X4283460Y-1797670D01*
X4295270Y-1760610D01*
X4287400Y-1723580D01*
X4267710Y-1691830D01*
X4232270Y-1670650D01*
X4185030Y-1660070D01*
X4157470Y-1638910D01*
X4145660Y-1601870D01*
X4153540Y-1564820D01*
X4173220Y-1538370D01*
X4200780Y-1522490D01*
X4228340D01*
X4255900Y-1533070D01*
X4279520Y-1559530D01*
G01X4480310Y-1522490D02*
X4574790D01*
G01X4527550D02*
Y-1839990D01*
G01X4480310D02*
X4574790D01*
G01X4767700Y-1522490D02*
X4917320D01*
X4767700Y-1839990D01*
X4917320D01*
G01X5236210D02*
X5078730D01*
Y-1522490D01*
X5236210D01*
G01X5173220Y-1675940D02*
X5078730D01*
G01X3746940Y6461500D02*
X3758200Y6463620D01*
X3771070Y6469960D01*
X3779110Y6480550D01*
X3782330Y6495370D01*
X3779110Y6510180D01*
X3769460Y6522880D01*
X3754980Y6529230D01*
X3738900D01*
X3729240Y6533470D01*
X3721200Y6544050D01*
X3717980Y6558870D01*
X3722810Y6573680D01*
X3734070Y6584270D01*
X3746940Y6588500D01*
X3759810Y6584270D01*
X3771070Y6573680D01*
X3775900Y6558870D01*
X3772680Y6544050D01*
X3764640Y6533470D01*
X3754980Y6529230D01*
X3738900D01*
X3724420Y6522880D01*
X3714770Y6510180D01*
X3711550Y6495370D01*
X3714770Y6480550D01*
X3722810Y6469960D01*
X3735680Y6463620D01*
X3746940Y6461500D01*
G01X3876480Y6588500D02*
X3863610Y6584270D01*
X3853960Y6573680D01*
X3847520Y6560990D01*
X3842700Y6544050D01*
X3841090Y6525000D01*
X3842700Y6505950D01*
X3847520Y6489010D01*
X3853960Y6476310D01*
X3863610Y6465730D01*
X3876480Y6461500D01*
X3889350Y6465730D01*
X3899000Y6476310D01*
X3905440Y6489010D01*
X3910260Y6505950D01*
X3911870Y6525000D01*
X3910260Y6544050D01*
X3905440Y6560990D01*
X3899000Y6573680D01*
X3889350Y6584270D01*
X3876480Y6588500D01*
G01X4227000Y6461500D02*
X4238260Y6463620D01*
X4251130Y6469960D01*
X4259170Y6480550D01*
X4262390Y6495370D01*
X4259170Y6510180D01*
X4249520Y6522880D01*
X4235040Y6529230D01*
X4218960D01*
X4209300Y6533470D01*
X4201260Y6544050D01*
X4198040Y6558870D01*
X4202870Y6573680D01*
X4214130Y6584270D01*
X4227000Y6588500D01*
X4239870Y6584270D01*
X4251130Y6573680D01*
X4255960Y6558870D01*
X4252740Y6544050D01*
X4244700Y6533470D01*
X4235040Y6529230D01*
X4218960D01*
X4204480Y6522880D01*
X4194830Y6510180D01*
X4191610Y6495370D01*
X4194830Y6480550D01*
X4202870Y6469960D01*
X4215740Y6463620D01*
X4227000Y6461500D01*
G01X4356540Y6588500D02*
X4343670Y6584270D01*
X4334020Y6573680D01*
X4327580Y6560990D01*
X4322760Y6544050D01*
X4321150Y6525000D01*
X4322760Y6505950D01*
X4327580Y6489010D01*
X4334020Y6476310D01*
X4343670Y6465730D01*
X4356540Y6461500D01*
X4369410Y6465730D01*
X4379060Y6476310D01*
X4385500Y6489010D01*
X4390320Y6505950D01*
X4391930Y6525000D01*
X4390320Y6544050D01*
X4385500Y6560990D01*
X4379060Y6573680D01*
X4369410Y6584270D01*
X4356540Y6588500D01*
G01X4130480Y6461500D02*
X4082220D01*
Y6588500D01*
X4130480D01*
G01X4596570Y6525000D02*
X8000000D01*
G01X4453060Y6461500D02*
X4501320D01*
Y6588500D01*
X4453060D01*
G01X7192900Y-5448060D02*
Y-5130560D01*
X7374000Y-5448060D01*
Y-5130560D01*
G01X7598410Y-5448060D02*
X7566910Y-5442770D01*
X7539360Y-5421610D01*
X7515730Y-5389850D01*
X7499980Y-5352810D01*
X7492110Y-5310480D01*
Y-5268140D01*
X7499980Y-5225810D01*
X7515730Y-5188770D01*
X7539360Y-5157020D01*
X7566910Y-5135850D01*
X7598410Y-5130560D01*
X7629900Y-5135850D01*
X7657460Y-5157020D01*
X7681090Y-5188770D01*
X7696840Y-5225810D01*
X7704710Y-5268140D01*
Y-5310480D01*
X7696840Y-5352810D01*
X7681090Y-5389850D01*
X7657460Y-5421610D01*
X7629900Y-5442770D01*
X7598410Y-5448060D01*
G01X7822820D02*
Y-5130560D01*
X8003920Y-5448060D01*
Y-5130560D01*
G01X8177150Y-5342230D02*
X8279510D01*
G01X8464550Y-5448060D02*
Y-5130560D01*
X8559040D01*
X8590530Y-5146440D01*
X8614160Y-5183480D01*
X8622030Y-5225810D01*
X8614160Y-5268140D01*
X8594470Y-5299900D01*
X8559040Y-5315780D01*
X8464550D01*
G01X8779510Y-5130560D02*
Y-5448060D01*
X8936990D01*
G01X9074780D02*
X9173210Y-5130560D01*
X9271640Y-5448060D01*
G01X9236200Y-5336940D02*
X9110210D01*
G01X9488170Y-5130560D02*
Y-5448060D01*
G01X9397620Y-5130560D02*
X9578720D01*
G01X9881870Y-5448060D02*
X9724390D01*
Y-5130560D01*
X9881870D01*
G01X9818880Y-5284010D02*
X9724390D01*
G01X10031480Y-5448060D02*
Y-5130560D01*
X10110210D01*
X10141710Y-5146440D01*
X10165330Y-5167600D01*
X10185020Y-5199350D01*
X10200770Y-5236400D01*
X10204700Y-5289310D01*
X10200770Y-5342230D01*
X10185020Y-5379270D01*
X10165330Y-5411030D01*
X10141710Y-5432190D01*
X10110210Y-5448060D01*
X10031480D01*
G01X7086600Y-1363740D02*
Y-5646180D01*
G01X7834630Y-4734320D02*
Y-4416820D01*
X7929120D01*
X7960610Y-4432700D01*
X7984240Y-4469740D01*
X7992110Y-4512070D01*
X7984240Y-4554400D01*
X7964550Y-4586160D01*
X7929120Y-4602040D01*
X7834630D01*
G01X8149590Y-4416820D02*
Y-4734320D01*
X8307070D01*
G01X8444860D02*
X8543290Y-4416820D01*
X8641720Y-4734320D01*
G01X8606280Y-4623200D02*
X8480290D01*
G01X8858250Y-4416820D02*
Y-4734320D01*
G01X8767700Y-4416820D02*
X8948800D01*
G01X9251950Y-4734320D02*
X9094470D01*
Y-4416820D01*
X9251950D01*
G01X9188960Y-4570270D02*
X9094470D01*
G01X9401560Y-4734320D02*
Y-4416820D01*
X9480290D01*
X9511790Y-4432700D01*
X9535410Y-4453860D01*
X9555100Y-4485610D01*
X9570850Y-4522660D01*
X9574780Y-4575570D01*
X9570850Y-4628490D01*
X9555100Y-4665530D01*
X9535410Y-4697290D01*
X9511790Y-4718450D01*
X9480290Y-4734320D01*
X9401560D01*
G01X7834630Y-4020580D02*
Y-3703080D01*
X7929120D01*
X7960610Y-3718960D01*
X7984240Y-3756000D01*
X7992110Y-3798330D01*
X7984240Y-3840660D01*
X7964550Y-3872420D01*
X7929120Y-3888300D01*
X7834630D01*
G01X8149590Y-3703080D02*
Y-4020580D01*
X8307070D01*
G01X8444860D02*
X8543290Y-3703080D01*
X8641720Y-4020580D01*
G01X8606280Y-3909460D02*
X8480290D01*
G01X8858250Y-3703080D02*
Y-4020580D01*
G01X8767700Y-3703080D02*
X8948800D01*
G01X9251950Y-4020580D02*
X9094470D01*
Y-3703080D01*
X9251950D01*
G01X9188960Y-3856530D02*
X9094470D01*
G01X9401560Y-4020580D02*
Y-3703080D01*
X9480290D01*
X9511790Y-3718960D01*
X9535410Y-3740120D01*
X9555100Y-3771870D01*
X9570850Y-3808920D01*
X9574780Y-3861830D01*
X9570850Y-3914750D01*
X9555100Y-3951790D01*
X9535410Y-3983550D01*
X9511790Y-4004710D01*
X9480290Y-4020580D01*
X9401560D01*
G01X7834630Y-3306840D02*
Y-2989340D01*
X7929120D01*
X7960610Y-3005220D01*
X7984240Y-3042260D01*
X7992110Y-3084590D01*
X7984240Y-3126920D01*
X7964550Y-3158680D01*
X7929120Y-3174560D01*
X7834630D01*
G01X8149590Y-2989340D02*
Y-3306840D01*
X8307070D01*
G01X8444860D02*
X8543290Y-2989340D01*
X8641720Y-3306840D01*
G01X8606280Y-3195720D02*
X8480290D01*
G01X8858250Y-2989340D02*
Y-3306840D01*
G01X8767700Y-2989340D02*
X8948800D01*
G01X9251950Y-3306840D02*
X9094470D01*
Y-2989340D01*
X9251950D01*
G01X9188960Y-3142790D02*
X9094470D01*
G01X9401560Y-3306840D02*
Y-2989340D01*
X9480290D01*
X9511790Y-3005220D01*
X9535410Y-3026380D01*
X9555100Y-3058130D01*
X9570850Y-3095180D01*
X9574780Y-3148090D01*
X9570850Y-3201010D01*
X9555100Y-3238050D01*
X9535410Y-3269810D01*
X9511790Y-3290970D01*
X9480290Y-3306840D01*
X9401560D01*
G01X7834630Y-2593100D02*
Y-2275600D01*
X7929120D01*
X7960610Y-2291480D01*
X7984240Y-2328520D01*
X7992110Y-2370850D01*
X7984240Y-2413180D01*
X7964550Y-2444940D01*
X7929120Y-2460820D01*
X7834630D01*
G01X8149590Y-2275600D02*
Y-2593100D01*
X8307070D01*
G01X8444860D02*
X8543290Y-2275600D01*
X8641720Y-2593100D01*
G01X8606280Y-2481980D02*
X8480290D01*
G01X8858250Y-2275600D02*
Y-2593100D01*
G01X8767700Y-2275600D02*
X8948800D01*
G01X9251950Y-2593100D02*
X9094470D01*
Y-2275600D01*
X9251950D01*
G01X9188960Y-2429050D02*
X9094470D01*
G01X9401560Y-2593100D02*
Y-2275600D01*
X9480290D01*
X9511790Y-2291480D01*
X9535410Y-2312640D01*
X9555100Y-2344390D01*
X9570850Y-2381440D01*
X9574780Y-2434350D01*
X9570850Y-2487270D01*
X9555100Y-2524310D01*
X9535410Y-2556070D01*
X9511790Y-2577230D01*
X9480290Y-2593100D01*
X9401560D01*
G01X7834630Y-1839990D02*
Y-1522490D01*
X7929120D01*
X7960610Y-1538370D01*
X7984240Y-1575410D01*
X7992110Y-1617740D01*
X7984240Y-1660070D01*
X7964550Y-1691830D01*
X7929120Y-1707710D01*
X7834630D01*
G01X8149590Y-1522490D02*
Y-1839990D01*
X8307070D01*
G01X8444860D02*
X8543290Y-1522490D01*
X8641720Y-1839990D01*
G01X8606280Y-1728870D02*
X8480290D01*
G01X8858250Y-1522490D02*
Y-1839990D01*
G01X8767700Y-1522490D02*
X8948800D01*
G01X9251950Y-1839990D02*
X9094470D01*
Y-1522490D01*
X9251950D01*
G01X9188960Y-1675940D02*
X9094470D01*
G01X9401560Y-1839990D02*
Y-1522490D01*
X9480290D01*
X9511790Y-1538370D01*
X9535410Y-1559530D01*
X9555100Y-1591280D01*
X9570850Y-1628330D01*
X9574780Y-1681240D01*
X9570850Y-1734160D01*
X9555100Y-1771200D01*
X9535410Y-1802960D01*
X9511790Y-1824120D01*
X9480290Y-1839990D01*
X9401560D01*
G01X8045910Y4989410D02*
X8057180Y5004230D01*
X8066830Y5012700D01*
X8079700Y5016930D01*
X8090960Y5012700D01*
X8099000Y5004230D01*
X8105440Y4991530D01*
X8107050Y4976720D01*
X8105440Y4964010D01*
X8099000Y4951310D01*
X8089350Y4940730D01*
X8078090Y4936500D01*
X8065220Y4940730D01*
X8053960Y4953430D01*
X8047520Y4972480D01*
X8045910Y4993650D01*
X8049130Y5021160D01*
X8053960Y5035990D01*
X8062000Y5050800D01*
X8073260Y5061380D01*
X8084520Y5063500D01*
X8095780Y5059270D01*
X8103830Y5048680D01*
G01X8000000Y4754000D02*
Y5254000D01*
G01X7932970Y5000000D02*
X8000000D01*
G01X7619000Y4936500D02*
X8000000Y5000000D01*
X7619000Y5063500D01*
Y4936500D01*
G01X8000000Y6254000D02*
Y6779000D01*
G01X7619000Y6461500D02*
X8000000Y6525000D01*
X7619000Y6588500D01*
Y6461500D01*
G01X9141620Y4666010D02*
X8899760Y4364850D01*
X9226220Y4571290D01*
X9141620Y4666010D01*
G01X8899760Y4364850D02*
X9097260Y4541250D01*
G01X8396430Y4989410D02*
X8407700Y5004230D01*
X8417350Y5012700D01*
X8430220Y5016930D01*
X8441480Y5012700D01*
X8449520Y5004230D01*
X8455960Y4991530D01*
X8457570Y4976720D01*
X8455960Y4964010D01*
X8449520Y4951310D01*
X8439870Y4940730D01*
X8428610Y4936500D01*
X8415740Y4940730D01*
X8404480Y4953430D01*
X8398040Y4972480D01*
X8396430Y4993650D01*
X8399650Y5021160D01*
X8404480Y5035990D01*
X8412520Y5050800D01*
X8423780Y5061380D01*
X8435040Y5063500D01*
X8446300Y5059270D01*
X8454350Y5048680D01*
G01X8600000Y4754000D02*
Y5254000D01*
G01X8667030Y5000000D02*
X8600000D01*
G01X8981000Y5063500D02*
X8600000Y5000000D01*
X8981000Y4936500D01*
Y5063500D01*
G01X8330480Y4936500D02*
X8282220D01*
Y5063500D01*
X8330480D01*
G01X8523520Y4936500D02*
X8571780D01*
Y5063500D01*
X8523520D01*
G01X8954540Y4636500D02*
Y4763500D01*
X8994750D01*
X9007620Y4757150D01*
X9015670Y4748680D01*
X9018880Y4731750D01*
X9015670Y4714820D01*
X9006010Y4704230D01*
X8994750Y4697880D01*
X8954540D01*
G01X8994750D02*
X9018880Y4636500D01*
G01X9135550D02*
Y4763500D01*
X9076030Y4672480D01*
X9156470D01*
G01X9254000Y1900000D02*
X9879000D01*
G01X9625000Y2966250D02*
Y1900000D01*
G01X9561500Y2281000D02*
X9625000Y1900000D01*
X9688500Y2281000D01*
X9561500D01*
G01X9241370Y3167330D02*
X9251030Y3180030D01*
X9262290Y3186380D01*
X9275160Y3188500D01*
X9291240Y3184270D01*
X9302510Y3173680D01*
X9305720Y3160990D01*
X9304110Y3148280D01*
X9297680Y3137700D01*
X9265510Y3116530D01*
X9251030Y3101720D01*
X9241370Y3080550D01*
X9238160Y3061500D01*
X9305720D01*
G01X9370910Y3167330D02*
X9380570Y3180030D01*
X9391830Y3186380D01*
X9404700Y3188500D01*
X9420780Y3184270D01*
X9432050Y3173680D01*
X9435260Y3160990D01*
X9433650Y3148280D01*
X9427220Y3137700D01*
X9395050Y3116530D01*
X9380570Y3101720D01*
X9370910Y3080550D01*
X9367700Y3061500D01*
X9435260D01*
G01X9721430Y3167330D02*
X9731090Y3180030D01*
X9742350Y3186380D01*
X9755220Y3188500D01*
X9771300Y3184270D01*
X9782570Y3173680D01*
X9785780Y3160990D01*
X9784170Y3148280D01*
X9777740Y3137700D01*
X9745570Y3116530D01*
X9731090Y3101720D01*
X9721430Y3080550D01*
X9718220Y3061500D01*
X9785780D01*
G01X9850970Y3167330D02*
X9860630Y3180030D01*
X9871890Y3186380D01*
X9884760Y3188500D01*
X9900840Y3184270D01*
X9912110Y3173680D01*
X9915320Y3160990D01*
X9913710Y3148280D01*
X9907280Y3137700D01*
X9875110Y3116530D01*
X9860630Y3101720D01*
X9850970Y3080550D01*
X9847760Y3061500D01*
X9915320D01*
G01X9625000Y3283750D02*
Y4100000D01*
G01X9655480Y3061500D02*
X9607220D01*
Y3188500D01*
X9655480D01*
G01X9254000Y4100000D02*
X9879000D01*
G01X9688500Y3719000D02*
X9625000Y4100000D01*
X9561500Y3719000D01*
X9688500D01*
G01X9486070Y4636500D02*
Y4763500D01*
X9426550Y4672480D01*
X9506990D01*
G01X9370250Y4636500D02*
X9321990D01*
Y4763500D01*
X9370250D01*
G01X9563290Y4636500D02*
X9611550D01*
Y4763500D01*
X9563290D01*
G01X10314940Y-1363740D02*
Y-5646180D01*
G01X9978060Y3061500D02*
X10026320D01*
Y3188500D01*
X9978060D01*
G01X11212580Y-5384560D02*
X11236190Y-5421610D01*
X11267690Y-5442770D01*
X11303130Y-5448060D01*
X11334630Y-5442770D01*
X11366120Y-5416320D01*
X11385800Y-5384560D01*
X11389740Y-5352810D01*
X11381870Y-5315780D01*
X11354310Y-5289310D01*
X11326750Y-5278720D01*
X11291310D01*
G01X11326750D02*
X11350370Y-5262850D01*
X11370060Y-5236400D01*
X11377930Y-5204650D01*
X11370060Y-5172890D01*
X11350370Y-5146440D01*
X11314940Y-5130560D01*
X11279510Y-5135850D01*
X11244070Y-5157020D01*
G01X11188950Y-4734320D02*
Y-4416820D01*
X11043280Y-4644360D01*
X11240140D01*
G01X11381860Y-4602040D02*
X11409430Y-4564980D01*
X11433050Y-4543820D01*
X11464550Y-4533240D01*
X11492110Y-4543820D01*
X11511790Y-4564980D01*
X11527540Y-4596740D01*
X11531480Y-4633780D01*
X11527540Y-4665530D01*
X11511790Y-4697290D01*
X11488160Y-4723740D01*
X11460610Y-4734320D01*
X11429110Y-4723740D01*
X11401550Y-4692000D01*
X11385800Y-4644360D01*
X11381860Y-4591450D01*
X11389740Y-4522660D01*
X11401550Y-4485610D01*
X11421230Y-4448570D01*
X11448790Y-4422110D01*
X11476350Y-4416820D01*
X11503910Y-4427400D01*
X11523600Y-4453860D01*
G01X11066900Y-3756000D02*
X11090530Y-3724250D01*
X11118090Y-3708370D01*
X11149590Y-3703080D01*
X11188950Y-3713660D01*
X11216520Y-3740120D01*
X11224390Y-3771870D01*
X11220450Y-3803630D01*
X11204700Y-3830080D01*
X11125960Y-3883000D01*
X11090530Y-3920040D01*
X11066900Y-3972970D01*
X11059030Y-4020580D01*
X11224390D01*
G01X11370060Y-3972970D02*
X11393670Y-3999420D01*
X11421230Y-4015290D01*
X11456670Y-4020580D01*
X11492110Y-4010000D01*
X11519660Y-3988840D01*
X11539350Y-3951790D01*
X11543280Y-3909460D01*
X11535410Y-3867130D01*
X11515720Y-3840660D01*
X11488160Y-3819500D01*
X11460610Y-3814210D01*
X11433050Y-3819500D01*
X11397620Y-3840660D01*
X11409430Y-3703080D01*
X11515720D01*
G01X11299190Y-3306840D02*
Y-2989340D01*
X11251950Y-3052840D01*
G01Y-3306840D02*
X11346430D01*
G01X11141710Y-2593100D02*
Y-2275600D01*
X11094470Y-2339100D01*
G01Y-2593100D02*
X11188950D01*
G01X11456670D02*
X11484230Y-2587810D01*
X11515720Y-2571940D01*
X11535410Y-2545490D01*
X11543280Y-2508430D01*
X11535410Y-2471400D01*
X11511790Y-2439650D01*
X11476350Y-2423760D01*
X11436990D01*
X11413360Y-2413180D01*
X11393670Y-2386730D01*
X11385800Y-2349690D01*
X11397620Y-2312640D01*
X11425170Y-2286180D01*
X11456670Y-2275600D01*
X11488160Y-2286180D01*
X11515720Y-2312640D01*
X11527540Y-2349690D01*
X11519660Y-2386730D01*
X11499980Y-2413180D01*
X11476350Y-2423760D01*
X11436990D01*
X11401550Y-2439650D01*
X11377930Y-2471400D01*
X11370060Y-2508430D01*
X11377930Y-2545490D01*
X11397620Y-2571940D01*
X11429110Y-2587810D01*
X11456670Y-2593100D01*
G01X10984230Y-1839990D02*
X10952730Y-1834700D01*
X10925180Y-1813540D01*
X10901550Y-1781780D01*
X10885800Y-1744740D01*
X10877930Y-1702410D01*
Y-1660070D01*
X10885800Y-1617740D01*
X10901550Y-1580700D01*
X10925180Y-1548950D01*
X10952730Y-1527780D01*
X10984230Y-1522490D01*
X11015720Y-1527780D01*
X11043280Y-1548950D01*
X11066910Y-1580700D01*
X11082660Y-1617740D01*
X11090530Y-1660070D01*
Y-1702410D01*
X11082660Y-1744740D01*
X11066910Y-1781780D01*
X11043280Y-1813540D01*
X11015720Y-1834700D01*
X10984230Y-1839990D01*
G01X11015720Y-1755320D02*
X11062970Y-1839990D01*
G01X11299190Y-1522490D02*
Y-1839990D01*
G01X11208640Y-1522490D02*
X11389740D01*
G01X11614150Y-1839990D02*
Y-1697120D01*
X11535410Y-1522490D01*
G01X11692890D02*
X11614150Y-1697120D01*
M02*
