G04 ================== begin FILE IDENTIFICATION RECORD ==================*
G04 Layout Name:  C:/ORCADDATA/SEQUENTIALTIMER/allegro/SEQUENTIALTIMER.brd*
G04 Film Name:    Silkscreen_Top*
G04 File Format:  Gerber RS274X*
G04 File Origin:  Cadence Allegro 16.6-B033*
G04 Origin Date:  Mon Feb 08 16:11:39 2021*
G04 *
G04 Layer:  REF DES/SILKSCREEN_TOP*
G04 Layer:  PACKAGE GEOMETRY/SILKSCREEN_TOP*
G04 Layer:  BOARD GEOMETRY/OUTLINE*
G04 Layer:  BOARD GEOMETRY/DIMENSION*
G04 *
G04 Offset:    (0.0000 0.0000)*
G04 Mirror:    No*
G04 Mode:      Positive*
G04 Rotation:  0*
G04 FullContactRelief:  No*
G04 UndefLineWidth:     0.1000*
G04 ================== end FILE IDENTIFICATION RECORD ====================*
%FSLAX25Y25*MOMM*%
%IR0*IPPOS*OFA0.00000B0.00000*MIA0B0*SFA1.00000B1.00000*%
%ADD10C,.1*%
G75*
%LPD*%
G75*
G54D10*
G01X0Y0D02*
X8000000D01*
Y1500000D01*
X8600000D01*
G03X9000000Y1900000I0J400000D01*
G01Y4100000D01*
G03X8600000Y4500000I-400000J0D01*
G01X8000000D01*
Y6000000D01*
X0D01*
Y0D01*
G01X-908630Y3039410D02*
X-897360Y3054230D01*
X-887710Y3062700D01*
X-874840Y3066930D01*
X-863580Y3062700D01*
X-855540Y3054230D01*
X-849100Y3041530D01*
X-847490Y3026720D01*
X-849100Y3014010D01*
X-855540Y3001310D01*
X-865190Y2990730D01*
X-876450Y2986500D01*
X-889320Y2990730D01*
X-900580Y3003430D01*
X-907020Y3022480D01*
X-908630Y3043650D01*
X-905410Y3071160D01*
X-900580Y3085990D01*
X-892540Y3100800D01*
X-881280Y3111380D01*
X-870020Y3113500D01*
X-858760Y3109270D01*
X-850710Y3098680D01*
G01X-748520Y3113500D02*
X-761390Y3109270D01*
X-771040Y3098680D01*
X-777480Y3085990D01*
X-782300Y3069050D01*
X-783910Y3050000D01*
X-782300Y3030950D01*
X-777480Y3014010D01*
X-771040Y3001310D01*
X-761390Y2990730D01*
X-748520Y2986500D01*
X-735650Y2990730D01*
X-726000Y3001310D01*
X-719560Y3014010D01*
X-714740Y3030950D01*
X-713130Y3050000D01*
X-714740Y3069050D01*
X-719560Y3085990D01*
X-726000Y3098680D01*
X-735650Y3109270D01*
X-748520Y3113500D01*
G01X-254000Y0D02*
X-779000D01*
G01X-525000Y2891250D02*
Y0D01*
G01X-588500Y381000D02*
X-525000Y0D01*
X-461500Y381000D01*
X-588500D01*
G01X-428570Y3039410D02*
X-417300Y3054230D01*
X-407650Y3062700D01*
X-394780Y3066930D01*
X-383520Y3062700D01*
X-375480Y3054230D01*
X-369040Y3041530D01*
X-367430Y3026720D01*
X-369040Y3014010D01*
X-375480Y3001310D01*
X-385130Y2990730D01*
X-396390Y2986500D01*
X-409260Y2990730D01*
X-420520Y3003430D01*
X-426960Y3022480D01*
X-428570Y3043650D01*
X-425350Y3071160D01*
X-420520Y3085990D01*
X-412480Y3100800D01*
X-401220Y3111380D01*
X-389960Y3113500D01*
X-378700Y3109270D01*
X-370650Y3098680D01*
G01X-268460Y3113500D02*
X-281330Y3109270D01*
X-290980Y3098680D01*
X-297420Y3085990D01*
X-302240Y3069050D01*
X-303850Y3050000D01*
X-302240Y3030950D01*
X-297420Y3014010D01*
X-290980Y3001310D01*
X-281330Y2990730D01*
X-268460Y2986500D01*
X-255590Y2990730D01*
X-245940Y3001310D01*
X-239500Y3014010D01*
X-234680Y3030950D01*
X-233070Y3050000D01*
X-234680Y3069050D01*
X-239500Y3085990D01*
X-245940Y3098680D01*
X-255590Y3109270D01*
X-268460Y3113500D01*
G01X-525000Y3208750D02*
Y6000000D01*
G01X-494520Y2986500D02*
X-542780D01*
Y3113500D01*
X-494520D01*
G01X-171940Y2986500D02*
X-123680D01*
Y3113500D01*
X-171940D01*
G01X-461500Y5619000D02*
X-525000Y6000000D01*
X-588500Y5619000D01*
X-461500D01*
G01X-254000Y6000000D02*
X-779000D01*
G01X0Y6254000D02*
Y6779000D01*
G01X3603430Y6525000D02*
X0D01*
G01X381000Y6588500D02*
X0Y6525000D01*
X381000Y6461500D01*
Y6588500D01*
G01X1679000Y1327000D02*
G03I-254000J0D01*
G01X648000Y1352400D02*
Y2063600D01*
X902000D01*
Y1352400D01*
X648000D01*
G01X1367620Y1767420D02*
X1357970Y1773770D01*
X1346710Y1778000D01*
X1333840D01*
X1319360Y1771650D01*
X1308100Y1761070D01*
X1300060Y1748370D01*
X1293620Y1727200D01*
X1292010Y1708150D01*
X1295230Y1689100D01*
X1300060Y1676400D01*
X1309710Y1663700D01*
X1320970Y1655230D01*
X1332230Y1651000D01*
X1343490D01*
X1354750Y1655230D01*
X1364400Y1661580D01*
X1372450Y1670050D01*
G01X1461770Y1651000D02*
Y1778000D01*
X1442470Y1752600D01*
G01Y1651000D02*
X1481070D01*
G01X886340Y1822300D02*
Y1949300D01*
X926550D01*
X939420Y1942950D01*
X947470Y1934480D01*
X950680Y1917550D01*
X947470Y1900620D01*
X937810Y1890030D01*
X926550Y1883680D01*
X886340D01*
G01X926550D02*
X950680Y1822300D01*
G01X1048050D02*
X1059310Y1824420D01*
X1072180Y1830760D01*
X1080220Y1841350D01*
X1083440Y1856170D01*
X1080220Y1870980D01*
X1070570Y1883680D01*
X1056090Y1890030D01*
X1040010D01*
X1030350Y1894270D01*
X1022310Y1904850D01*
X1019090Y1919670D01*
X1023920Y1934480D01*
X1035180Y1945070D01*
X1048050Y1949300D01*
X1060920Y1945070D01*
X1072180Y1934480D01*
X1077010Y1919670D01*
X1073790Y1904850D01*
X1065750Y1894270D01*
X1056090Y1890030D01*
X1040010D01*
X1025530Y1883680D01*
X1015880Y1870980D01*
X1012660Y1856170D01*
X1015880Y1841350D01*
X1023920Y1830760D01*
X1036790Y1824420D01*
X1048050Y1822300D01*
G01X648000Y3277000D02*
X902000D01*
Y2769000D01*
X648000D01*
Y3277000D01*
G01X919060Y3073400D02*
X927100Y3060700D01*
X936750Y3052230D01*
X948010Y3048000D01*
X960880Y3052230D01*
X970530Y3060700D01*
X980190Y3073400D01*
X983400Y3090330D01*
Y3175000D01*
G01X1080770Y3048000D02*
Y3175000D01*
X1061470Y3149600D01*
G01Y3048000D02*
X1100070D01*
G01X886340Y4447300D02*
Y4574300D01*
X926550D01*
X939420Y4567950D01*
X947470Y4559480D01*
X950680Y4542550D01*
X947470Y4525620D01*
X937810Y4515030D01*
X926550Y4508680D01*
X886340D01*
G01X926550D02*
X950680Y4447300D01*
G01X1048050D02*
Y4574300D01*
X1028750Y4548900D01*
G01Y4447300D02*
X1067350D01*
G01X648000Y3977400D02*
Y4688600D01*
X902000D01*
Y3977400D01*
X648000D01*
G01X2123000Y1798000D02*
Y2306000D01*
X2377000D01*
Y1798000D01*
X2123000D01*
G01X1648000D02*
Y2306000D01*
X1902000D01*
Y1798000D01*
X1648000D01*
G01X1663870Y2730500D02*
Y2639480D01*
X1670300Y2620430D01*
X1683170Y2607730D01*
X1699260Y2603500D01*
X1715350Y2607730D01*
X1728220Y2620430D01*
X1734650Y2639480D01*
Y2730500D01*
G01X1828800Y2603500D02*
Y2730500D01*
X1809500Y2705100D01*
G01Y2603500D02*
X1848100D01*
G01X1929000Y2878550D02*
X1421000D01*
Y3221450D01*
X1929000D01*
Y2878550D01*
G01X2193120Y2465920D02*
X2183470Y2472270D01*
X2172210Y2476500D01*
X2159340D01*
X2144860Y2470150D01*
X2133600Y2459570D01*
X2125560Y2446870D01*
X2119120Y2425700D01*
X2117510Y2406650D01*
X2120730Y2387600D01*
X2125560Y2374900D01*
X2135210Y2362200D01*
X2146470Y2353730D01*
X2157730Y2349500D01*
X2168990D01*
X2180250Y2353730D01*
X2189900Y2360080D01*
X2197950Y2368550D01*
G01X2256700Y2455330D02*
X2266360Y2468030D01*
X2277620Y2474380D01*
X2290490Y2476500D01*
X2306570Y2472270D01*
X2317840Y2461680D01*
X2321050Y2448990D01*
X2319440Y2436280D01*
X2313010Y2425700D01*
X2280840Y2404530D01*
X2266360Y2389720D01*
X2256700Y2368550D01*
X2253490Y2349500D01*
X2321050D01*
G01X1748620Y2465920D02*
X1738970Y2472270D01*
X1727710Y2476500D01*
X1714840D01*
X1700360Y2470150D01*
X1689100Y2459570D01*
X1681060Y2446870D01*
X1674620Y2425700D01*
X1673010Y2406650D01*
X1676230Y2387600D01*
X1681060Y2374900D01*
X1690710Y2362200D01*
X1701970Y2353730D01*
X1713230Y2349500D01*
X1724490D01*
X1735750Y2353730D01*
X1745400Y2360080D01*
X1753450Y2368550D01*
G01X1862070Y2349500D02*
Y2476500D01*
X1802550Y2385480D01*
X1882990D01*
G01X1509900Y2954750D02*
G03I-25400J0D01*
G01X1421000Y2923000D02*
X1929000D01*
G01X1661340Y4447300D02*
Y4574300D01*
X1701550D01*
X1714420Y4567950D01*
X1722470Y4559480D01*
X1725680Y4542550D01*
X1722470Y4525620D01*
X1712810Y4515030D01*
X1701550Y4508680D01*
X1661340D01*
G01X1701550D02*
X1725680Y4447300D01*
G01X1792480Y4553130D02*
X1802140Y4565830D01*
X1813400Y4572180D01*
X1826270Y4574300D01*
X1842350Y4570070D01*
X1853620Y4559480D01*
X1856830Y4546790D01*
X1855220Y4534080D01*
X1848790Y4523500D01*
X1816620Y4502330D01*
X1802140Y4487520D01*
X1792480Y4466350D01*
X1789270Y4447300D01*
X1856830D01*
G01X1423000Y3977400D02*
Y4688600D01*
X1677000D01*
Y3977400D01*
X1423000D01*
G01X1998560Y4445000D02*
Y4572000D01*
X2038770D01*
X2051640Y4565650D01*
X2059690Y4557180D01*
X2062900Y4540250D01*
X2059690Y4523320D01*
X2050030Y4512730D01*
X2038770Y4506380D01*
X1998560D01*
G01X2038770D02*
X2062900Y4445000D01*
G01X2179570D02*
Y4572000D01*
X2120050Y4480980D01*
X2200490D01*
G01X2443060Y1397000D02*
Y1524000D01*
X2483270D01*
X2496140Y1517650D01*
X2504190Y1509180D01*
X2507400Y1492250D01*
X2504190Y1475320D01*
X2494530Y1464730D01*
X2483270Y1458380D01*
X2443060D01*
G01X2483270D02*
X2507400Y1397000D01*
G01X2569380Y1416050D02*
X2579030Y1405460D01*
X2590290Y1399120D01*
X2604770Y1397000D01*
X2619250Y1401230D01*
X2630510Y1409700D01*
X2638550Y1424510D01*
X2640160Y1441450D01*
X2636940Y1458380D01*
X2628900Y1468970D01*
X2617640Y1477430D01*
X2606380Y1479550D01*
X2595120Y1477430D01*
X2580640Y1468970D01*
X2585470Y1524000D01*
X2628900D01*
G01X2872600Y1073000D02*
X2161400D01*
Y1327000D01*
X2872600D01*
Y1073000D01*
G01X2598000Y1798000D02*
Y2306000D01*
X2852000D01*
Y1798000D01*
X2598000D01*
G01X2616370Y2730500D02*
Y2639480D01*
X2622800Y2620430D01*
X2635670Y2607730D01*
X2651760Y2603500D01*
X2667850Y2607730D01*
X2680720Y2620430D01*
X2687150Y2639480D01*
Y2730500D01*
G01X2750730Y2709330D02*
X2760390Y2722030D01*
X2771650Y2728380D01*
X2784520Y2730500D01*
X2800600Y2726270D01*
X2811870Y2715680D01*
X2815080Y2702990D01*
X2813470Y2690280D01*
X2807040Y2679700D01*
X2774870Y2658530D01*
X2760390Y2643720D01*
X2750730Y2622550D01*
X2747520Y2603500D01*
X2815080D01*
G01X2879000Y2878550D02*
X2371000D01*
Y3221450D01*
X2879000D01*
Y2878550D01*
G01X2701120Y2465920D02*
X2691470Y2472270D01*
X2680210Y2476500D01*
X2667340D01*
X2652860Y2470150D01*
X2641600Y2459570D01*
X2633560Y2446870D01*
X2627120Y2425700D01*
X2625510Y2406650D01*
X2628730Y2387600D01*
X2633560Y2374900D01*
X2643210Y2362200D01*
X2654470Y2353730D01*
X2665730Y2349500D01*
X2676990D01*
X2688250Y2353730D01*
X2697900Y2360080D01*
X2705950Y2368550D01*
G01X2759880Y2374900D02*
X2769530Y2360080D01*
X2782400Y2351620D01*
X2796880Y2349500D01*
X2809750Y2351620D01*
X2822620Y2362200D01*
X2830660Y2374900D01*
X2832270Y2387600D01*
X2829050Y2402410D01*
X2817790Y2413000D01*
X2806530Y2417230D01*
X2792050D01*
G01X2806530D02*
X2816180Y2423580D01*
X2824230Y2434160D01*
X2827440Y2446870D01*
X2824230Y2459570D01*
X2816180Y2470150D01*
X2801700Y2476500D01*
X2787230Y2474380D01*
X2772750Y2465920D01*
G01X2459900Y2954750D02*
G03I-25400J0D01*
G01X2371000Y2923000D02*
X2879000D01*
G01X2697060Y4445000D02*
Y4572000D01*
X2737270D01*
X2750140Y4565650D01*
X2758190Y4557180D01*
X2761400Y4540250D01*
X2758190Y4523320D01*
X2748530Y4512730D01*
X2737270Y4506380D01*
X2697060D01*
G01X2737270D02*
X2761400Y4445000D01*
G01X2823380Y4470400D02*
X2833030Y4455580D01*
X2845900Y4447120D01*
X2860380Y4445000D01*
X2873250Y4447120D01*
X2886120Y4457700D01*
X2894160Y4470400D01*
X2895770Y4483100D01*
X2892550Y4497910D01*
X2881290Y4508500D01*
X2870030Y4512730D01*
X2855550D01*
G01X2870030D02*
X2879680Y4519080D01*
X2887730Y4529660D01*
X2890940Y4542370D01*
X2887730Y4555070D01*
X2879680Y4565650D01*
X2865200Y4572000D01*
X2850730Y4569880D01*
X2836250Y4561420D01*
G01X2502000Y4697600D02*
Y3986400D01*
X2248000D01*
Y4697600D01*
X2502000D01*
G01X3552000Y2047600D02*
Y1336400D01*
X3298000D01*
Y2047600D01*
X3552000D01*
G01X3586060Y1714500D02*
Y1841500D01*
X3626270D01*
X3639140Y1835150D01*
X3647190Y1826680D01*
X3650400Y1809750D01*
X3647190Y1792820D01*
X3637530Y1782230D01*
X3626270Y1775880D01*
X3586060D01*
G01X3626270D02*
X3650400Y1714500D01*
G01X3744550D02*
X3747770Y1742010D01*
X3752600Y1765300D01*
X3759030Y1786470D01*
X3767070Y1809750D01*
X3779940Y1841500D01*
X3715600D01*
G01X3078060Y1714500D02*
Y1841500D01*
X3118270D01*
X3131140Y1835150D01*
X3139190Y1826680D01*
X3142400Y1809750D01*
X3139190Y1792820D01*
X3129530Y1782230D01*
X3118270Y1775880D01*
X3078060D01*
G01X3118270D02*
X3142400Y1714500D01*
G01X3212420Y1729310D02*
X3223680Y1718730D01*
X3236550Y1714500D01*
X3249420Y1718730D01*
X3260680Y1731430D01*
X3268730Y1750480D01*
X3271940Y1769530D01*
Y1792820D01*
X3268730Y1811870D01*
X3260680Y1828800D01*
X3251030Y1837270D01*
X3239770Y1841500D01*
X3226900Y1837270D01*
X3217250Y1828800D01*
X3210810Y1816100D01*
X3207600Y1799160D01*
X3210810Y1784350D01*
X3218860Y1769530D01*
X3228510Y1761060D01*
X3239770Y1758950D01*
X3252640Y1763180D01*
X3262290Y1773770D01*
X3271940Y1792820D01*
G01X3568870Y2730500D02*
Y2639480D01*
X3575300Y2620430D01*
X3588170Y2607730D01*
X3604260Y2603500D01*
X3620350Y2607730D01*
X3633220Y2620430D01*
X3639650Y2639480D01*
Y2730500D01*
G01X3698410Y2628900D02*
X3708060Y2614080D01*
X3720930Y2605620D01*
X3735410Y2603500D01*
X3748280Y2605620D01*
X3761150Y2616200D01*
X3769190Y2628900D01*
X3770800Y2641600D01*
X3767580Y2656410D01*
X3756320Y2667000D01*
X3745060Y2671230D01*
X3730580D01*
G01X3745060D02*
X3754710Y2677580D01*
X3762760Y2688160D01*
X3765970Y2700870D01*
X3762760Y2713570D01*
X3754710Y2724150D01*
X3740230Y2730500D01*
X3725760Y2728380D01*
X3711280Y2719920D01*
G01X3829000Y2878550D02*
X3321000D01*
Y3221450D01*
X3829000D01*
Y2878550D01*
G01X3409900Y2954750D02*
G03I-25400J0D01*
G01X3321000Y2923000D02*
X3829000D01*
G01X3648000Y3748000D02*
Y4256000D01*
X3902000D01*
Y3748000D01*
X3648000D01*
G01X2948000Y3977400D02*
Y4688600D01*
X3202000D01*
Y3977400D01*
X2948000D01*
G01X3365500Y4381500D02*
Y5016500D01*
X3873500D01*
Y4381500D01*
X3365500D01*
G01X3304960Y5173980D02*
X3345180Y5046980D01*
X3385400Y5173980D01*
G01X3442550Y5046980D02*
Y5173980D01*
X3482760D01*
X3495630Y5167630D01*
X3503680Y5159160D01*
X3506890Y5142230D01*
X3503680Y5125300D01*
X3494020Y5114710D01*
X3482760Y5108360D01*
X3442550D01*
G01X3482760D02*
X3506890Y5046980D01*
G01X3573690Y5152810D02*
X3583350Y5165510D01*
X3594610Y5171860D01*
X3607480Y5173980D01*
X3623560Y5169750D01*
X3634830Y5159160D01*
X3638040Y5146470D01*
X3636430Y5133760D01*
X3630000Y5123180D01*
X3597830Y5102010D01*
X3583350Y5087200D01*
X3573690Y5066030D01*
X3570480Y5046980D01*
X3638040D01*
G01X4629000Y1327000D02*
G03I-254000J0D01*
G01X4002000Y2047600D02*
Y1336400D01*
X3748000D01*
Y2047600D01*
X4002000D01*
G01X4281340Y1587500D02*
Y1714500D01*
X4313510D01*
X4326380Y1708150D01*
X4336030Y1699680D01*
X4344080Y1686990D01*
X4350510Y1672160D01*
X4352120Y1651000D01*
X4350510Y1629830D01*
X4344080Y1615010D01*
X4336030Y1602310D01*
X4326380Y1593850D01*
X4313510Y1587500D01*
X4281340D01*
G01X4465570D02*
Y1714500D01*
X4406050Y1623480D01*
X4486490D01*
G01X4248000Y1748000D02*
Y2256000D01*
X4502000D01*
Y1748000D01*
X4248000D01*
G01X4415620Y2402420D02*
X4405970Y2408770D01*
X4394710Y2413000D01*
X4381840D01*
X4367360Y2406650D01*
X4356100Y2396070D01*
X4348060Y2383370D01*
X4341620Y2362200D01*
X4340010Y2343150D01*
X4343230Y2324100D01*
X4348060Y2311400D01*
X4357710Y2298700D01*
X4368970Y2290230D01*
X4380230Y2286000D01*
X4391490D01*
X4402750Y2290230D01*
X4412400Y2296580D01*
X4420450Y2305050D01*
G01X4474380D02*
X4484030Y2294460D01*
X4495290Y2288120D01*
X4509770Y2286000D01*
X4524250Y2290230D01*
X4535510Y2298700D01*
X4543550Y2313510D01*
X4545160Y2330450D01*
X4541940Y2347380D01*
X4533900Y2357970D01*
X4522640Y2366430D01*
X4511380Y2368550D01*
X4500120Y2366430D01*
X4485640Y2357970D01*
X4490470Y2413000D01*
X4533900D01*
G01X4098000Y2652400D02*
Y3363600D01*
X4352000D01*
Y2652400D01*
X4098000D01*
G01X4411560Y3048000D02*
Y3175000D01*
X4451770D01*
X4464640Y3168650D01*
X4472690Y3160180D01*
X4475900Y3143250D01*
X4472690Y3126320D01*
X4463030Y3115730D01*
X4451770Y3109380D01*
X4411560D01*
G01X4451770D02*
X4475900Y3048000D01*
G01X4542700Y3100910D02*
X4553970Y3115730D01*
X4563620Y3124200D01*
X4576490Y3128430D01*
X4587750Y3124200D01*
X4595790Y3115730D01*
X4602230Y3103030D01*
X4603840Y3088220D01*
X4602230Y3075510D01*
X4595790Y3062810D01*
X4586140Y3052230D01*
X4574880Y3048000D01*
X4562010Y3052230D01*
X4550750Y3064930D01*
X4544310Y3083980D01*
X4542700Y3105150D01*
X4545920Y3132660D01*
X4550750Y3147490D01*
X4558790Y3162300D01*
X4570050Y3172880D01*
X4581310Y3175000D01*
X4592570Y3170770D01*
X4600620Y3160180D01*
G01X4025020Y4311460D02*
X4015370Y4317810D01*
X4004110Y4322040D01*
X3991240D01*
X3976760Y4315690D01*
X3965500Y4305110D01*
X3957460Y4292410D01*
X3951020Y4271240D01*
X3949410Y4252190D01*
X3952630Y4233140D01*
X3957460Y4220440D01*
X3967110Y4207740D01*
X3978370Y4199270D01*
X3989630Y4195040D01*
X4000890D01*
X4012150Y4199270D01*
X4021800Y4205620D01*
X4029850Y4214090D01*
G01X4115950Y4195040D02*
X4119170Y4222550D01*
X4124000Y4245840D01*
X4130430Y4267010D01*
X4138470Y4290290D01*
X4151340Y4322040D01*
X4087000D01*
G01X4029290Y4445000D02*
Y4572000D01*
X4069500D01*
X4082370Y4565650D01*
X4090420Y4557180D01*
X4093630Y4540250D01*
X4090420Y4523320D01*
X4080760Y4512730D01*
X4069500Y4506380D01*
X4029290D01*
G01X4069500D02*
X4093630Y4445000D01*
G01X4191000D02*
Y4572000D01*
X4171700Y4546600D01*
G01Y4445000D02*
X4210300D01*
G01X4320540Y4572000D02*
X4307670Y4567770D01*
X4298020Y4557180D01*
X4291580Y4544490D01*
X4286760Y4527550D01*
X4285150Y4508500D01*
X4286760Y4489450D01*
X4291580Y4472510D01*
X4298020Y4459810D01*
X4307670Y4449230D01*
X4320540Y4445000D01*
X4333410Y4449230D01*
X4343060Y4459810D01*
X4349500Y4472510D01*
X4354320Y4489450D01*
X4355930Y4508500D01*
X4354320Y4527550D01*
X4349500Y4544490D01*
X4343060Y4557180D01*
X4333410Y4567770D01*
X4320540Y4572000D01*
G01X4602000Y4722600D02*
Y4011400D01*
X4348000D01*
Y4722600D01*
X4602000D01*
G01X3746940Y6461500D02*
X3758200Y6463620D01*
X3771070Y6469960D01*
X3779110Y6480550D01*
X3782330Y6495370D01*
X3779110Y6510180D01*
X3769460Y6522880D01*
X3754980Y6529230D01*
X3738900D01*
X3729240Y6533470D01*
X3721200Y6544050D01*
X3717980Y6558870D01*
X3722810Y6573680D01*
X3734070Y6584270D01*
X3746940Y6588500D01*
X3759810Y6584270D01*
X3771070Y6573680D01*
X3775900Y6558870D01*
X3772680Y6544050D01*
X3764640Y6533470D01*
X3754980Y6529230D01*
X3738900D01*
X3724420Y6522880D01*
X3714770Y6510180D01*
X3711550Y6495370D01*
X3714770Y6480550D01*
X3722810Y6469960D01*
X3735680Y6463620D01*
X3746940Y6461500D01*
G01X3876480Y6588500D02*
X3863610Y6584270D01*
X3853960Y6573680D01*
X3847520Y6560990D01*
X3842700Y6544050D01*
X3841090Y6525000D01*
X3842700Y6505950D01*
X3847520Y6489010D01*
X3853960Y6476310D01*
X3863610Y6465730D01*
X3876480Y6461500D01*
X3889350Y6465730D01*
X3899000Y6476310D01*
X3905440Y6489010D01*
X3910260Y6505950D01*
X3911870Y6525000D01*
X3910260Y6544050D01*
X3905440Y6560990D01*
X3899000Y6573680D01*
X3889350Y6584270D01*
X3876480Y6588500D01*
G01X4227000Y6461500D02*
X4238260Y6463620D01*
X4251130Y6469960D01*
X4259170Y6480550D01*
X4262390Y6495370D01*
X4259170Y6510180D01*
X4249520Y6522880D01*
X4235040Y6529230D01*
X4218960D01*
X4209300Y6533470D01*
X4201260Y6544050D01*
X4198040Y6558870D01*
X4202870Y6573680D01*
X4214130Y6584270D01*
X4227000Y6588500D01*
X4239870Y6584270D01*
X4251130Y6573680D01*
X4255960Y6558870D01*
X4252740Y6544050D01*
X4244700Y6533470D01*
X4235040Y6529230D01*
X4218960D01*
X4204480Y6522880D01*
X4194830Y6510180D01*
X4191610Y6495370D01*
X4194830Y6480550D01*
X4202870Y6469960D01*
X4215740Y6463620D01*
X4227000Y6461500D01*
G01X4356540Y6588500D02*
X4343670Y6584270D01*
X4334020Y6573680D01*
X4327580Y6560990D01*
X4322760Y6544050D01*
X4321150Y6525000D01*
X4322760Y6505950D01*
X4327580Y6489010D01*
X4334020Y6476310D01*
X4343670Y6465730D01*
X4356540Y6461500D01*
X4369410Y6465730D01*
X4379060Y6476310D01*
X4385500Y6489010D01*
X4390320Y6505950D01*
X4391930Y6525000D01*
X4390320Y6544050D01*
X4385500Y6560990D01*
X4379060Y6573680D01*
X4369410Y6584270D01*
X4356540Y6588500D01*
G01X4130480Y6461500D02*
X4082220D01*
Y6588500D01*
X4130480D01*
G01X5304000Y1327000D02*
G03I-254000J0D01*
G01X5050620Y1703920D02*
X5040970Y1710270D01*
X5029710Y1714500D01*
X5016840D01*
X5002360Y1708150D01*
X4991100Y1697570D01*
X4983060Y1684870D01*
X4976620Y1663700D01*
X4975010Y1644650D01*
X4978230Y1625600D01*
X4983060Y1612900D01*
X4992710Y1600200D01*
X5003970Y1591730D01*
X5015230Y1587500D01*
X5026490D01*
X5037750Y1591730D01*
X5047400Y1598080D01*
X5055450Y1606550D01*
G01X5114200Y1640410D02*
X5125470Y1655230D01*
X5135120Y1663700D01*
X5147990Y1667930D01*
X5159250Y1663700D01*
X5167290Y1655230D01*
X5173730Y1642530D01*
X5175340Y1627720D01*
X5173730Y1615010D01*
X5167290Y1602310D01*
X5157640Y1591730D01*
X5146380Y1587500D01*
X5133510Y1591730D01*
X5122250Y1604430D01*
X5115810Y1623480D01*
X5114200Y1644650D01*
X5117420Y1672160D01*
X5122250Y1686990D01*
X5130290Y1701800D01*
X5141550Y1712380D01*
X5152810Y1714500D01*
X5164070Y1710270D01*
X5172120Y1699680D01*
G01X5304000Y2002000D02*
G03I-254000J0D01*
G01X5156370Y2730500D02*
Y2639480D01*
X5162800Y2620430D01*
X5175670Y2607730D01*
X5191760Y2603500D01*
X5207850Y2607730D01*
X5220720Y2620430D01*
X5227150Y2639480D01*
Y2730500D01*
G01X5340600Y2603500D02*
Y2730500D01*
X5281080Y2639480D01*
X5361520D01*
G01X5569500Y2903550D02*
X4680500D01*
Y3246450D01*
X5569500D01*
Y2903550D01*
G01X4987120Y2402420D02*
X4977470Y2408770D01*
X4966210Y2413000D01*
X4953340D01*
X4938860Y2406650D01*
X4927600Y2396070D01*
X4919560Y2383370D01*
X4913120Y2362200D01*
X4911510Y2343150D01*
X4914730Y2324100D01*
X4919560Y2311400D01*
X4929210Y2298700D01*
X4940470Y2290230D01*
X4951730Y2286000D01*
X4962990D01*
X4974250Y2290230D01*
X4983900Y2296580D01*
X4991950Y2305050D01*
G01X5053920Y2300810D02*
X5065180Y2290230D01*
X5078050Y2286000D01*
X5090920Y2290230D01*
X5102180Y2302930D01*
X5110230Y2321980D01*
X5113440Y2341030D01*
Y2364320D01*
X5110230Y2383370D01*
X5102180Y2400300D01*
X5092530Y2408770D01*
X5081270Y2413000D01*
X5068400Y2408770D01*
X5058750Y2400300D01*
X5052310Y2387600D01*
X5049100Y2370660D01*
X5052310Y2355850D01*
X5060360Y2341030D01*
X5070010Y2332560D01*
X5081270Y2330450D01*
X5094140Y2334680D01*
X5103790Y2345270D01*
X5113440Y2364320D01*
G01X4769400Y2992450D02*
G03I-25400J0D01*
G01X4680500Y2948000D02*
X5569500D01*
G01X5172290Y4445000D02*
Y4572000D01*
X5212500D01*
X5225370Y4565650D01*
X5233420Y4557180D01*
X5236630Y4540250D01*
X5233420Y4523320D01*
X5223760Y4512730D01*
X5212500Y4506380D01*
X5172290D01*
G01X5212500D02*
X5236630Y4445000D01*
G01X5334000D02*
Y4572000D01*
X5314700Y4546600D01*
G01Y4445000D02*
X5353300D01*
G01X5432970Y4497910D02*
X5444240Y4512730D01*
X5453890Y4521200D01*
X5466760Y4525430D01*
X5478020Y4521200D01*
X5486060Y4512730D01*
X5492500Y4500030D01*
X5494110Y4485220D01*
X5492500Y4472510D01*
X5486060Y4459810D01*
X5476410Y4449230D01*
X5465150Y4445000D01*
X5452280Y4449230D01*
X5441020Y4461930D01*
X5434580Y4480980D01*
X5432970Y4502150D01*
X5436190Y4529660D01*
X5441020Y4544490D01*
X5449060Y4559300D01*
X5460320Y4569880D01*
X5471580Y4572000D01*
X5482840Y4567770D01*
X5490890Y4557180D01*
G01X4923000Y4002400D02*
Y4713600D01*
X5177000D01*
Y4002400D01*
X4923000D01*
G01X4596570Y6525000D02*
X8000000D01*
G01X4453060Y6461500D02*
X4501320D01*
Y6588500D01*
X4453060D01*
G01X5598000Y1327400D02*
Y2038600D01*
X5852000D01*
Y1327400D01*
X5598000D01*
G01X5870790Y1714500D02*
Y1841500D01*
X5911000D01*
X5923870Y1835150D01*
X5931920Y1826680D01*
X5935130Y1809750D01*
X5931920Y1792820D01*
X5922260Y1782230D01*
X5911000Y1775880D01*
X5870790D01*
G01X5911000D02*
X5935130Y1714500D01*
G01X6032500D02*
Y1841500D01*
X6013200Y1816100D01*
G01Y1714500D02*
X6051800D01*
G01X6131470Y1820330D02*
X6141130Y1833030D01*
X6152390Y1839380D01*
X6165260Y1841500D01*
X6181340Y1837270D01*
X6192610Y1826680D01*
X6195820Y1813990D01*
X6194210Y1801280D01*
X6187780Y1790700D01*
X6155610Y1769530D01*
X6141130Y1754720D01*
X6131470Y1733550D01*
X6128260Y1714500D01*
X6195820D01*
G01X5748000Y2823000D02*
Y3331000D01*
X6002000D01*
Y2823000D01*
X5748000D01*
G01X5904000Y3848000D02*
G03I-254000J0D01*
G01X5876120Y3481920D02*
X5866470Y3488270D01*
X5855210Y3492500D01*
X5842340D01*
X5827860Y3486150D01*
X5816600Y3475570D01*
X5808560Y3462870D01*
X5802120Y3441700D01*
X5800510Y3422650D01*
X5803730Y3403600D01*
X5808560Y3390900D01*
X5818210Y3378200D01*
X5829470Y3369730D01*
X5840730Y3365500D01*
X5851990D01*
X5863250Y3369730D01*
X5872900Y3376080D01*
X5880950Y3384550D01*
G01X5970270Y3365500D02*
X5981530Y3367620D01*
X5994400Y3373960D01*
X6002440Y3384550D01*
X6005660Y3399370D01*
X6002440Y3414180D01*
X5992790Y3426880D01*
X5978310Y3433230D01*
X5962230D01*
X5952570Y3437470D01*
X5944530Y3448050D01*
X5941310Y3462870D01*
X5946140Y3477680D01*
X5957400Y3488270D01*
X5970270Y3492500D01*
X5983140Y3488270D01*
X5994400Y3477680D01*
X5999230Y3462870D01*
X5996010Y3448050D01*
X5987970Y3437470D01*
X5978310Y3433230D01*
X5962230D01*
X5947750Y3426880D01*
X5938100Y3414180D01*
X5934880Y3399370D01*
X5938100Y3384550D01*
X5946140Y3373960D01*
X5959010Y3367620D01*
X5970270Y3365500D01*
G01X5932340Y3810000D02*
Y3937000D01*
X5964510D01*
X5977380Y3930650D01*
X5987030Y3922180D01*
X5995080Y3909490D01*
X6001510Y3894660D01*
X6003120Y3873500D01*
X6001510Y3852330D01*
X5995080Y3837510D01*
X5987030Y3824810D01*
X5977380Y3816350D01*
X5964510Y3810000D01*
X5932340D01*
G01X6066700Y3862910D02*
X6077970Y3877730D01*
X6087620Y3886200D01*
X6100490Y3890430D01*
X6111750Y3886200D01*
X6119790Y3877730D01*
X6126230Y3865030D01*
X6127840Y3850220D01*
X6126230Y3837510D01*
X6119790Y3824810D01*
X6110140Y3814230D01*
X6098880Y3810000D01*
X6086010Y3814230D01*
X6074750Y3826930D01*
X6068310Y3845980D01*
X6066700Y3867150D01*
X6069920Y3894660D01*
X6074750Y3909490D01*
X6082790Y3924300D01*
X6094050Y3934880D01*
X6105310Y3937000D01*
X6116570Y3932770D01*
X6124620Y3922180D01*
G01X5807290Y4572000D02*
Y4699000D01*
X5847500D01*
X5860370Y4692650D01*
X5868420Y4684180D01*
X5871630Y4667250D01*
X5868420Y4650320D01*
X5858760Y4639730D01*
X5847500Y4633380D01*
X5807290D01*
G01X5847500D02*
X5871630Y4572000D01*
G01X5969000D02*
Y4699000D01*
X5949700Y4673600D01*
G01Y4572000D02*
X5988300D01*
G01X6063150Y4597400D02*
X6072800Y4582580D01*
X6085670Y4574120D01*
X6100150Y4572000D01*
X6113020Y4574120D01*
X6125890Y4584700D01*
X6133930Y4597400D01*
X6135540Y4610100D01*
X6132320Y4624910D01*
X6121060Y4635500D01*
X6109800Y4639730D01*
X6095320D01*
G01X6109800D02*
X6119450Y4646080D01*
X6127500Y4656660D01*
X6130710Y4669370D01*
X6127500Y4682070D01*
X6119450Y4692650D01*
X6104970Y4699000D01*
X6090500Y4696880D01*
X6076020Y4688420D01*
G01X6397600Y4723000D02*
X5686400D01*
Y4977000D01*
X6397600D01*
Y4723000D01*
G01X6123000Y1352400D02*
Y2063600D01*
X6377000D01*
Y1352400D01*
X6123000D01*
G01X7154000Y2177000D02*
G03I-254000J0D01*
G01X6378790Y1714500D02*
Y1841500D01*
X6419000D01*
X6431870Y1835150D01*
X6439920Y1826680D01*
X6443130Y1809750D01*
X6439920Y1792820D01*
X6430260Y1782230D01*
X6419000Y1775880D01*
X6378790D01*
G01X6419000D02*
X6443130Y1714500D01*
G01X6540500D02*
Y1841500D01*
X6521200Y1816100D01*
G01Y1714500D02*
X6559800D01*
G01X6634650Y1733550D02*
X6644300Y1722960D01*
X6655560Y1716620D01*
X6670040Y1714500D01*
X6684520Y1718730D01*
X6695780Y1727200D01*
X6703820Y1742010D01*
X6705430Y1758950D01*
X6702210Y1775880D01*
X6694170Y1786470D01*
X6682910Y1794930D01*
X6671650Y1797050D01*
X6660390Y1794930D01*
X6645910Y1786470D01*
X6650740Y1841500D01*
X6694170D01*
G01X6426370Y2730500D02*
Y2639480D01*
X6432800Y2620430D01*
X6445670Y2607730D01*
X6461760Y2603500D01*
X6477850Y2607730D01*
X6490720Y2620430D01*
X6497150Y2639480D01*
Y2730500D01*
G01X6555910Y2622550D02*
X6565560Y2611960D01*
X6576820Y2605620D01*
X6591300Y2603500D01*
X6605780Y2607730D01*
X6617040Y2616200D01*
X6625080Y2631010D01*
X6626690Y2647950D01*
X6623470Y2664880D01*
X6615430Y2675470D01*
X6604170Y2683930D01*
X6592910Y2686050D01*
X6581650Y2683930D01*
X6567170Y2675470D01*
X6572000Y2730500D01*
X6615430D01*
G01X6679000Y2878550D02*
X6171000D01*
Y3221450D01*
X6679000D01*
Y2878550D01*
G01X6259900Y2954750D02*
G03I-25400J0D01*
G01X6171000Y2923000D02*
X6679000D01*
G01X6223000Y3598000D02*
Y4106000D01*
X6477000D01*
Y3598000D01*
X6223000D01*
G01X7154000Y3852000D02*
G03I-254000J0D01*
G01X6255850Y4307420D02*
X6246200Y4313770D01*
X6234940Y4318000D01*
X6222070D01*
X6207590Y4311650D01*
X6196330Y4301070D01*
X6188290Y4288370D01*
X6181850Y4267200D01*
X6180240Y4248150D01*
X6183460Y4229100D01*
X6188290Y4216400D01*
X6197940Y4203700D01*
X6209200Y4195230D01*
X6220460Y4191000D01*
X6231720D01*
X6242980Y4195230D01*
X6252630Y4201580D01*
X6260680Y4210050D01*
G01X6350000Y4191000D02*
Y4318000D01*
X6330700Y4292600D01*
G01Y4191000D02*
X6369300D01*
G01X6479540Y4318000D02*
X6466670Y4313770D01*
X6457020Y4303180D01*
X6450580Y4290490D01*
X6445760Y4273550D01*
X6444150Y4254500D01*
X6445760Y4235450D01*
X6450580Y4218510D01*
X6457020Y4205810D01*
X6466670Y4195230D01*
X6479540Y4191000D01*
X6492410Y4195230D01*
X6502060Y4205810D01*
X6508500Y4218510D01*
X6513320Y4235450D01*
X6514930Y4254500D01*
X6513320Y4273550D01*
X6508500Y4290490D01*
X6502060Y4303180D01*
X6492410Y4313770D01*
X6479540Y4318000D01*
G01X6821340Y2476500D02*
Y2603500D01*
X6853510D01*
X6866380Y2597150D01*
X6876030Y2588680D01*
X6884080Y2575990D01*
X6890510Y2561160D01*
X6892120Y2540000D01*
X6890510Y2518830D01*
X6884080Y2504010D01*
X6876030Y2491310D01*
X6866380Y2482850D01*
X6853510Y2476500D01*
X6821340D01*
G01X6955700Y2582330D02*
X6965360Y2595030D01*
X6976620Y2601380D01*
X6989490Y2603500D01*
X7005570Y2599270D01*
X7016840Y2588680D01*
X7020050Y2575990D01*
X7018440Y2563280D01*
X7012010Y2552700D01*
X6979840Y2531530D01*
X6965360Y2516720D01*
X6955700Y2495550D01*
X6952490Y2476500D01*
X7020050D01*
G01X7298000Y2627400D02*
Y3338600D01*
X7552000D01*
Y2627400D01*
X7298000D01*
G01X6821340Y3429000D02*
Y3556000D01*
X6853510D01*
X6866380Y3549650D01*
X6876030Y3541180D01*
X6884080Y3528490D01*
X6890510Y3513660D01*
X6892120Y3492500D01*
X6890510Y3471330D01*
X6884080Y3456510D01*
X6876030Y3443810D01*
X6866380Y3435350D01*
X6853510Y3429000D01*
X6821340D01*
G01X6986270D02*
Y3556000D01*
X6966970Y3530600D01*
G01Y3429000D02*
X7005570D01*
G01X6858000Y4318000D02*
Y4953000D01*
X7366000D01*
Y4318000D01*
X6858000D01*
G01X6797460Y5110480D02*
X6837680Y4983480D01*
X6877900Y5110480D01*
G01X6935050Y4983480D02*
Y5110480D01*
X6975260D01*
X6988130Y5104130D01*
X6996180Y5095660D01*
X6999390Y5078730D01*
X6996180Y5061800D01*
X6986520Y5051210D01*
X6975260Y5044860D01*
X6935050D01*
G01X6975260D02*
X6999390Y4983480D01*
G01X7096760D02*
Y5110480D01*
X7077460Y5085080D01*
G01Y4983480D02*
X7116060D01*
G01X8229000Y2177000D02*
G03I-254000J0D01*
G01X7536760Y2160960D02*
X7523890Y2163080D01*
X7512630Y2171540D01*
X7502980Y2184240D01*
X7496540Y2199060D01*
X7493320Y2215990D01*
Y2232930D01*
X7496540Y2249860D01*
X7502980Y2264680D01*
X7512630Y2277380D01*
X7523890Y2285840D01*
X7536760Y2287960D01*
X7549630Y2285840D01*
X7560890Y2277380D01*
X7570540Y2264680D01*
X7576980Y2249860D01*
X7580200Y2232930D01*
Y2215990D01*
X7576980Y2199060D01*
X7570540Y2184240D01*
X7560890Y2171540D01*
X7549630Y2163080D01*
X7536760Y2160960D01*
G01X7549630Y2194830D02*
X7568930Y2160960D01*
G01X7635730Y2266790D02*
X7645390Y2279490D01*
X7656650Y2285840D01*
X7669520Y2287960D01*
X7685600Y2283730D01*
X7696870Y2273140D01*
X7700080Y2260450D01*
X7698470Y2247740D01*
X7692040Y2237160D01*
X7659870Y2215990D01*
X7645390Y2201180D01*
X7635730Y2180010D01*
X7632520Y2160960D01*
X7700080D01*
G01X7900840Y2476500D02*
Y2603500D01*
X7933010D01*
X7945880Y2597150D01*
X7955530Y2588680D01*
X7963580Y2575990D01*
X7970010Y2561160D01*
X7971620Y2540000D01*
X7970010Y2518830D01*
X7963580Y2504010D01*
X7955530Y2491310D01*
X7945880Y2482850D01*
X7933010Y2476500D01*
X7900840D01*
G01X8030380Y2495550D02*
X8040030Y2484960D01*
X8051290Y2478620D01*
X8065770Y2476500D01*
X8080250Y2480730D01*
X8091510Y2489200D01*
X8099550Y2504010D01*
X8101160Y2520950D01*
X8097940Y2537880D01*
X8089900Y2548470D01*
X8078640Y2556930D01*
X8067380Y2559050D01*
X8056120Y2556930D01*
X8041640Y2548470D01*
X8046470Y2603500D01*
X8089900D01*
G01X8229000Y3852000D02*
G03I-254000J0D01*
G01X7585290Y2984500D02*
Y3111500D01*
X7625500D01*
X7638370Y3105150D01*
X7646420Y3096680D01*
X7649630Y3079750D01*
X7646420Y3062820D01*
X7636760Y3052230D01*
X7625500Y3045880D01*
X7585290D01*
G01X7625500D02*
X7649630Y2984500D01*
G01X7747000D02*
Y3111500D01*
X7727700Y3086100D01*
G01Y2984500D02*
X7766300D01*
G01X7895840D02*
Y3111500D01*
X7836320Y3020480D01*
X7916760D01*
G01X7900840Y4191000D02*
Y4318000D01*
X7933010D01*
X7945880Y4311650D01*
X7955530Y4303180D01*
X7963580Y4290490D01*
X7970010Y4275660D01*
X7971620Y4254500D01*
X7970010Y4233330D01*
X7963580Y4218510D01*
X7955530Y4205810D01*
X7945880Y4197350D01*
X7933010Y4191000D01*
X7900840D01*
G01X8030380Y4216400D02*
X8040030Y4201580D01*
X8052900Y4193120D01*
X8067380Y4191000D01*
X8080250Y4193120D01*
X8093120Y4203700D01*
X8101160Y4216400D01*
X8102770Y4229100D01*
X8099550Y4243910D01*
X8088290Y4254500D01*
X8077030Y4258730D01*
X8062550D01*
G01X8077030D02*
X8086680Y4265080D01*
X8094730Y4275660D01*
X8097940Y4288370D01*
X8094730Y4301070D01*
X8086680Y4311650D01*
X8072200Y4318000D01*
X8057730Y4315880D01*
X8043250Y4307420D01*
G01X7536760Y3935960D02*
X7523890Y3938080D01*
X7512630Y3946540D01*
X7502980Y3959240D01*
X7496540Y3974060D01*
X7493320Y3990990D01*
Y4007930D01*
X7496540Y4024860D01*
X7502980Y4039680D01*
X7512630Y4052380D01*
X7523890Y4060840D01*
X7536760Y4062960D01*
X7549630Y4060840D01*
X7560890Y4052380D01*
X7570540Y4039680D01*
X7576980Y4024860D01*
X7580200Y4007930D01*
Y3990990D01*
X7576980Y3974060D01*
X7570540Y3959240D01*
X7560890Y3946540D01*
X7549630Y3938080D01*
X7536760Y3935960D01*
G01X7549630Y3969830D02*
X7568930Y3935960D01*
G01X7666300D02*
Y4062960D01*
X7647000Y4037560D01*
G01Y3935960D02*
X7685600D01*
G01X8045910Y4989410D02*
X8057180Y5004230D01*
X8066830Y5012700D01*
X8079700Y5016930D01*
X8090960Y5012700D01*
X8099000Y5004230D01*
X8105440Y4991530D01*
X8107050Y4976720D01*
X8105440Y4964010D01*
X8099000Y4951310D01*
X8089350Y4940730D01*
X8078090Y4936500D01*
X8065220Y4940730D01*
X8053960Y4953430D01*
X8047520Y4972480D01*
X8045910Y4993650D01*
X8049130Y5021160D01*
X8053960Y5035990D01*
X8062000Y5050800D01*
X8073260Y5061380D01*
X8084520Y5063500D01*
X8095780Y5059270D01*
X8103830Y5048680D01*
G01X8000000Y4754000D02*
Y5254000D01*
G01X7932970Y5000000D02*
X8000000D01*
G01X7619000Y4936500D02*
X8000000Y5000000D01*
X7619000Y5063500D01*
Y4936500D01*
G01X8000000Y6254000D02*
Y6779000D01*
G01X7619000Y6461500D02*
X8000000Y6525000D01*
X7619000Y6588500D01*
Y6461500D01*
G01X8586760Y2235960D02*
X8573890Y2238080D01*
X8562630Y2246540D01*
X8552980Y2259240D01*
X8546540Y2274060D01*
X8543320Y2290990D01*
Y2307930D01*
X8546540Y2324860D01*
X8552980Y2339680D01*
X8562630Y2352380D01*
X8573890Y2360840D01*
X8586760Y2362960D01*
X8599630Y2360840D01*
X8610890Y2352380D01*
X8620540Y2339680D01*
X8626980Y2324860D01*
X8630200Y2307930D01*
Y2290990D01*
X8626980Y2274060D01*
X8620540Y2259240D01*
X8610890Y2246540D01*
X8599630Y2238080D01*
X8586760Y2235960D01*
G01X8599630Y2269830D02*
X8618930Y2235960D01*
G01X8735600D02*
Y2362960D01*
X8676080Y2271940D01*
X8756520D01*
G01X8348000Y2652400D02*
Y3363600D01*
X8602000D01*
Y2652400D01*
X8348000D01*
G01X8664790Y2984500D02*
Y3111500D01*
X8705000D01*
X8717870Y3105150D01*
X8725920Y3096680D01*
X8729130Y3079750D01*
X8725920Y3062820D01*
X8716260Y3052230D01*
X8705000Y3045880D01*
X8664790D01*
G01X8705000D02*
X8729130Y2984500D01*
G01X8826500D02*
Y3111500D01*
X8807200Y3086100D01*
G01Y2984500D02*
X8845800D01*
G01X8956040D02*
Y3111500D01*
X8936740Y3086100D01*
G01Y2984500D02*
X8975340D01*
G01X8586760Y3935960D02*
X8573890Y3938080D01*
X8562630Y3946540D01*
X8552980Y3959240D01*
X8546540Y3974060D01*
X8543320Y3990990D01*
Y4007930D01*
X8546540Y4024860D01*
X8552980Y4039680D01*
X8562630Y4052380D01*
X8573890Y4060840D01*
X8586760Y4062960D01*
X8599630Y4060840D01*
X8610890Y4052380D01*
X8620540Y4039680D01*
X8626980Y4024860D01*
X8630200Y4007930D01*
Y3990990D01*
X8626980Y3974060D01*
X8620540Y3959240D01*
X8610890Y3946540D01*
X8599630Y3938080D01*
X8586760Y3935960D01*
G01X8599630Y3969830D02*
X8618930Y3935960D01*
G01X8680910Y3961360D02*
X8690560Y3946540D01*
X8703430Y3938080D01*
X8717910Y3935960D01*
X8730780Y3938080D01*
X8743650Y3948660D01*
X8751690Y3961360D01*
X8753300Y3974060D01*
X8750080Y3988870D01*
X8738820Y3999460D01*
X8727560Y4003690D01*
X8713080D01*
G01X8727560D02*
X8737210Y4010040D01*
X8745260Y4020620D01*
X8748470Y4033330D01*
X8745260Y4046030D01*
X8737210Y4056610D01*
X8722730Y4062960D01*
X8708260Y4060840D01*
X8693780Y4052380D01*
G01X9141620Y4666010D02*
X8899760Y4364850D01*
X9226220Y4571290D01*
X9141620Y4666010D01*
G01X8899760Y4364850D02*
X9097260Y4541250D01*
G01X8396430Y4989410D02*
X8407700Y5004230D01*
X8417350Y5012700D01*
X8430220Y5016930D01*
X8441480Y5012700D01*
X8449520Y5004230D01*
X8455960Y4991530D01*
X8457570Y4976720D01*
X8455960Y4964010D01*
X8449520Y4951310D01*
X8439870Y4940730D01*
X8428610Y4936500D01*
X8415740Y4940730D01*
X8404480Y4953430D01*
X8398040Y4972480D01*
X8396430Y4993650D01*
X8399650Y5021160D01*
X8404480Y5035990D01*
X8412520Y5050800D01*
X8423780Y5061380D01*
X8435040Y5063500D01*
X8446300Y5059270D01*
X8454350Y5048680D01*
G01X8600000Y4754000D02*
Y5254000D01*
G01X8667030Y5000000D02*
X8600000D01*
G01X8981000Y5063500D02*
X8600000Y5000000D01*
X8981000Y4936500D01*
Y5063500D01*
G01X8330480Y4936500D02*
X8282220D01*
Y5063500D01*
X8330480D01*
G01X8523520Y4936500D02*
X8571780D01*
Y5063500D01*
X8523520D01*
G01X8954540Y4636500D02*
Y4763500D01*
X8994750D01*
X9007620Y4757150D01*
X9015670Y4748680D01*
X9018880Y4731750D01*
X9015670Y4714820D01*
X9006010Y4704230D01*
X8994750Y4697880D01*
X8954540D01*
G01X8994750D02*
X9018880Y4636500D01*
G01X9135550D02*
Y4763500D01*
X9076030Y4672480D01*
X9156470D01*
G01X9254000Y1900000D02*
X9879000D01*
G01X9625000Y2966250D02*
Y1900000D01*
G01X9561500Y2281000D02*
X9625000Y1900000D01*
X9688500Y2281000D01*
X9561500D01*
G01X9241370Y3167330D02*
X9251030Y3180030D01*
X9262290Y3186380D01*
X9275160Y3188500D01*
X9291240Y3184270D01*
X9302510Y3173680D01*
X9305720Y3160990D01*
X9304110Y3148280D01*
X9297680Y3137700D01*
X9265510Y3116530D01*
X9251030Y3101720D01*
X9241370Y3080550D01*
X9238160Y3061500D01*
X9305720D01*
G01X9370910Y3167330D02*
X9380570Y3180030D01*
X9391830Y3186380D01*
X9404700Y3188500D01*
X9420780Y3184270D01*
X9432050Y3173680D01*
X9435260Y3160990D01*
X9433650Y3148280D01*
X9427220Y3137700D01*
X9395050Y3116530D01*
X9380570Y3101720D01*
X9370910Y3080550D01*
X9367700Y3061500D01*
X9435260D01*
G01X9721430Y3167330D02*
X9731090Y3180030D01*
X9742350Y3186380D01*
X9755220Y3188500D01*
X9771300Y3184270D01*
X9782570Y3173680D01*
X9785780Y3160990D01*
X9784170Y3148280D01*
X9777740Y3137700D01*
X9745570Y3116530D01*
X9731090Y3101720D01*
X9721430Y3080550D01*
X9718220Y3061500D01*
X9785780D01*
G01X9850970Y3167330D02*
X9860630Y3180030D01*
X9871890Y3186380D01*
X9884760Y3188500D01*
X9900840Y3184270D01*
X9912110Y3173680D01*
X9915320Y3160990D01*
X9913710Y3148280D01*
X9907280Y3137700D01*
X9875110Y3116530D01*
X9860630Y3101720D01*
X9850970Y3080550D01*
X9847760Y3061500D01*
X9915320D01*
G01X9625000Y3283750D02*
Y4100000D01*
G01X9655480Y3061500D02*
X9607220D01*
Y3188500D01*
X9655480D01*
G01X9254000Y4100000D02*
X9879000D01*
G01X9688500Y3719000D02*
X9625000Y4100000D01*
X9561500Y3719000D01*
X9688500D01*
G01X9486070Y4636500D02*
Y4763500D01*
X9426550Y4672480D01*
X9506990D01*
G01X9370250Y4636500D02*
X9321990D01*
Y4763500D01*
X9370250D01*
G01X9563290Y4636500D02*
X9611550D01*
Y4763500D01*
X9563290D01*
G01X9978060Y3061500D02*
X10026320D01*
Y3188500D01*
X9978060D01*
M02*
