G04 ================== begin FILE IDENTIFICATION RECORD ==================*
G04 Layout Name:  C:/ORCADDATA/SEQUENTIALTIMER/allegro/SEQUENTIALTIMER.brd*
G04 Film Name:    TOP*
G04 File Format:  Gerber RS274X*
G04 File Origin:  Cadence Allegro 16.6-B033*
G04 Origin Date:  Mon Feb 08 16:11:39 2021*
G04 *
G04 Layer:  BOARD GEOMETRY/OUTLINE*
G04 Layer:  BOARD GEOMETRY/DIMENSION*
G04 Layer:  ETCH/TOP*
G04 Layer:  PIN/TOP*
G04 Layer:  VIA CLASS/TOP*
G04 *
G04 Offset:    (0.0000 0.0000)*
G04 Mirror:    No*
G04 Mode:      Positive*
G04 Rotation:  0*
G04 FullContactRelief:  No*
G04 UndefLineWidth:     0.0000*
G04 ================== end FILE IDENTIFICATION RECORD ====================*
%FSLAX25Y25*MOMM*%
%IR0*IPPOS*OFA0.00000B0.00000*MIA0B0*SFA1.00000B1.00000*%
%ADD14R,.635X1.27*%
%ADD10C,.635*%
%ADD15C,.6096*%
%ADD11C,1.524*%
%ADD13C,1.651*%
%ADD12R,1.524X1.524*%
%ADD16R,.508X.4318*%
%ADD17C,.1*%
%ADD18C,.5*%
%ADD24C,2.5244*%
%ADD23C,2.6514*%
%ADD21C,1.9054*%
%ADD20R,5.0804X5.0804*%
%ADD22C,1.7784*%
%ADD19R,.7624X.6862*%
G75*
%LPD*%
G75*
G36*
G01X754020Y300000D02*
Y754020D01*
X300000D01*
Y5245980D01*
X754020D01*
Y5700000D01*
X7700000D01*
Y4200000D01*
X8700000D01*
Y1800000D01*
X7700000D01*
Y300000D01*
X754020D01*
G37*
%LPC*%
G75*
G36*
G01X8587740Y3585750D02*
G02X8421590Y3637340I-112741J-69748D01*
G01X8488880Y3704620D01*
Y3803390D01*
X8488480D01*
Y3946610D01*
X8541530D01*
X8542240Y3946830D01*
G02X8585560I21660J-71830D01*
G01X8586270Y3946610D01*
X8639320D01*
Y3803390D01*
X8638920D01*
Y3642480D01*
X8585620Y3589170D01*
X8587740Y3585750D01*
G37*
G36*
G01X5607520Y951430D02*
X3551480D01*
X3449260Y1053640D01*
X3446690Y1053220D01*
G02X3555780Y1162310I-21690J130780D01*
G01X3555360Y1159740D01*
X3613620Y1101470D01*
X3751980D01*
G03X3760740Y1116780I0J10161D01*
G02X3744220Y1205690I114261J67220D01*
G01X3744640Y1208260D01*
X3607530Y1345380D01*
Y1432430D01*
X2836130Y2203830D01*
G03X2818930Y2194940I-7185J-7183D01*
G02X2629830Y2174680I-93928J-15937D01*
G03X2612490Y2181400I-10151J-461D01*
G01X2380360Y1949260D01*
X2380780Y1946690D01*
G02X2271690Y2055780I-130780J-21690D01*
G01X2274260Y2055360D01*
X2290790Y2071890D01*
G03X2280370Y2088700I-7185J7180D01*
G02X2340300Y2148630I-30370J90300D01*
G03X2357110Y2138210I9630J-3235D01*
G01X2486480Y2267570D01*
Y2688830D01*
X2479730D01*
Y2726130D01*
X2390030D01*
Y2830990D01*
G03X2372690Y2838170I-10158J-4D01*
G01X2363120Y2828610D01*
X2236200D01*
X2236120Y2828530D01*
X1947270D01*
Y2688830D01*
X1945830D01*
X1945220Y2684460D01*
G02X1785780I-79720J11210D01*
G01X1785170Y2688830D01*
X1686520D01*
Y2249580D01*
G03X1704230Y2242780I10160J-2D01*
G02Y2115220I70770J-63780D01*
G03X1686520Y2108420I-7550J-6798D01*
G01Y2044320D01*
G03X1702250Y2035830I10158J4D01*
G02Y1814170I72750J-110830D01*
G03X1686520Y1805680I-5572J-8494D01*
G01Y1275020D01*
X1899700D01*
G02Y1124980I109300J-75020D01*
G01X1551220D01*
Y1073780D01*
X1298780D01*
Y1326220D01*
X1536480D01*
Y2688830D01*
X1529730D01*
Y2726130D01*
X1440030D01*
Y2878570D01*
X1529730D01*
Y2915870D01*
X1536480D01*
Y3034620D01*
X1563480Y3061620D01*
Y3065570D01*
X1663480Y3165570D01*
Y3184130D01*
X1559520D01*
Y3165380D01*
X1469120Y3074980D01*
X901220D01*
Y3023780D01*
X648780D01*
Y3276220D01*
X901220D01*
Y3225020D01*
X1402730D01*
Y3411170D01*
X1536480D01*
Y3680560D01*
X2115470D01*
X2244640Y3809740D01*
X2244220Y3812310D01*
G02X2266050Y3909530I130782J21695D01*
G03X2257700Y3925480I-8348J5790D01*
G01X1756570D01*
X1680360Y3849260D01*
X1680780Y3846690D01*
G02X1571690Y3955780I-130780J-21690D01*
G01X1574260Y3955360D01*
X1694430Y4075520D01*
X2462390D01*
X2636520Y3901390D01*
Y3411170D01*
X2897270D01*
Y3184130D01*
X2890520D01*
Y3067740D01*
G03X2906650Y3059520I10160J1D01*
G01X3272810D01*
G02Y2909480I29190J-75020D01*
G01X2968970D01*
X2897270Y2837780D01*
Y2688830D01*
X2890520D01*
Y2632570D01*
X3684050D01*
G03X3693180Y2647190I0J10161D01*
G02X3685010Y2683680I72320J35352D01*
G01Y2688830D01*
X3429730D01*
Y2726130D01*
X3340030D01*
Y2878570D01*
X3429730D01*
Y2915870D01*
X3436480D01*
Y3184130D01*
X3302730D01*
Y3411170D01*
X3309480D01*
Y3749980D01*
X3184300D01*
G02Y3900020I-109300J75020D01*
G01X3309480D01*
Y4369980D01*
X2748930D01*
X2399260Y4719640D01*
X2396690Y4719220D01*
G02X2267190Y4772860I-21688J130781D01*
G01X2265670Y4774980D01*
X2248520D01*
X2239520Y4765980D01*
X1659300D01*
G02Y4916020I-109300J75020D01*
G01X2177380D01*
X2186380Y4925020D01*
X2265700D01*
G02X2505780Y4828310I109298J-75023D01*
G01X2505360Y4825740D01*
X2811070Y4520020D01*
X3644990D01*
G02Y4369980I101510J-75020D01*
G01X3459520D01*
Y3411170D01*
X3690480D01*
Y3748570D01*
X3765290D01*
X3779150Y3762430D01*
G03X3772250Y3779770I-7186J7183D01*
G02X3805370Y3965300I2750J95230D01*
G03X3815790Y3982110I3235J9630D01*
G01X3799260Y3998640D01*
X3796690Y3998220D01*
G02X3905780Y4107310I-21690J130780D01*
G01X3905360Y4104740D01*
X4007570Y4002520D01*
Y3778670D01*
X3849410Y3620500D01*
G02X3840520Y3612900I-53047J53051D01*
G01Y3411170D01*
X3847270D01*
Y3271470D01*
X4662230D01*
Y3436170D01*
X4668980D01*
Y3558930D01*
X4499260Y3728640D01*
X4496690Y3728220D01*
G02X4346670Y3825730I-21694J130783D01*
G03X4329650Y3830370I-9836J-2544D01*
G01X4300020Y3800740D01*
Y3625300D01*
G02X4149980I-75020J-109300D01*
G01Y3862880D01*
X4498670Y4211570D01*
X4785000D01*
G03X4792180Y4228910I-4J10158D01*
G01X3991920Y5029180D01*
X3872720D01*
Y4826780D01*
X3620280D01*
Y5029180D01*
X1069270D01*
X905360Y4865260D01*
X905780Y4862690D01*
G02X796690Y4971780I-130780J-21690D01*
G01X799260Y4971360D01*
X1007130Y5179220D01*
X4054060D01*
X4329650Y4903630D01*
G03X4346670Y4908270I7184J7184D01*
G02X4496690Y5005780I128326J-33273D01*
G01X4499260Y5005360D01*
X4609630Y5115720D01*
X7332710D01*
X7465220Y4983210D01*
Y4261360D01*
X7672560Y4054020D01*
X7873490D01*
G02X8021000Y3861460I101507J-75020D01*
G03Y3842540I3703J-9460D01*
G02X8076510Y3800020I-45996J-117542D01*
G01X8141650D01*
X8195130Y3853500D01*
X8386100D01*
G02X8407760Y3850310I16J-75022D01*
G01X8408470Y3850090D01*
X8461520D01*
Y3706870D01*
X8408470D01*
X8407760Y3706650D01*
G02X8386100Y3703460I-21644J71832D01*
G01X8257270D01*
X8203790Y3649980D01*
X8076510D01*
G02X7929000Y3842540I-101507J75020D01*
G03Y3861460I-3703J9460D01*
G02X7873490Y3903980I45996J117542D01*
G01X7610420D01*
X7606660Y3907730D01*
G03X7589320Y3900550I-7182J-7184D01*
G01Y3803390D01*
X7544570D01*
X7501720Y3760540D01*
Y3718230D01*
X7424260Y3640770D01*
G03X7430990Y3623430I7184J-7188D01*
G02X7403310Y3360220I-5990J-132431D01*
G01X7400740Y3360640D01*
X7156050Y3115960D01*
X6765450D01*
Y3047410D01*
X6690520Y2972480D01*
Y2915870D01*
X6697270D01*
Y2688830D01*
X6279730D01*
Y2726130D01*
X6190030D01*
Y2878570D01*
X6279730D01*
Y2915870D01*
X6286480D01*
Y3110530D01*
G03X6271630Y3119550I-10161J5D01*
G02X6154780Y3179760I-37135J71423D01*
G01X6154170Y3184130D01*
X6152730D01*
Y3323830D01*
X5966350D01*
G03X5959840Y3305860I-7J-10162D01*
G02X5935500Y3086040I-84842J-101863D01*
G03Y3067960I4637J-9040D01*
G02X5742430Y2949870I-60500J-117960D01*
G03X5732270Y2960020I-10160J-10D01*
G01X5460610D01*
X5454020Y2953430D01*
Y2940870D01*
X5460770D01*
Y2903570D01*
X5550470D01*
Y2751130D01*
X5460770D01*
Y2713830D01*
X5394940D01*
G03X5387760Y2696490I4J-10158D01*
G01X5405720Y2678520D01*
X7299610D01*
X7328660Y2707570D01*
X7521340D01*
X7550390Y2678520D01*
X8402570D01*
X8450740Y2630360D01*
X8453310Y2630780D01*
G02X8344220Y2521690I21690J-130780D01*
G01X8344640Y2524260D01*
X8340430Y2528480D01*
X7881140D01*
G03X7873960Y2511140I4J-10158D01*
G01X7956250Y2428840D01*
X7958730Y2429170D01*
G02X8038890Y2195140I16275J-125169D01*
G03X8044030Y2176220I5141J-8762D01*
G01X8101220D01*
Y2125020D01*
X8166650D01*
X8195130Y2153500D01*
X8386100D01*
G02X8407760Y2150310I16J-75022D01*
G01X8408470Y2150090D01*
X8461520D01*
Y2115140D01*
G03X8478860Y2107960I10158J4D01*
G01X8488480Y2117570D01*
Y2246610D01*
X8541530D01*
X8542240Y2246830D01*
G02X8585560I21660J-71830D01*
G01X8586270Y2246610D01*
X8639320D01*
Y2103390D01*
X8638920D01*
Y2055830D01*
X8406870Y1823780D01*
X6806290D01*
X6800090Y1829980D01*
X6529930D01*
X6274260Y2085640D01*
X6271690Y2085220D01*
G02X6380780Y2194310I-21690J130780D01*
G01X6380360Y2191740D01*
X6592070Y1980020D01*
X6773780D01*
Y2176220D01*
X6830970D01*
G03X6836110Y2195140I-1J10158D01*
G02X6963890I63890J108860D01*
G03X6969030Y2176220I5141J-8762D01*
G01X7026220D01*
Y2125020D01*
X7135750D01*
X7182270Y2078500D01*
X7336100D01*
G02X7345020Y2077970I18J-75021D01*
G03X7356300Y2089390I1210J10086D01*
G02X7368660Y2143960I79799J10610D01*
G03X7360150Y2159670I-8508J5551D01*
G01X7297980D01*
Y2228290D01*
X7374220D01*
Y2174460D01*
G03X7390180Y2166120I10159J0D01*
G02X7464440Y2175350I45922J-66119D01*
G01X7465310Y2175020D01*
X7513900D01*
G02X7535560Y2171830I16J-75022D01*
G01X7536270Y2171610D01*
X7589320D01*
Y2028390D01*
X7536270D01*
X7535560Y2028170D01*
G02X7513900Y2024980I-21644J71832D01*
G01X7465310D01*
X7464440Y2024650D01*
G02X7423300Y2020520I-28341J75349D01*
G03X7411520Y2010490I-1622J-10028D01*
G01Y1973820D01*
X7848780D01*
Y2176220D01*
X7905970D01*
G03X7911110Y2195140I-1J10158D01*
G02X7849830Y2320270I63889J108859D01*
G01X7850160Y2322750D01*
X7772930Y2399980D01*
X7534300D01*
G02X7298680Y2515240I-109304J75018D01*
G03X7289000Y2528480I-9679J3082D01*
G01X5343580D01*
X5220930Y2651130D01*
X4178890D01*
X4001490Y2828530D01*
X3847270D01*
Y2688830D01*
X3845990D01*
Y2683680D01*
G02X3807650Y2613960I-80490J-1139D01*
G03X3805790Y2598120I5321J-8654D01*
G01X4107570Y2296330D01*
Y2025710D01*
X4229650Y1903630D01*
G03X4246670Y1908270I7184J7184D01*
G02X4314500Y1992960I128328J-33272D01*
G03Y2011040I-4637J9040D01*
G02X4435500I60500J117960D01*
G03Y1992960I4637J-9040D01*
G02X4481760Y1796400I-60499J-117962D01*
G03X4489940Y1780220I8182J-6021D01*
G01X4923780D01*
Y2001220D01*
X5176220D01*
Y1780220D01*
X5775870D01*
X6225740Y1330360D01*
X6228310Y1330780D01*
G02X6119220Y1221690I21690J-130780D01*
G01X6119640Y1224260D01*
X5713730Y1630180D01*
X4290920D01*
X3957530Y1963570D01*
Y2076980D01*
G03X3942220Y2085740I-10161J0D01*
G02X3841730Y2328330I-67222J114262D01*
G03X3846370Y2345350I-2544J9836D01*
G01X3709190Y2482530D01*
X2794140D01*
G03X2786960Y2465190I4J-10158D01*
G01X3757570Y1494570D01*
Y1407520D01*
X3850740Y1314360D01*
X3853310Y1314780D01*
G02X3989260Y1116780I21688J-130782D01*
G03X3998020Y1101470I8760J-5149D01*
G01X4248780D01*
Y1326220D01*
X4501220D01*
Y1101470D01*
X4923780D01*
Y1326220D01*
X5176220D01*
Y1101470D01*
X5545380D01*
X5594640Y1150740D01*
X5594220Y1153310D01*
G02X5703310Y1044220I130780J21690D01*
G01X5700740Y1044640D01*
X5607520Y951430D01*
G37*
G54D24*
X3492500Y4699000D03*
G54D23*
X4225000Y2500000D03*
X3075000Y4841000D03*
X3425000Y2200000D03*
X3025000Y1200000D03*
X2725000Y1925000D03*
X775000Y3825000D03*
Y2216000D03*
Y1200000D03*
G54D21*
X5725000Y2191000D03*
G54D20*
X8000000Y3000000D03*
G54D22*
X5050000Y2129000D03*
Y1454000D03*
X4375000D03*
X775000Y2896000D03*
X1425000Y1454000D03*
G54D19*
X8386100Y3968980D03*
Y2268980D03*
%LPD*%
G75*
G36*
G01X2654230Y2242780D02*
G02X2636520Y2249580I-7550J6798D01*
G01Y2378910D01*
G02X2653860Y2386090I10158J-4D01*
G01X2749830Y2290130D01*
G02X2740940Y2272930I-7183J-7185D01*
G03X2654230Y2242780I-15937J-93928D01*
G37*
G36*
G01X5276480Y4050020D02*
X5163970Y3937520D01*
G02X5149190Y3937960I-7183J7182D01*
G03X5159300Y3774980I-99190J-87957D01*
G01X5213620D01*
X5338620Y3899980D01*
X5523780D01*
Y3848780D01*
X5776220D01*
Y4061530D01*
X6226980D01*
G02X6235740Y4046220I0J-10161D01*
G03X6459300Y3903980I114261J-67221D01*
G01X6540480D01*
Y3473870D01*
X6323940D01*
G02X6313920Y3485690I2J10159D01*
G03X6205310Y3573870I-79418J13159D01*
G01X4819020D01*
Y3621070D01*
X4605360Y3834740D01*
X4605780Y3837310D01*
G03X4508270Y3987330I-130783J21694D01*
G02X4503630Y4004350I2544J9836D01*
G01X4560810Y4061530D01*
X5523780D01*
Y4050020D01*
X5276480D01*
G37*
G36*
G01X7026220Y3800020D02*
Y3851220D01*
X6969030D01*
G02X6963890Y3870140I1J10158D01*
G03X6883730Y4104170I-63885J108861D01*
G01X6881250Y4103840D01*
X6673520Y4311570D01*
X4921710D01*
X4503630Y4729650D01*
G02X4508270Y4746670I7184J7184D01*
G03X4605780Y4896690I-33273J128326D01*
G01X4605360Y4899260D01*
X4671770Y4965680D01*
X4994310D01*
G02X4999680Y4946890I3J-10162D01*
G03X5100320I50320J-80890D01*
G02X5105690Y4965680I5367J8628D01*
G01X5437890D01*
G02X5444730Y4948010I-1J-10159D01*
G03X5623270I89270J-98010D01*
G02X5630110Y4965680I6841J7511D01*
G01X6453890D01*
G02X6460730Y4948010I-1J-10159D01*
G03X6571690Y4719220I89270J-98007D01*
G01X6574260Y4719640D01*
X6987430Y4306480D01*
X7137490D01*
G03X7300100Y4271060I101504J75022D01*
G02X7315180Y4262170I4919J-8892D01*
G01Y4199220D01*
X7550440Y3963950D01*
G02X7543260Y3946610I-7184J-7182D01*
G01X7536270D01*
X7535560Y3946830D01*
G03X7513900Y3950020I-21644J-71832D01*
G01X7479020D01*
X7475610Y3946610D01*
X7438480D01*
Y3909480D01*
X7379090Y3850090D01*
X7358470D01*
X7357760Y3850310D01*
G03X7336100Y3853500I-21644J-71832D01*
G01X7120130D01*
X7066650Y3800020D01*
X7026220D01*
G37*
%LPC*%
G75*
G54D21*
X6350000Y3725000D03*
G54D22*
X5650000Y3721000D03*
G54D19*
X7336100Y3968980D03*
%LPD*%
G75*
G54D10*
X500000Y500000D03*
Y5500000D03*
X8000000Y3000000D03*
G54D11*
X1425000Y1454000D03*
X775000Y2896000D03*
X3746500Y4445000D03*
X3492500Y4699000D03*
X4375000Y1454000D03*
X5050000D03*
Y2129000D03*
X5650000Y3721000D03*
X6900000Y2304000D03*
Y3979000D03*
X7239000Y4381500D03*
X6985000Y4635500D03*
X7975000Y2304000D03*
Y3725000D03*
Y3979000D03*
G54D12*
X1425000Y1200000D03*
X775000Y3150000D03*
X3746500Y4953000D03*
X4375000Y1200000D03*
X5050000D03*
Y1875000D03*
X5650000Y3975000D03*
X6900000Y2050000D03*
Y3725000D03*
X7239000Y4889500D03*
X7975000Y2050000D03*
G54D13*
X775000Y1200000D03*
Y2216000D03*
Y3825000D03*
Y4841000D03*
X2009000Y1200000D03*
X2250000Y2179000D03*
Y1925000D03*
X1775000Y2179000D03*
Y1925000D03*
X1550000Y3825000D03*
Y4841000D03*
X2725000Y2179000D03*
Y1925000D03*
X2375000Y3834000D03*
Y4850000D03*
X3025000Y1200000D03*
X3425000Y1184000D03*
Y2200000D03*
X3775000Y4129000D03*
Y3875000D03*
X3075000Y3825000D03*
Y4841000D03*
X3875000Y1184000D03*
X4375000Y2129000D03*
Y1875000D03*
X3875000Y2200000D03*
X4225000Y2500000D03*
Y3516000D03*
X4475000Y3859000D03*
Y4875000D03*
X5050000Y3850000D03*
Y4866000D03*
X5725000Y1175000D03*
Y2191000D03*
X5875000Y2950000D03*
Y3204000D03*
X5534000Y4850000D03*
X6250000Y1200000D03*
Y2216000D03*
X6350000Y3725000D03*
Y3979000D03*
X6550000Y4850000D03*
X7425000Y2475000D03*
Y3491000D03*
X8475000Y2500000D03*
Y3516000D03*
G54D14*
X1484500Y2802350D03*
X1611500D03*
X1738500D03*
X1865500D03*
X1611500Y3297650D03*
X1484500D03*
X1738500D03*
X1865500D03*
X2434500Y2802350D03*
X2561500D03*
X2688500D03*
X2815500D03*
X2561500Y3297650D03*
X2434500D03*
X2688500D03*
X2815500D03*
X3384500Y2802350D03*
X3511500D03*
X3638500D03*
X3511500Y3297650D03*
X3384500D03*
X3638500D03*
X3765500Y2802350D03*
Y3297650D03*
X4744000Y2827350D03*
X4871000D03*
X4998000D03*
X5125000D03*
X4871000Y3322650D03*
X4744000D03*
X4998000D03*
X5125000D03*
X5252000Y2827350D03*
X5379000D03*
X5506000D03*
X5252000Y3322650D03*
X5379000D03*
X5506000D03*
X6234500Y2802350D03*
X6361500D03*
X6488500D03*
X6615500D03*
X6361500Y3297650D03*
X6234500D03*
X6488500D03*
X6615500D03*
G54D15*
X1865500Y2695670D03*
Y3505540D03*
X1965500Y3003550D03*
X2688500Y3103550D03*
X2815500Y3003550D03*
X3679680D03*
X3302000Y2984500D03*
X3765500Y2682540D03*
X4225000Y2827350D03*
X4382550Y2928550D03*
X5125000D03*
X4532550Y3028550D03*
X5582200Y3322650D03*
X6488500Y2909030D03*
X6690430Y3190980D03*
X6234500Y3498850D03*
Y3190970D03*
X7436100Y2100000D03*
G54D16*
X7336100Y2003480D03*
Y2193980D03*
Y3778480D03*
Y3968980D03*
X7513900Y2100000D03*
Y3875000D03*
X8386100Y2078480D03*
Y2268980D03*
X8563900Y2175000D03*
X8386100Y3778480D03*
Y3968980D03*
X8563900Y3875000D03*
G54D17*
G01X0Y0D02*
X8000000D01*
Y1500000D01*
X8600000D01*
G03X9000000Y1900000I0J400000D01*
G01Y4100000D01*
G03X8600000Y4500000I-400000J0D01*
G01X8000000D01*
Y6000000D01*
X0D01*
Y0D01*
G54D18*
G01X1331000Y1454000D02*
X1425000D01*
G01X775000Y2802000D02*
Y2896000D01*
G01D02*
Y2990000D01*
G01X681000Y2896000D02*
X775000D01*
G01D02*
X869000D01*
G01X1484500Y3297650D02*
Y3196450D01*
X1438050Y3150000D01*
X775000D01*
G01X6900000Y3979000D02*
X6642450Y4236550D01*
X4890640D01*
X4022990Y5104200D01*
X1038200D01*
X775000Y4841000D01*
G01X1425000Y1360000D02*
Y1454000D01*
G01X1611500Y1200000D02*
Y2802350D01*
G01X1425000Y1200000D02*
X1611500D01*
G01D02*
X2009000D01*
G01X1425000Y1454000D02*
Y1548000D01*
G01X1865500Y2802350D02*
Y2695670D01*
G01X1484500Y2721050D02*
Y2802350D01*
G01D02*
Y2883650D01*
G01X1434950Y2802350D02*
X1484500D01*
G01X1775000Y2179000D02*
Y2279350D01*
G01Y2179000D02*
X1875350D01*
G01X2149650D02*
X2250000D01*
G01X1738500Y3297650D02*
Y3134500D01*
X1638500Y3034500D01*
Y3030550D01*
X1611500Y3003550D01*
Y2802350D01*
G01X3302000Y2984500D02*
X2937900D01*
X2856950Y2903550D01*
X2774050D01*
X2693100Y2984500D01*
X2412920D01*
X2332050Y2903630D01*
X2205130D01*
X2205050Y2903550D01*
X1807950D01*
X1738500Y2834100D01*
Y2802350D01*
G01X2434500Y3297650D02*
Y3505540D01*
X1865500D01*
G01X2375000Y3834000D02*
X2146540Y3605540D01*
X1611500D01*
Y3297650D01*
G01X1865500D02*
Y3003550D01*
X1965500D01*
G01X2561500Y3297650D02*
Y3870320D01*
X2431320Y4000500D01*
X1725500D01*
X1550000Y3825000D01*
G01Y4841000D02*
X2208450D01*
X2217450Y4850000D01*
X2375000D01*
G01X2561500Y2802350D02*
Y2236500D01*
X2250000Y1925000D01*
G01X2725000Y2179000D02*
Y2279350D01*
G01Y2179000D02*
X2825350D01*
G01X2434500Y2721050D02*
Y2802350D01*
G01X2384950D02*
X2434500D01*
G01X2250000Y2179000D02*
Y2279350D01*
G01Y2179000D02*
X2350350D01*
G01X6250000Y1200000D02*
X5744800Y1705200D01*
X4321990D01*
X4032550Y1994640D01*
Y2265260D01*
X3740260Y2557550D01*
X2815500D01*
Y2802350D01*
G01X3875000Y1184000D02*
X3682550Y1376450D01*
Y1463500D01*
X2688500Y2457550D01*
Y2802350D01*
G01Y3297650D02*
Y3103550D01*
G01X2815500Y3297650D02*
Y3003550D01*
G01X3384500Y4445000D02*
X2780000D01*
X2375000Y4850000D01*
G01X4375000Y1026450D02*
X3582550D01*
X3425000Y1184000D01*
G01X3384500Y2721050D02*
Y2802350D01*
G01D02*
Y2883650D01*
G01X3334950Y2802350D02*
X3384500D01*
G01X3638500D02*
Y2903550D01*
X4032560D01*
X4209960Y2726150D01*
X5252000D01*
G01X3511500Y3196450D02*
Y2802350D01*
G01X3384500Y3297650D02*
Y3825000D01*
G01X4225000Y2827350D02*
Y2852540D01*
X4073990Y3003550D01*
X3679680D01*
G01X3638500Y3297650D02*
Y3196450D01*
G01X3511500Y3297650D02*
Y3196450D01*
G01X3638500D02*
X3511500D01*
G01X5125000Y2928550D02*
Y3042980D01*
X4971530Y3196450D01*
X3638500D01*
G01X3075000Y3825000D02*
X3384500D01*
G01D02*
Y4445000D01*
G01D02*
X3746500D01*
G01X4375000Y1360000D02*
Y1454000D01*
G01X5725000Y1175000D02*
X5576450Y1026450D01*
X4375000D01*
G01D02*
Y1200000D01*
G01Y1454000D02*
Y1548000D01*
G01X4281000Y1454000D02*
X4375000D01*
G01D02*
X4469000D01*
G01X3765500Y2802350D02*
Y2682540D01*
G01X4744000Y2827350D02*
X4225000D01*
G01X4871000D02*
Y2859100D01*
X4801550Y2928550D01*
X4382550D01*
G01X7513900Y3875000D02*
X7510090D01*
X7426700Y3791610D01*
Y3749300D01*
X7251200Y3573800D01*
X6837370D01*
X6715500Y3695670D01*
Y4020430D01*
X6599380Y4136550D01*
X4529740D01*
X4225000Y3831810D01*
Y3516000D01*
G01X3775000Y4129000D02*
X3932550Y3971450D01*
Y3809740D01*
X3796360Y3673550D01*
X3765500D01*
Y3297650D01*
G01X5050000Y1360000D02*
Y1454000D01*
G01Y2035000D02*
Y2129000D01*
G01D02*
Y2223000D01*
G01X4956000Y2129000D02*
X5050000D01*
G01D02*
X5144000D01*
G01X5050000Y1454000D02*
Y1548000D01*
G01X4956000Y1454000D02*
X5050000D01*
G01D02*
X5144000D01*
G01X4998000Y2827350D02*
Y2951550D01*
X4921000Y3028550D01*
X4532550D01*
G01X5125000Y2827350D02*
Y2928550D01*
G01X4744000Y3322650D02*
Y3498850D01*
G01D02*
Y3590000D01*
X4475000Y3859000D01*
G01X4744000Y3498850D02*
X6234500D01*
G01X5050000Y3850000D02*
X5182550D01*
X5307550Y3975000D01*
X5650000D01*
G01X5050000Y4765650D02*
Y4866000D01*
G01X4949650D02*
X5050000D01*
G01D02*
X5150350D01*
G01X7975000Y3979000D02*
X7641490D01*
X7390200Y4230290D01*
Y4952140D01*
X7301640Y5040700D01*
X4640700D01*
X4475000Y4875000D01*
G01X5725000Y2090650D02*
Y2191000D01*
G01D02*
Y2291350D01*
G01X5624650Y2191000D02*
X5725000D01*
G01D02*
X5825350D01*
G01X5506000Y2746050D02*
Y2827350D01*
G01D02*
Y2908650D01*
G01Y2827350D02*
X5555550D01*
G01X5252000Y2726150D02*
Y2827350D01*
G01X8475000Y2500000D02*
X8371500Y2603500D01*
X7519320D01*
X7490270Y2632550D01*
X7359730D01*
X7330680Y2603500D01*
X5374650D01*
X5252000Y2726150D01*
G01X5379000Y2827350D02*
Y2984500D01*
X5429540Y3035040D01*
X5789960D01*
X5875000Y2950000D01*
G01X5650000Y3627000D02*
Y3721000D01*
G01X5379000Y3322650D02*
Y3204000D01*
X5875000D01*
G01X5506000Y3322650D02*
X5582200D01*
G01D02*
X5658400Y3398850D01*
X6361500D01*
G01X5650000Y3721000D02*
Y3815000D01*
G01X5556000Y3721000D02*
X5650000D01*
G01D02*
X5744000D01*
G01X6250000Y2216000D02*
X6561000Y1905000D01*
X6831160D01*
X6837360Y1898800D01*
X8375800D01*
X8563900Y2086900D01*
Y2175000D01*
G01X6690430Y3190980D02*
Y3078480D01*
X6615500Y3003550D01*
Y2802350D01*
G01X6234500Y2721050D02*
Y2802350D01*
G01D02*
Y2883650D01*
G01X6184950Y2802350D02*
X6234500D01*
G01X6488500D02*
Y2909030D01*
G01X6361500Y2802350D02*
Y3297650D01*
G01X6234500D02*
Y3190970D01*
G01X6690430Y3190980D02*
X7124980D01*
X7425000Y3491000D01*
G01X6350000Y3624650D02*
Y3725000D01*
G01X6361500Y3297650D02*
Y3398850D01*
G01D02*
X6488500D01*
Y3297650D01*
G01X6615500D02*
Y3979000D01*
X6350000D01*
G01X6249650Y3725000D02*
X6350000D01*
G01D02*
X6450350D01*
G01X6550000Y4850000D02*
X7018500Y4381500D01*
X7239000D01*
G01X7336100Y2154590D02*
Y2193980D01*
G01X6900000Y2050000D02*
X7104680D01*
X7151200Y2003480D01*
X7336100D01*
G01X7513900Y2100000D02*
X7436100D01*
G01X7336100Y2193980D02*
Y2233370D01*
G01X7292900Y2193980D02*
X7336100D01*
G01D02*
X7379300D01*
G01X7425000Y2475000D02*
X7804000D01*
X7975000Y2304000D01*
G01X7336100Y3929590D02*
Y3968980D01*
G01D02*
Y4008370D01*
G01X7292900Y3968980D02*
X7336100D01*
G01D02*
X7379300D01*
G01X6900000Y3725000D02*
X7097720D01*
X7151200Y3778480D01*
X7336100D01*
G01X7239000Y4889500D02*
X6985000Y4635500D01*
G01X7975000Y2050000D02*
X8197720D01*
X8226200Y2078480D01*
X8386100D01*
G01X7975000Y3725000D02*
X8172720D01*
X8226200Y3778480D01*
X8386100D01*
G01Y2229590D02*
Y2268980D01*
G01D02*
Y2308370D01*
G01X8342900Y2268980D02*
X8386100D01*
G01D02*
X8429300D01*
G01X8475000Y3516000D02*
Y3584650D01*
X8563900Y3673550D01*
Y3875000D01*
G01X8386100Y3929590D02*
Y3968980D01*
G01D02*
Y4008370D01*
G01X8342900Y3968980D02*
X8386100D01*
G01D02*
X8429300D01*
M02*
