G04 ================== begin FILE IDENTIFICATION RECORD ==================*
G04 Layout Name:  C:/ORCADDATA/DIGITALCONVERTOR/allegro/DIGITALCONVERTOR.brd*
G04 Film Name:    Drill_Drawing*
G04 File Format:  Gerber RS274X*
G04 File Origin:  Cadence Allegro 16.6-B033*
G04 Origin Date:  Fri Feb 05 13:18:49 2021*
G04 *
G04 Layer:  MANUFACTURING/NCLEGEND-1-2*
G04 Layer:  BOARD GEOMETRY/OUTLINE*
G04 Layer:  BOARD GEOMETRY/DIMENSION*
G04 *
G04 Offset:    (0.0000 0.0000)*
G04 Mirror:    No*
G04 Mode:      Positive*
G04 Rotation:  0*
G04 FullContactRelief:  No*
G04 UndefLineWidth:     0.1000*
G04 ================== end FILE IDENTIFICATION RECORD ====================*
%FSLAX25Y25*MOMM*%
%IR0*IPPOS*OFA0.00000B0.00000*MIA0B0*SFA1.00000B1.00000*%
%AMMACRO13*
1,1,.1,.1651,0.0*
20,1,.1,.1651,0.0,-.1651,0.0,0.0*
1,1,.1,-.1651,0.0*
1,1,.1,0.0,.1651*
20,1,.1,0.0,.1651,0.0,-.1651,0.0*
1,1,.1,0.0,-.1651*
%
%ADD13MACRO13*%
%AMMACRO11*
1,1,.1,.4572,.4572*
20,1,.1,.4572,.4572,.4572,-.4572,0.0*
1,1,.1,.4572,-.4572*
20,1,.1,.4572,-.4572,-.4572,-.4572,0.0*
1,1,.1,-.4572,-.4572*
20,1,.1,-.4572,-.4572,-.4572,.4572,0.0*
1,1,.1,-.4572,.4572*
20,1,.1,-.4572,.4572,.4572,.4572,0.0*
1,1,.1,.4572,.4572*
%
%ADD11MACRO11*%
%AMMACRO10*
1,1,.1,0.0,1.5875*
20,1,.1,0.0,1.5875,-1.374815,.79375,0.0*
1,1,.1,-1.374815,.79375*
20,1,.1,-1.374815,.79375,-1.374815,-.79375,0.0*
1,1,.1,-1.374815,-.79375*
20,1,.1,-1.374815,-.79375,0.0,-1.5875,0.0*
1,1,.1,0.0,-1.5875*
20,1,.1,0.0,-1.5875,1.374815,-.79375,0.0*
1,1,.1,1.374815,-.79375*
20,1,.1,1.374815,-.79375,1.374815,.79375,0.0*
1,1,.1,1.374815,.79375*
20,1,.1,1.374815,.79375,0.0,1.5875,0.0*
1,1,.1,0.0,1.5875*
%
%ADD10MACRO10*%
%AMMACRO12*
1,1,.1,.5334,0.0*
20,1,.1,.5334,0.0,.2667,.461938,0.0*
1,1,.1,.2667,.461938*
20,1,.1,.2667,.461938,-.2667,.461938,0.0*
1,1,.1,-.2667,.461938*
20,1,.1,-.2667,.461938,-.5334,0.0,0.0*
1,1,.1,-.5334,0.0*
20,1,.1,-.5334,0.0,-.2667,-.461938,0.0*
1,1,.1,-.2667,-.461938*
20,1,.1,-.2667,-.461938,.2667,-.461938,0.0*
1,1,.1,.2667,-.461938*
20,1,.1,.2667,-.461938,.5334,0.0,0.0*
1,1,.1,.5334,0.0*
%
%ADD12MACRO12*%
%ADD14C,.1*%
G75*
%LPD*%
G75*
G54D10*
X500000Y500000D03*
Y4500000D03*
X1141730Y-4575570D03*
X7500000Y500000D03*
Y4500000D03*
G54D11*
X698500Y2540000D03*
Y2794000D03*
X1141730Y-3148090D03*
X1150000Y3667000D03*
X896000Y3921000D03*
X1150000Y4175000D03*
X1775000Y1306000D03*
Y1052000D03*
X2425000Y3725000D03*
Y3979000D03*
X3175000Y3725000D03*
Y3979000D03*
X3900000Y3725000D03*
Y3979000D03*
X4625000Y3725000D03*
Y3979000D03*
G54D12*
X1141730Y-3861830D03*
X1150000Y677000D03*
Y2050000D03*
Y1693000D03*
Y3066000D03*
X1775000Y3725000D03*
Y3979000D03*
X3000000Y677000D03*
X2400000D03*
Y2125000D03*
X3000000Y1693000D03*
X2400000D03*
Y3141000D03*
X3575000Y677000D03*
Y1693000D03*
X4200000Y677000D03*
Y1693000D03*
Y2125000D03*
Y3141000D03*
X4750000Y677000D03*
X5270500Y698500D03*
X4750000Y1693000D03*
Y2125000D03*
X5270500Y1714500D03*
X4750000Y3141000D03*
X5250000Y3275000D03*
Y4291000D03*
X5875000Y677000D03*
Y1693000D03*
X5675000Y3275000D03*
Y4291000D03*
X6600000Y677000D03*
Y1693000D03*
X6604000Y1968500D03*
Y2984500D03*
X6100000Y3275000D03*
X6600000D03*
X6100000Y4291000D03*
X6600000D03*
X7100000Y3275000D03*
Y4291000D03*
G54D13*
X1141730Y-2434350D03*
X1397000Y2286000D03*
X1940500Y2075000D03*
X2905500Y2238000D03*
X3159500Y1434550D03*
X3667500Y2238000D03*
X3794500D03*
X5207000Y2470160D03*
X5461000Y2191150D03*
X5588000Y2921000D03*
X5842000Y2680970D03*
G54D14*
G01X400000Y0D02*
X7600000D01*
G03X8000000Y400000I0J400000D01*
G01Y4600000D01*
G03X7600000Y5000000I-400000J0D01*
G01X400000D01*
G03X0Y4600000I0J-400000D01*
G01Y400000D01*
G03X400000Y0I400000J0D01*
G01X-250000Y400000D02*
X-1025000D01*
G01X-1108760Y2736500D02*
Y2863500D01*
X-1168280Y2772480D01*
X-1087840D01*
G01X-1029090Y2842330D02*
X-1019430Y2855030D01*
X-1008170Y2861380D01*
X-995300Y2863500D01*
X-979220Y2859270D01*
X-967950Y2848680D01*
X-964740Y2835990D01*
X-966350Y2823280D01*
X-972780Y2812700D01*
X-1004950Y2791530D01*
X-1019430Y2776720D01*
X-1029090Y2755550D01*
X-1032300Y2736500D01*
X-964740D01*
G01X-250000Y4600000D02*
X-1025000D01*
G01X-775000Y2641250D02*
Y400000D01*
G01X-837500Y800000D02*
X-775000Y400000D01*
X-712500Y800000D01*
X-837500D01*
G01X-628700Y2736500D02*
Y2863500D01*
X-688220Y2772480D01*
X-607780D01*
G01X-549030Y2842330D02*
X-539370Y2855030D01*
X-528110Y2861380D01*
X-515240Y2863500D01*
X-499160Y2859270D01*
X-487890Y2848680D01*
X-484680Y2835990D01*
X-486290Y2823280D01*
X-492720Y2812700D01*
X-524890Y2791530D01*
X-539370Y2776720D01*
X-549030Y2755550D01*
X-552240Y2736500D01*
X-484680D01*
G01X-744520D02*
X-792780D01*
Y2863500D01*
X-744520D01*
G01X-421940Y2736500D02*
X-373680D01*
Y2863500D01*
X-421940D01*
G01X-775000Y2958750D02*
Y4600000D01*
G01X-712500Y4200000D02*
X-775000Y4600000D01*
X-837500Y4200000D01*
X-712500D01*
G01X0Y-4932440D02*
Y0D01*
X12283440D01*
Y-4932440D01*
X0D01*
G01Y-4218700D02*
X12283440D01*
G01X0Y-3504960D02*
X12283440D01*
G01X0Y-2791220D02*
X12283440D01*
G01X279520Y-1839990D02*
Y-1522490D01*
X429140D01*
G01X374010Y-1675940D02*
X279520D01*
G01X622050Y-1522490D02*
X716530D01*
G01X669290D02*
Y-1839990D01*
G01X622050D02*
X716530D01*
G01X1007870Y-1681240D02*
X1086620D01*
Y-1776490D01*
X1062990Y-1808250D01*
X1035430Y-1829410D01*
X996060Y-1839990D01*
X956690Y-1829410D01*
X929130Y-1808250D01*
X905510Y-1776490D01*
X889760Y-1739450D01*
X881880Y-1697120D01*
Y-1660070D01*
X889760Y-1628330D01*
X905510Y-1591280D01*
X929130Y-1559530D01*
X952750Y-1538370D01*
X984250Y-1522490D01*
X1011810D01*
X1043300Y-1533070D01*
X1066930Y-1554240D01*
G01X1212600Y-1522490D02*
Y-1750030D01*
X1228340Y-1797670D01*
X1259840Y-1829410D01*
X1299210Y-1839990D01*
X1338580Y-1829410D01*
X1370080Y-1797670D01*
X1385820Y-1750030D01*
Y-1522490D01*
G01X1535430Y-1839990D02*
Y-1522490D01*
X1633850D01*
X1665350Y-1538370D01*
X1685040Y-1559530D01*
X1692910Y-1601870D01*
X1685040Y-1644200D01*
X1661410Y-1670650D01*
X1633850Y-1686540D01*
X1535430D01*
G01X1633850D02*
X1692910Y-1839990D01*
G01X2007870D02*
X1850390D01*
Y-1522490D01*
X2007870D01*
G01X1944880Y-1675940D02*
X1850390D01*
G01X0Y-2077480D02*
X12283440D01*
G01X0Y-1363740D02*
X12283440D01*
G01X0Y-650000D02*
X12283440D01*
G01X400000Y5250000D02*
Y5800000D01*
G01X2853430Y5550000D02*
X400000D01*
G01X800000Y5612500D02*
X400000Y5550000D01*
X800000Y5487500D01*
Y5612500D01*
G01X1791330Y-1126250D02*
X1889760Y-808750D01*
X1988190Y-1126250D01*
G01X1952750Y-1015130D02*
X1826760D01*
G01X2125980Y-808750D02*
Y-1126250D01*
X2283460D01*
G01X2440940Y-808750D02*
Y-1126250D01*
X2598420D01*
G01X3062990Y-808750D02*
Y-1036290D01*
X3078730Y-1083930D01*
X3110230Y-1115670D01*
X3149600Y-1126250D01*
X3188970Y-1115670D01*
X3220470Y-1083930D01*
X3236210Y-1036290D01*
Y-808750D01*
G01X3374010Y-1126250D02*
Y-808750D01*
X3555110Y-1126250D01*
Y-808750D01*
G01X3732280D02*
X3826760D01*
G01X3779520D02*
Y-1126250D01*
G01X3732280D02*
X3826760D01*
G01X4094480Y-808750D02*
Y-1126250D01*
G01X4003930Y-808750D02*
X4185030D01*
G01X4326760Y-1083930D02*
X4358260Y-1110380D01*
X4393690Y-1126250D01*
X4425190D01*
X4456680Y-1110380D01*
X4480310Y-1083930D01*
X4492120Y-1046870D01*
X4484250Y-1009840D01*
X4464560Y-978090D01*
X4429120Y-956910D01*
X4381880Y-946330D01*
X4354320Y-925170D01*
X4342510Y-888130D01*
X4350390Y-851080D01*
X4370070Y-824630D01*
X4397630Y-808750D01*
X4425190D01*
X4452750Y-819330D01*
X4476370Y-845790D01*
G01X4940930Y-1126250D02*
X5039360Y-808750D01*
X5137790Y-1126250D01*
G01X5102350Y-1015130D02*
X4976360D01*
G01X5275580Y-1126250D02*
Y-808750D01*
X5374000D01*
X5405500Y-824630D01*
X5425190Y-845790D01*
X5433060Y-888130D01*
X5425190Y-930460D01*
X5401560Y-956910D01*
X5374000Y-972800D01*
X5275580D01*
G01X5374000D02*
X5433060Y-1126250D01*
G01X5748020D02*
X5590540D01*
Y-808750D01*
X5748020D01*
G01X5685030Y-962200D02*
X5590540D01*
G01X6251960Y-808750D02*
X6346440D01*
G01X6299200D02*
Y-1126250D01*
G01X6251960D02*
X6346440D01*
G01X6523610D02*
Y-808750D01*
X6704710Y-1126250D01*
Y-808750D01*
G01X7141710Y-1126250D02*
Y-808750D01*
X7244080Y-1073330D01*
X7346450Y-808750D01*
Y-1126250D01*
G01X7511800Y-808750D02*
X7606280D01*
G01X7559040D02*
Y-1126250D01*
G01X7511800D02*
X7606280D01*
G01X7795260Y-808750D02*
Y-1126250D01*
X7952740D01*
G01X8110220Y-808750D02*
Y-1126250D01*
X8267700D01*
G01X8456680Y-808750D02*
X8551160D01*
G01X8503920D02*
Y-1126250D01*
G01X8456680D02*
X8551160D01*
G01X8716510D02*
Y-808750D01*
X8818880Y-1073330D01*
X8921250Y-808750D01*
Y-1126250D01*
G01X9212580D02*
X9055100D01*
Y-808750D01*
X9212580D01*
G01X9149590Y-962200D02*
X9055100D01*
G01X9448800Y-808750D02*
Y-1126250D01*
G01X9358250Y-808750D02*
X9539350D01*
G01X9842500Y-1126250D02*
X9685020D01*
Y-808750D01*
X9842500D01*
G01X9779510Y-962200D02*
X9685020D01*
G01X9999980Y-1126250D02*
Y-808750D01*
X10098400D01*
X10129900Y-824630D01*
X10149590Y-845790D01*
X10157460Y-888130D01*
X10149590Y-930460D01*
X10125960Y-956910D01*
X10098400Y-972800D01*
X9999980D01*
G01X10098400D02*
X10157460Y-1126250D01*
G01X10311000Y-1083930D02*
X10342500Y-1110380D01*
X10377930Y-1126250D01*
X10409430D01*
X10440920Y-1110380D01*
X10464550Y-1083930D01*
X10476360Y-1046870D01*
X10468490Y-1009840D01*
X10448800Y-978090D01*
X10413360Y-956910D01*
X10366120Y-946330D01*
X10338560Y-925170D01*
X10326750Y-888130D01*
X10334630Y-851080D01*
X10354310Y-824630D01*
X10381870Y-808750D01*
X10409430D01*
X10436990Y-819330D01*
X10460610Y-845790D01*
G01X2118110Y-476250D02*
Y-158750D01*
X2196840D01*
X2228340Y-174630D01*
X2251960Y-195790D01*
X2271650Y-227540D01*
X2287400Y-264590D01*
X2291330Y-317500D01*
X2287400Y-370420D01*
X2271650Y-407460D01*
X2251960Y-439220D01*
X2228340Y-460380D01*
X2196840Y-476250D01*
X2118110D01*
G01X2440940D02*
Y-158750D01*
X2539360D01*
X2570860Y-174630D01*
X2590550Y-195790D01*
X2598420Y-238130D01*
X2590550Y-280460D01*
X2566920Y-306910D01*
X2539360Y-322800D01*
X2440940D01*
G01X2539360D02*
X2598420Y-476250D01*
G01X2787400Y-158750D02*
X2881880D01*
G01X2834640D02*
Y-476250D01*
G01X2787400D02*
X2881880D01*
G01X3070860Y-158750D02*
Y-476250D01*
X3228340D01*
G01X3385820Y-158750D02*
Y-476250D01*
X3543300D01*
G01X4181090Y-185210D02*
X4157470Y-169330D01*
X4129920Y-158750D01*
X4098420D01*
X4062980Y-174630D01*
X4035430Y-201080D01*
X4015740Y-232840D01*
X3999990Y-285750D01*
X3996050Y-333380D01*
X4003930Y-381000D01*
X4015740Y-412750D01*
X4039360Y-444510D01*
X4066920Y-465670D01*
X4094480Y-476250D01*
X4122040D01*
X4149600Y-465670D01*
X4173220Y-449800D01*
X4192910Y-428640D01*
G01X4326760Y-476250D02*
Y-158750D01*
G01X4492120D02*
Y-476250D01*
G01Y-317500D02*
X4326760D01*
G01X4625970Y-476250D02*
X4724400Y-158750D01*
X4822830Y-476250D01*
G01X4787390Y-365130D02*
X4661400D01*
G01X4960620Y-476250D02*
Y-158750D01*
X5059040D01*
X5090540Y-174630D01*
X5110230Y-195790D01*
X5118100Y-238130D01*
X5110230Y-280460D01*
X5086600Y-306910D01*
X5059040Y-322800D01*
X4960620D01*
G01X5059040D02*
X5118100Y-476250D01*
G01X5354320Y-158750D02*
Y-476250D01*
G01X5263770Y-158750D02*
X5444870D01*
G01X5669280Y-486830D02*
X5661400Y-481540D01*
Y-470960D01*
X5669280Y-465670D01*
X5677160Y-470960D01*
Y-481540D01*
X5669280Y-486830D01*
G01Y-343970D02*
X5661400Y-338670D01*
Y-328090D01*
X5669280Y-322800D01*
X5677160Y-328090D01*
Y-338670D01*
X5669280Y-343970D01*
G01X6299200Y-158750D02*
Y-476250D01*
G01X6208650Y-158750D02*
X6389750D01*
G01X6614160Y-476250D02*
X6582660Y-470960D01*
X6555110Y-449800D01*
X6531480Y-418040D01*
X6515730Y-381000D01*
X6507860Y-338670D01*
Y-296330D01*
X6515730Y-254000D01*
X6531480Y-216960D01*
X6555110Y-185210D01*
X6582660Y-164040D01*
X6614160Y-158750D01*
X6645650Y-164040D01*
X6673210Y-185210D01*
X6696840Y-216960D01*
X6712590Y-254000D01*
X6720460Y-296330D01*
Y-338670D01*
X6712590Y-381000D01*
X6696840Y-418040D01*
X6673210Y-449800D01*
X6645650Y-470960D01*
X6614160Y-476250D01*
G01X6850380D02*
Y-158750D01*
X6944870D01*
X6976360Y-174630D01*
X6999990Y-211670D01*
X7007860Y-254000D01*
X6999990Y-296330D01*
X6980300Y-328090D01*
X6944870Y-343970D01*
X6850380D01*
G01X7559040Y-158750D02*
Y-476250D01*
G01X7503920Y-264590D02*
X7614160D01*
G01X7874000Y-476250D02*
X7850380Y-470960D01*
X7826760Y-449800D01*
X7811000Y-412750D01*
X7803130Y-370420D01*
X7811000Y-328090D01*
X7826760Y-291040D01*
X7850380Y-269880D01*
X7874000Y-264590D01*
X7897620Y-269880D01*
X7921240Y-291040D01*
X7936990Y-328090D01*
X7940930Y-370420D01*
X7936990Y-412750D01*
X7921240Y-449800D01*
X7897620Y-470960D01*
X7874000Y-476250D01*
G01X8535410Y-306910D02*
X8551160Y-291040D01*
X8562970Y-264590D01*
X8570850Y-227540D01*
X8562970Y-195790D01*
X8547230Y-174630D01*
X8519670Y-158750D01*
X8413370D01*
Y-476250D01*
X8543290D01*
X8570850Y-455090D01*
X8586600Y-423330D01*
X8594470Y-386290D01*
X8586600Y-349260D01*
X8562970Y-317500D01*
X8535410Y-306910D01*
X8413370D01*
G01X8818880Y-476250D02*
X8787380Y-470960D01*
X8759830Y-449800D01*
X8736200Y-418040D01*
X8720450Y-381000D01*
X8712580Y-338670D01*
Y-296330D01*
X8720450Y-254000D01*
X8736200Y-216960D01*
X8759830Y-185210D01*
X8787380Y-164040D01*
X8818880Y-158750D01*
X8850370Y-164040D01*
X8877930Y-185210D01*
X8901560Y-216960D01*
X8917310Y-254000D01*
X8925180Y-296330D01*
Y-338670D01*
X8917310Y-381000D01*
X8901560Y-418040D01*
X8877930Y-449800D01*
X8850370Y-470960D01*
X8818880Y-476250D01*
G01X9133840Y-158750D02*
Y-476250D01*
G01X9043290Y-158750D02*
X9224390D01*
G01X9448800D02*
Y-476250D01*
G01X9358250Y-158750D02*
X9539350D01*
G01X9763760Y-476250D02*
X9732260Y-470960D01*
X9704710Y-449800D01*
X9681080Y-418040D01*
X9665330Y-381000D01*
X9657460Y-338670D01*
Y-296330D01*
X9665330Y-254000D01*
X9681080Y-216960D01*
X9704710Y-185210D01*
X9732260Y-164040D01*
X9763760Y-158750D01*
X9795250Y-164040D01*
X9822810Y-185210D01*
X9846440Y-216960D01*
X9862190Y-254000D01*
X9870060Y-296330D01*
Y-338670D01*
X9862190Y-381000D01*
X9846440Y-418040D01*
X9822810Y-449800D01*
X9795250Y-470960D01*
X9763760Y-476250D01*
G01X9976350D02*
Y-158750D01*
X10078720Y-423330D01*
X10181090Y-158750D01*
Y-476250D01*
G01X2283460Y-1363740D02*
Y-4932440D01*
G01X2993720Y5486500D02*
X2996940Y5514010D01*
X3001770Y5537300D01*
X3008200Y5558470D01*
X3016240Y5581750D01*
X3029110Y5613500D01*
X2964770D01*
G01X3095910Y5592330D02*
X3105570Y5605030D01*
X3116830Y5611380D01*
X3129700Y5613500D01*
X3145780Y5609270D01*
X3157050Y5598680D01*
X3160260Y5585990D01*
X3158650Y5573280D01*
X3152220Y5562700D01*
X3120050Y5541530D01*
X3105570Y5526720D01*
X3095910Y5505550D01*
X3092700Y5486500D01*
X3160260D01*
G01X3473780D02*
X3477000Y5514010D01*
X3481830Y5537300D01*
X3488260Y5558470D01*
X3496300Y5581750D01*
X3509170Y5613500D01*
X3444830D01*
G01X3575970Y5592330D02*
X3585630Y5605030D01*
X3596890Y5611380D01*
X3609760Y5613500D01*
X3625840Y5609270D01*
X3637110Y5598680D01*
X3640320Y5585990D01*
X3638710Y5573280D01*
X3632280Y5562700D01*
X3600110Y5541530D01*
X3585630Y5526720D01*
X3575970Y5505550D01*
X3572760Y5486500D01*
X3640320D01*
G01X3380480D02*
X3332220D01*
Y5613500D01*
X3380480D01*
G01X3968500Y-4670820D02*
X3992110Y-4707870D01*
X4023610Y-4729030D01*
X4059050Y-4734320D01*
X4090550Y-4729030D01*
X4122040Y-4702580D01*
X4141720Y-4670820D01*
X4145660Y-4639070D01*
X4137790Y-4602040D01*
X4110230Y-4575570D01*
X4082670Y-4564980D01*
X4047230D01*
G01X4082670D02*
X4106290Y-4549110D01*
X4125980Y-4522660D01*
X4133850Y-4490910D01*
X4125980Y-4459150D01*
X4106290Y-4432700D01*
X4070860Y-4416820D01*
X4035430Y-4422110D01*
X3999990Y-4443280D01*
G01X4370070Y-4744900D02*
X4362190Y-4739610D01*
Y-4729030D01*
X4370070Y-4723740D01*
X4377950Y-4729030D01*
Y-4739610D01*
X4370070Y-4744900D01*
G01X4685030Y-4734320D02*
Y-4416820D01*
X4637790Y-4480320D01*
G01Y-4734320D02*
X4732270D01*
G01X4992110D02*
X4999990Y-4665530D01*
X5011800Y-4607330D01*
X5027550Y-4554400D01*
X5047230Y-4496200D01*
X5078730Y-4416820D01*
X4921250D01*
G01X5228340Y-4686710D02*
X5251950Y-4713160D01*
X5279510Y-4729030D01*
X5314950Y-4734320D01*
X5350390Y-4723740D01*
X5377940Y-4702580D01*
X5397630Y-4665530D01*
X5401560Y-4623200D01*
X5393690Y-4580870D01*
X5374000Y-4554400D01*
X5346440Y-4533240D01*
X5318890Y-4527950D01*
X5291330Y-4533240D01*
X5255900Y-4554400D01*
X5267710Y-4416820D01*
X5374000D01*
G01X3897630Y-4020580D02*
Y-3703080D01*
X3850390Y-3766580D01*
G01Y-4020580D02*
X3944870D01*
G01X4212590Y-4031160D02*
X4204710Y-4025870D01*
Y-4015290D01*
X4212590Y-4010000D01*
X4220470Y-4015290D01*
Y-4025870D01*
X4212590Y-4031160D01*
G01X4527550Y-3703080D02*
X4496050Y-3713660D01*
X4472430Y-3740120D01*
X4456680Y-3771870D01*
X4444870Y-3814210D01*
X4440940Y-3861830D01*
X4444870Y-3909460D01*
X4456680Y-3951790D01*
X4472430Y-3983550D01*
X4496050Y-4010000D01*
X4527550Y-4020580D01*
X4559040Y-4010000D01*
X4582670Y-3983550D01*
X4598420Y-3951790D01*
X4610230Y-3909460D01*
X4614160Y-3861830D01*
X4610230Y-3814210D01*
X4598420Y-3771870D01*
X4582670Y-3740120D01*
X4559040Y-3713660D01*
X4527550Y-3703080D01*
G01X4767700Y-3888300D02*
X4795270Y-3851240D01*
X4818890Y-3830080D01*
X4850390Y-3819500D01*
X4877950Y-3830080D01*
X4897630Y-3851240D01*
X4913380Y-3883000D01*
X4917320Y-3920040D01*
X4913380Y-3951790D01*
X4897630Y-3983550D01*
X4874000Y-4010000D01*
X4846450Y-4020580D01*
X4814950Y-4010000D01*
X4787390Y-3978260D01*
X4771640Y-3930620D01*
X4767700Y-3877710D01*
X4775580Y-3808920D01*
X4787390Y-3771870D01*
X4807070Y-3734830D01*
X4834630Y-3708370D01*
X4862190Y-3703080D01*
X4889750Y-3713660D01*
X4909440Y-3740120D01*
G01X5082660Y-3888300D02*
X5110230Y-3851240D01*
X5133850Y-3830080D01*
X5165350Y-3819500D01*
X5192910Y-3830080D01*
X5212590Y-3851240D01*
X5228340Y-3883000D01*
X5232280Y-3920040D01*
X5228340Y-3951790D01*
X5212590Y-3983550D01*
X5188960Y-4010000D01*
X5161410Y-4020580D01*
X5129910Y-4010000D01*
X5102350Y-3978260D01*
X5086600Y-3930620D01*
X5082660Y-3877710D01*
X5090540Y-3808920D01*
X5102350Y-3771870D01*
X5122030Y-3734830D01*
X5149590Y-3708370D01*
X5177150Y-3703080D01*
X5204710Y-3713660D01*
X5224400Y-3740120D01*
G01X5472430Y-4020580D02*
X5499990Y-4015290D01*
X5531480Y-3999420D01*
X5551170Y-3972970D01*
X5559040Y-3935910D01*
X5551170Y-3898880D01*
X5527550Y-3867130D01*
X5492110Y-3851240D01*
X5452750D01*
X5429120Y-3840660D01*
X5409430Y-3814210D01*
X5401560Y-3777170D01*
X5413380Y-3740120D01*
X5440930Y-3713660D01*
X5472430Y-3703080D01*
X5503920Y-3713660D01*
X5531480Y-3740120D01*
X5543300Y-3777170D01*
X5535420Y-3814210D01*
X5515740Y-3840660D01*
X5492110Y-3851240D01*
X5452750D01*
X5417310Y-3867130D01*
X5393690Y-3898880D01*
X5385820Y-3935910D01*
X5393690Y-3972970D01*
X5413380Y-3999420D01*
X5444870Y-4015290D01*
X5472430Y-4020580D01*
G01X3897630Y-2989340D02*
X3866130Y-2999920D01*
X3842510Y-3026380D01*
X3826760Y-3058130D01*
X3814950Y-3100470D01*
X3811020Y-3148090D01*
X3814950Y-3195720D01*
X3826760Y-3238050D01*
X3842510Y-3269810D01*
X3866130Y-3296260D01*
X3897630Y-3306840D01*
X3929120Y-3296260D01*
X3952750Y-3269810D01*
X3968500Y-3238050D01*
X3980310Y-3195720D01*
X3984240Y-3148090D01*
X3980310Y-3100470D01*
X3968500Y-3058130D01*
X3952750Y-3026380D01*
X3929120Y-2999920D01*
X3897630Y-2989340D01*
G01X4212590Y-3317420D02*
X4204710Y-3312130D01*
Y-3301550D01*
X4212590Y-3296260D01*
X4220470Y-3301550D01*
Y-3312130D01*
X4212590Y-3317420D01*
G01X4460620Y-3269810D02*
X4488180Y-3296260D01*
X4519670Y-3306840D01*
X4551170Y-3296260D01*
X4578730Y-3264520D01*
X4598420Y-3216880D01*
X4606290Y-3169260D01*
Y-3111050D01*
X4598420Y-3063430D01*
X4578730Y-3021090D01*
X4555110Y-2999920D01*
X4527550Y-2989340D01*
X4496050Y-2999920D01*
X4472430Y-3021090D01*
X4456680Y-3052840D01*
X4448810Y-3095180D01*
X4456680Y-3132210D01*
X4476370Y-3169260D01*
X4499990Y-3190430D01*
X4527550Y-3195720D01*
X4559040Y-3185140D01*
X4582670Y-3158680D01*
X4606290Y-3111050D01*
G01X4842510Y-3306840D02*
Y-2989340D01*
X4795270Y-3052840D01*
G01Y-3306840D02*
X4889750D01*
G01X5204710D02*
Y-2989340D01*
X5059040Y-3216880D01*
X5255900D01*
G01X5519670Y-3306840D02*
Y-2989340D01*
X5374000Y-3216880D01*
X5570860D01*
G01X3897630Y-2275600D02*
X3866130Y-2286180D01*
X3842510Y-2312640D01*
X3826760Y-2344390D01*
X3814950Y-2386730D01*
X3811020Y-2434350D01*
X3814950Y-2481980D01*
X3826760Y-2524310D01*
X3842510Y-2556070D01*
X3866130Y-2582520D01*
X3897630Y-2593100D01*
X3929120Y-2582520D01*
X3952750Y-2556070D01*
X3968500Y-2524310D01*
X3980310Y-2481980D01*
X3984240Y-2434350D01*
X3980310Y-2386730D01*
X3968500Y-2344390D01*
X3952750Y-2312640D01*
X3929120Y-2286180D01*
X3897630Y-2275600D01*
G01X4212590Y-2603680D02*
X4204710Y-2598390D01*
Y-2587810D01*
X4212590Y-2582520D01*
X4220470Y-2587810D01*
Y-2598390D01*
X4212590Y-2603680D01*
G01X4440940Y-2529600D02*
X4464550Y-2566650D01*
X4496050Y-2587810D01*
X4531490Y-2593100D01*
X4562990Y-2587810D01*
X4594480Y-2561360D01*
X4614160Y-2529600D01*
X4618100Y-2497850D01*
X4610230Y-2460820D01*
X4582670Y-2434350D01*
X4555110Y-2423760D01*
X4519670D01*
G01X4555110D02*
X4578730Y-2407890D01*
X4598420Y-2381440D01*
X4606290Y-2349690D01*
X4598420Y-2317930D01*
X4578730Y-2291480D01*
X4543300Y-2275600D01*
X4507870Y-2280890D01*
X4472430Y-2302060D01*
G01X4755900Y-2529600D02*
X4779510Y-2566650D01*
X4811010Y-2587810D01*
X4846450Y-2593100D01*
X4877950Y-2587810D01*
X4909440Y-2561360D01*
X4929120Y-2529600D01*
X4933060Y-2497850D01*
X4925190Y-2460820D01*
X4897630Y-2434350D01*
X4870070Y-2423760D01*
X4834630D01*
G01X4870070D02*
X4893690Y-2407890D01*
X4913380Y-2381440D01*
X4921250Y-2349690D01*
X4913380Y-2317930D01*
X4893690Y-2291480D01*
X4858260Y-2275600D01*
X4822830Y-2280890D01*
X4787390Y-2302060D01*
G01X5157470Y-2275600D02*
X5125970Y-2286180D01*
X5102350Y-2312640D01*
X5086600Y-2344390D01*
X5074790Y-2386730D01*
X5070860Y-2434350D01*
X5074790Y-2481980D01*
X5086600Y-2524310D01*
X5102350Y-2556070D01*
X5125970Y-2582520D01*
X5157470Y-2593100D01*
X5188960Y-2582520D01*
X5212590Y-2556070D01*
X5228340Y-2524310D01*
X5240150Y-2481980D01*
X5244080Y-2434350D01*
X5240150Y-2386730D01*
X5228340Y-2344390D01*
X5212590Y-2312640D01*
X5188960Y-2286180D01*
X5157470Y-2275600D01*
G01X5397620Y-2328520D02*
X5421250Y-2296770D01*
X5448810Y-2280890D01*
X5480310Y-2275600D01*
X5519670Y-2286180D01*
X5547240Y-2312640D01*
X5555110Y-2344390D01*
X5551170Y-2376150D01*
X5535420Y-2402600D01*
X5456680Y-2455520D01*
X5421250Y-2492560D01*
X5397620Y-2545490D01*
X5389750Y-2593100D01*
X5555110D01*
G01X4129910Y-1797670D02*
X4161410Y-1824120D01*
X4196840Y-1839990D01*
X4228340D01*
X4259830Y-1824120D01*
X4283460Y-1797670D01*
X4295270Y-1760610D01*
X4287400Y-1723580D01*
X4267710Y-1691830D01*
X4232270Y-1670650D01*
X4185030Y-1660070D01*
X4157470Y-1638910D01*
X4145660Y-1601870D01*
X4153540Y-1564820D01*
X4173220Y-1538370D01*
X4200780Y-1522490D01*
X4228340D01*
X4255900Y-1533070D01*
X4279520Y-1559530D01*
G01X4480310Y-1522490D02*
X4574790D01*
G01X4527550D02*
Y-1839990D01*
G01X4480310D02*
X4574790D01*
G01X4767700Y-1522490D02*
X4917320D01*
X4767700Y-1839990D01*
X4917320D01*
G01X5236210D02*
X5078730D01*
Y-1522490D01*
X5236210D01*
G01X5173220Y-1675940D02*
X5078730D01*
G01X3846570Y5550000D02*
X7600000D01*
G01X3703060Y5486500D02*
X3751320D01*
Y5613500D01*
X3703060D01*
G01X7192900Y-4734320D02*
Y-4416820D01*
X7374000Y-4734320D01*
Y-4416820D01*
G01X7598410Y-4734320D02*
X7566910Y-4729030D01*
X7539360Y-4707870D01*
X7515730Y-4676110D01*
X7499980Y-4639070D01*
X7492110Y-4596740D01*
Y-4554400D01*
X7499980Y-4512070D01*
X7515730Y-4475030D01*
X7539360Y-4443280D01*
X7566910Y-4422110D01*
X7598410Y-4416820D01*
X7629900Y-4422110D01*
X7657460Y-4443280D01*
X7681090Y-4475030D01*
X7696840Y-4512070D01*
X7704710Y-4554400D01*
Y-4596740D01*
X7696840Y-4639070D01*
X7681090Y-4676110D01*
X7657460Y-4707870D01*
X7629900Y-4729030D01*
X7598410Y-4734320D01*
G01X7822820D02*
Y-4416820D01*
X8003920Y-4734320D01*
Y-4416820D01*
G01X8177150Y-4628490D02*
X8279510D01*
G01X8464550Y-4734320D02*
Y-4416820D01*
X8559040D01*
X8590530Y-4432700D01*
X8614160Y-4469740D01*
X8622030Y-4512070D01*
X8614160Y-4554400D01*
X8594470Y-4586160D01*
X8559040Y-4602040D01*
X8464550D01*
G01X8779510Y-4416820D02*
Y-4734320D01*
X8936990D01*
G01X9074780D02*
X9173210Y-4416820D01*
X9271640Y-4734320D01*
G01X9236200Y-4623200D02*
X9110210D01*
G01X9488170Y-4416820D02*
Y-4734320D01*
G01X9397620Y-4416820D02*
X9578720D01*
G01X9881870Y-4734320D02*
X9724390D01*
Y-4416820D01*
X9881870D01*
G01X9818880Y-4570270D02*
X9724390D01*
G01X10031480Y-4734320D02*
Y-4416820D01*
X10110210D01*
X10141710Y-4432700D01*
X10165330Y-4453860D01*
X10185020Y-4485610D01*
X10200770Y-4522660D01*
X10204700Y-4575570D01*
X10200770Y-4628490D01*
X10185020Y-4665530D01*
X10165330Y-4697290D01*
X10141710Y-4718450D01*
X10110210Y-4734320D01*
X10031480D01*
G01X7086600Y-1363740D02*
Y-4932440D01*
G01X7200000Y5487500D02*
X7600000Y5550000D01*
X7200000Y5612500D01*
Y5487500D01*
G01X7834630Y-4020580D02*
Y-3703080D01*
X7929120D01*
X7960610Y-3718960D01*
X7984240Y-3756000D01*
X7992110Y-3798330D01*
X7984240Y-3840660D01*
X7964550Y-3872420D01*
X7929120Y-3888300D01*
X7834630D01*
G01X8149590Y-3703080D02*
Y-4020580D01*
X8307070D01*
G01X8444860D02*
X8543290Y-3703080D01*
X8641720Y-4020580D01*
G01X8606280Y-3909460D02*
X8480290D01*
G01X8858250Y-3703080D02*
Y-4020580D01*
G01X8767700Y-3703080D02*
X8948800D01*
G01X9251950Y-4020580D02*
X9094470D01*
Y-3703080D01*
X9251950D01*
G01X9188960Y-3856530D02*
X9094470D01*
G01X9401560Y-4020580D02*
Y-3703080D01*
X9480290D01*
X9511790Y-3718960D01*
X9535410Y-3740120D01*
X9555100Y-3771870D01*
X9570850Y-3808920D01*
X9574780Y-3861830D01*
X9570850Y-3914750D01*
X9555100Y-3951790D01*
X9535410Y-3983550D01*
X9511790Y-4004710D01*
X9480290Y-4020580D01*
X9401560D01*
G01X7834630Y-3306840D02*
Y-2989340D01*
X7929120D01*
X7960610Y-3005220D01*
X7984240Y-3042260D01*
X7992110Y-3084590D01*
X7984240Y-3126920D01*
X7964550Y-3158680D01*
X7929120Y-3174560D01*
X7834630D01*
G01X8149590Y-2989340D02*
Y-3306840D01*
X8307070D01*
G01X8444860D02*
X8543290Y-2989340D01*
X8641720Y-3306840D01*
G01X8606280Y-3195720D02*
X8480290D01*
G01X8858250Y-2989340D02*
Y-3306840D01*
G01X8767700Y-2989340D02*
X8948800D01*
G01X9251950Y-3306840D02*
X9094470D01*
Y-2989340D01*
X9251950D01*
G01X9188960Y-3142790D02*
X9094470D01*
G01X9401560Y-3306840D02*
Y-2989340D01*
X9480290D01*
X9511790Y-3005220D01*
X9535410Y-3026380D01*
X9555100Y-3058130D01*
X9570850Y-3095180D01*
X9574780Y-3148090D01*
X9570850Y-3201010D01*
X9555100Y-3238050D01*
X9535410Y-3269810D01*
X9511790Y-3290970D01*
X9480290Y-3306840D01*
X9401560D01*
G01X7834630Y-2593100D02*
Y-2275600D01*
X7929120D01*
X7960610Y-2291480D01*
X7984240Y-2328520D01*
X7992110Y-2370850D01*
X7984240Y-2413180D01*
X7964550Y-2444940D01*
X7929120Y-2460820D01*
X7834630D01*
G01X8149590Y-2275600D02*
Y-2593100D01*
X8307070D01*
G01X8444860D02*
X8543290Y-2275600D01*
X8641720Y-2593100D01*
G01X8606280Y-2481980D02*
X8480290D01*
G01X8858250Y-2275600D02*
Y-2593100D01*
G01X8767700Y-2275600D02*
X8948800D01*
G01X9251950Y-2593100D02*
X9094470D01*
Y-2275600D01*
X9251950D01*
G01X9188960Y-2429050D02*
X9094470D01*
G01X9401560Y-2593100D02*
Y-2275600D01*
X9480290D01*
X9511790Y-2291480D01*
X9535410Y-2312640D01*
X9555100Y-2344390D01*
X9570850Y-2381440D01*
X9574780Y-2434350D01*
X9570850Y-2487270D01*
X9555100Y-2524310D01*
X9535410Y-2556070D01*
X9511790Y-2577230D01*
X9480290Y-2593100D01*
X9401560D01*
G01X7834630Y-1839990D02*
Y-1522490D01*
X7929120D01*
X7960610Y-1538370D01*
X7984240Y-1575410D01*
X7992110Y-1617740D01*
X7984240Y-1660070D01*
X7964550Y-1691830D01*
X7929120Y-1707710D01*
X7834630D01*
G01X8149590Y-1522490D02*
Y-1839990D01*
X8307070D01*
G01X8444860D02*
X8543290Y-1522490D01*
X8641720Y-1839990D01*
G01X8606280Y-1728870D02*
X8480290D01*
G01X8858250Y-1522490D02*
Y-1839990D01*
G01X8767700Y-1522490D02*
X8948800D01*
G01X9251950Y-1839990D02*
X9094470D01*
Y-1522490D01*
X9251950D01*
G01X9188960Y-1675940D02*
X9094470D01*
G01X9401560Y-1839990D02*
Y-1522490D01*
X9480290D01*
X9511790Y-1538370D01*
X9535410Y-1559530D01*
X9555100Y-1591280D01*
X9570850Y-1628330D01*
X9574780Y-1681240D01*
X9570850Y-1734160D01*
X9555100Y-1771200D01*
X9535410Y-1802960D01*
X9511790Y-1824120D01*
X9480290Y-1839990D01*
X9401560D01*
G01X7600000Y5250000D02*
Y5800000D01*
G01X10314940Y-1363740D02*
Y-4932440D01*
G01X11346430Y-4734320D02*
Y-4416820D01*
X11200760Y-4644360D01*
X11397620D01*
G01X11188950Y-4020580D02*
Y-3703080D01*
X11043280Y-3930620D01*
X11240140D01*
G01X11456670Y-3703080D02*
X11425170Y-3713660D01*
X11401550Y-3740120D01*
X11385800Y-3771870D01*
X11373990Y-3814210D01*
X11370060Y-3861830D01*
X11373990Y-3909460D01*
X11385800Y-3951790D01*
X11401550Y-3983550D01*
X11425170Y-4010000D01*
X11456670Y-4020580D01*
X11488160Y-4010000D01*
X11511790Y-3983550D01*
X11527540Y-3951790D01*
X11539350Y-3909460D01*
X11543280Y-3861830D01*
X11539350Y-3814210D01*
X11527540Y-3771870D01*
X11511790Y-3740120D01*
X11488160Y-3713660D01*
X11456670Y-3703080D01*
G01X11141710Y-3306840D02*
Y-2989340D01*
X11094470Y-3052840D01*
G01Y-3306840D02*
X11188950D01*
G01X11370060Y-3259230D02*
X11393670Y-3285680D01*
X11421230Y-3301550D01*
X11456670Y-3306840D01*
X11492110Y-3296260D01*
X11519660Y-3275100D01*
X11539350Y-3238050D01*
X11543280Y-3195720D01*
X11535410Y-3153390D01*
X11515720Y-3126920D01*
X11488160Y-3105760D01*
X11460610Y-3100470D01*
X11433050Y-3105760D01*
X11397620Y-3126920D01*
X11409430Y-2989340D01*
X11515720D01*
G01X11141710Y-2593100D02*
Y-2275600D01*
X11094470Y-2339100D01*
G01Y-2593100D02*
X11188950D01*
G01X11456670Y-2275600D02*
X11425170Y-2286180D01*
X11401550Y-2312640D01*
X11385800Y-2344390D01*
X11373990Y-2386730D01*
X11370060Y-2434350D01*
X11373990Y-2481980D01*
X11385800Y-2524310D01*
X11401550Y-2556070D01*
X11425170Y-2582520D01*
X11456670Y-2593100D01*
X11488160Y-2582520D01*
X11511790Y-2556070D01*
X11527540Y-2524310D01*
X11539350Y-2481980D01*
X11543280Y-2434350D01*
X11539350Y-2386730D01*
X11527540Y-2344390D01*
X11511790Y-2312640D01*
X11488160Y-2286180D01*
X11456670Y-2275600D01*
G01X10984230Y-1839990D02*
X10952730Y-1834700D01*
X10925180Y-1813540D01*
X10901550Y-1781780D01*
X10885800Y-1744740D01*
X10877930Y-1702410D01*
Y-1660070D01*
X10885800Y-1617740D01*
X10901550Y-1580700D01*
X10925180Y-1548950D01*
X10952730Y-1527780D01*
X10984230Y-1522490D01*
X11015720Y-1527780D01*
X11043280Y-1548950D01*
X11066910Y-1580700D01*
X11082660Y-1617740D01*
X11090530Y-1660070D01*
Y-1702410D01*
X11082660Y-1744740D01*
X11066910Y-1781780D01*
X11043280Y-1813540D01*
X11015720Y-1834700D01*
X10984230Y-1839990D01*
G01X11015720Y-1755320D02*
X11062970Y-1839990D01*
G01X11299190Y-1522490D02*
Y-1839990D01*
G01X11208640Y-1522490D02*
X11389740D01*
G01X11614150Y-1839990D02*
Y-1697120D01*
X11535410Y-1522490D01*
G01X11692890D02*
X11614150Y-1697120D01*
M02*
