G04 ================== begin FILE IDENTIFICATION RECORD ==================*
G04 Layout Name:  C:/ORCADDATA/DIGITALCONVERTOR/allegro/DIGITALCONVERTOR.brd*
G04 Film Name:    Soldermask_Top*
G04 File Format:  Gerber RS274X*
G04 File Origin:  Cadence Allegro 16.6-B033*
G04 Origin Date:  Fri Feb 05 13:18:49 2021*
G04 *
G04 Layer:  VIA CLASS/SOLDERMASK_TOP*
G04 Layer:  PIN/SOLDERMASK_TOP*
G04 Layer:  BOARD GEOMETRY/OUTLINE*
G04 Layer:  BOARD GEOMETRY/DIMENSION*
G04 *
G04 Offset:    (0.0000 0.0000)*
G04 Mirror:    No*
G04 Mode:      Positive*
G04 Rotation:  0*
G04 FullContactRelief:  No*
G04 UndefLineWidth:     0.0000*
G04 ================== end FILE IDENTIFICATION RECORD ====================*
%FSLAX25Y25*MOMM*%
%IR0*IPPOS*OFA0.00000B0.00000*MIA0B0*SFA1.00000B1.00000*%
%ADD14R,.762X1.397*%
%ADD12C,2.032*%
%ADD11C,1.905*%
%ADD13C,1.1176*%
%ADD10C,3.683*%
%ADD15C,.1*%
G75*
%LPD*%
G75*
G54D10*
X500000Y500000D03*
Y4500000D03*
X7500000Y500000D03*
Y4500000D03*
G54D11*
X698500Y2540000D03*
Y2794000D03*
X1150000Y3667000D03*
X896000Y3921000D03*
X1150000Y4175000D03*
X1775000Y1306000D03*
Y1052000D03*
X2425000Y3725000D03*
Y3979000D03*
X3175000Y3725000D03*
Y3979000D03*
X3900000Y3725000D03*
Y3979000D03*
X4625000Y3725000D03*
Y3979000D03*
G54D12*
X1150000Y677000D03*
Y2050000D03*
Y1693000D03*
Y3066000D03*
X1775000Y3725000D03*
Y3979000D03*
X3000000Y677000D03*
X2400000D03*
Y2125000D03*
X3000000Y1693000D03*
X2400000D03*
Y3141000D03*
X3575000Y677000D03*
Y1693000D03*
X4200000Y677000D03*
Y1693000D03*
Y2125000D03*
Y3141000D03*
X4750000Y677000D03*
X5270500Y698500D03*
X4750000Y1693000D03*
Y2125000D03*
X5270500Y1714500D03*
X4750000Y3141000D03*
X5250000Y3275000D03*
Y4291000D03*
X5875000Y677000D03*
Y1693000D03*
X5675000Y3275000D03*
Y4291000D03*
X6600000Y677000D03*
Y1693000D03*
X6604000Y1968500D03*
Y2984500D03*
X6100000Y3275000D03*
X6600000D03*
X6100000Y4291000D03*
X6600000D03*
X7100000Y3275000D03*
Y4291000D03*
G54D13*
X1397000Y2286000D03*
X1940500Y2075000D03*
X2905500Y2238000D03*
X3159500Y1434550D03*
X3667500Y2238000D03*
X3794500D03*
X5207000Y2470160D03*
X5461000Y2191150D03*
X5588000Y2921000D03*
X5842000Y2680970D03*
G54D14*
X1686500Y2872650D03*
X1559500D03*
X1813500D03*
X1940500D03*
X1559500Y2377350D03*
X1686500D03*
X1813500D03*
X1940500D03*
X2905500Y2897650D03*
Y2402350D03*
X3032500Y2897650D03*
X3159500D03*
X3413500D03*
X3286500D03*
X3540500D03*
X3667500D03*
X3032500Y2402350D03*
X3159500D03*
X3286500D03*
X3413500D03*
X3540500D03*
X3667500D03*
X3794500Y2897650D03*
Y2402350D03*
X5207000Y2787650D03*
Y2292350D03*
X5334000Y2787650D03*
X5461000D03*
X5715000D03*
X5588000D03*
X5842000D03*
X5969000D03*
X5334000Y2292350D03*
X5461000D03*
X5588000D03*
X5715000D03*
X5842000D03*
X5969000D03*
G54D15*
G01X400000Y0D02*
X7600000D01*
G03X8000000Y400000I0J400000D01*
G01Y4600000D01*
G03X7600000Y5000000I-400000J0D01*
G01X400000D01*
G03X0Y4600000I0J-400000D01*
G01Y400000D01*
G03X400000Y0I400000J0D01*
M02*
